<mxfile host="app.diagrams.net" modified="2023-07-06T09:59:36.436Z" agent="Mozilla/5.0 (Windows NT 10.0; Win64; x64) AppleWebKit/537.36 (KHTML, like Gecko) Chrome/114.0.0.0 Safari/537.36" etag="g3U7icqaUc2Ep5aEf1YY" version="21.5.2" type="github">
  <diagram name="Page-1" id="FYGCvDn3lkFWYGkZGDOT">
    <mxGraphModel dx="933" dy="349" grid="1" gridSize="10" guides="1" tooltips="1" connect="1" arrows="1" fold="1" page="1" pageScale="1" pageWidth="3300" pageHeight="4681" math="0" shadow="0">
      <root>
        <mxCell id="0" />
        <mxCell id="1" parent="0" />
        <mxCell id="ugSwHuxISsAq8XEXFErL-31" value="" style="rounded=0;whiteSpace=wrap;html=1;" vertex="1" parent="1">
          <mxGeometry x="360" y="340" width="470" height="300" as="geometry" />
        </mxCell>
        <mxCell id="ugSwHuxISsAq8XEXFErL-2" value="" style="shape=image;verticalLabelPosition=bottom;verticalAlign=top;imageAspect=0;aspect=fixed;image=data:image/svg+xml,PHN2ZyB4bWxucz0iaHR0cDovL3d3dy53My5vcmcvMjAwMC9zdmciIHZpZXdCb3g9IjAgMCA0OTYgNTEyIj48cGF0aCBkPSJtMTY1LjkgMzk3LjRjMCAyLTIuMyAzLjYtNS4yIDMuNi0zLjMuMy01LjYtMS4zLTUuNi0zLjYgMC0yIDIuMy0zLjYgNS4yLTMuNiAzLS4zIDUuNiAxLjMgNS42IDMuNnptLTMxLjEtNC41Yy0uNyAyIDEuMyA0LjMgNC4zIDQuOSAyLjYgMSA1LjYgMCA2LjItMnMtMS4zLTQuMy00LjMtNS4yYy0yLjYtLjctNS41LjMtNi4yIDIuM3ptNDQuMi0xLjdjLTIuOS43LTQuOSAyLjYtNC42IDQuOS4zIDIgMi45IDMuMyA1LjkgMi42IDIuOS0uNyA0LjktMi42IDQuNi00LjYtLjMtMS45LTMtMy4yLTUuOS0yLjl6bTY1LjgtMzgzLjJjLTEzOC43IDAtMjQ0LjggMTA1LjMtMjQ0LjggMjQ0IDAgMTEwLjkgNjkuOCAyMDUuOCAxNjkuNSAyMzkuMiAxMi44IDIuMyAxNy4zLTUuNiAxNy4zLTEyLjEgMC02LjItLjMtNDAuNC0uMy02MS40IDAgMC03MCAxNS04NC43LTI5LjggMCAwLTExLjQtMjkuMS0yNy44LTM2LjYgMCAwLTIyLjktMTUuNyAxLjYtMTUuNCAwIDAgMjQuOSAyIDM4LjYgMjUuOCAyMS45IDM4LjYgNTguNiAyNy41IDcyLjkgMjAuOSAyLjMtMTYgOC44LTI3LjEgMTYtMzMuNy01NS45LTYuMi0xMTIuMy0xNC4zLTExMi4zLTExMC41IDAtMjcuNSA3LjYtNDEuMyAyMy42LTU4LjktMi42LTYuNS0xMS4xLTMzLjMgMi42LTY3LjkgMjAuOS02LjUgNjkgMjcgNjkgMjcgMjAtNS42IDQxLjUtOC41IDYyLjgtOC41czQyLjggMi45IDYyLjggOC41YzAgMCA0OC4xLTMzLjYgNjktMjcgMTMuNyAzNC43IDUuMiA2MS40IDIuNiA2Ny45IDE2IDE3LjcgMjUuOCAzMS41IDI1LjggNTguOSAwIDk2LjUtNTguOSAxMDQuMi0xMTQuOCAxMTAuNSA5LjIgNy45IDE3IDIyLjkgMTcgNDYuNCAwIDMzLjctLjMgNzUuNC0uMyA4My42IDAgNi41IDQuNiAxNC40IDE3LjMgMTIuMSAxMDAtMzMuMiAxNjcuOC0xMjguMSAxNjcuOC0yMzkgMC0xMzguNy0xMTIuNS0yNDQtMjUxLjItMjQ0em0tMTQ3LjYgMzQ0LjljLTEuMyAxLTEgMy4zLjcgNS4yIDEuNiAxLjYgMy45IDIuMyA1LjIgMSAxLjMtMSAxLTMuMy0uNy01LjItMS42LTEuNi0zLjktMi4zLTUuMi0xem0tMTAuOC04LjFjLS43IDEuMy4zIDIuOSAyLjMgMy45IDEuNiAxIDMuNi43IDQuMy0uNy43LTEuMy0uMy0yLjktMi4zLTMuOS0yLS42LTMuNi0uMy00LjMuN3ptMzIuNCAzNS42Yy0xLjYgMS4zLTEgNC4zIDEuMyA2LjIgMi4zIDIuMyA1LjIgMi42IDYuNSAxIDEuMy0xLjMuNy00LjMtMS4zLTYuMi0yLjItMi4zLTUuMi0yLjYtNi41LTF6bS0xMS40LTE0LjdjLTEuNiAxLTEuNiAzLjYgMCA1LjlzNC4zIDMuMyA1LjYgMi4zYzEuNi0xLjMgMS42LTMuOSAwLTYuMi0xLjQtMi4zLTQtMy4zLTUuNi0yeiIvPjwvc3ZnPg==" vertex="1" parent="1">
          <mxGeometry x="260" y="120" width="48.43" height="50" as="geometry" />
        </mxCell>
        <mxCell id="ugSwHuxISsAq8XEXFErL-6" value="" style="shape=image;verticalLabelPosition=bottom;verticalAlign=top;imageAspect=0;aspect=fixed;image=data:image/svg+xml,PHN2ZyB4bWxucz0iaHR0cDovL3d3dy53My5vcmcvMjAwMC9zdmciIHdpZHRoPSIyNTUuOTk5OTg0NzQxMjEwOTQiIHZpZXdCb3g9IjAuMDAwNjg1NjkxODMzNDk2MDkzOCAwIDI1NS45OTk5ODQ3NDEyMTA5NCAyNTUuOTk1MTAxOTI4NzEwOTQiIHByZXNlcnZlQXNwZWN0UmF0aW89InhNaWRZTWlkIiBoZWlnaHQ9IjI1NS45OTUxMDE5Mjg3MTA5NCI+PHBhdGggZmlsbD0iI2RlNGMzNiIgZD0ibTI1MS4xNzIyNDUgMTE2LjU5MzUxNy0xMTEuNzczNDkyLTExMS43NjUwNjM5OGMtNi40MzIzMi02LjQzNzkzNzM2LTE2Ljg3MjkwMS02LjQzNzkzNzM2LTIzLjMxMzY0NyAwbC0yMy4yMDk3MTk3IDIzLjIwOTcxOTA4IDI5LjQ0MjYwODcgMjkuNDQyNjA4OGM2Ljg0MjQxNS0yLjMxMTcwMjUgMTQuNjg3NTk4LS43NjEyMDQ2IDIwLjE0MjQzIDQuNjkzNjI3MiA1LjQ4MDExMSA1LjQ4ODUzODMgNy4wMTkzNzQgMTMuNDAxMTM0MSA0LjY1MTQ5NCAyMC4yNjYwMjAxbDI4LjM3NTIzNyAyOC4zNzUyMzY4YzYuODY0ODg2LTIuMzY1MDcxIDE0Ljc4NTkwOC0uODM0MjM1IDIwLjI2ODgyOSA0LjY1NzExMiA3LjY2MjYwNiA3LjY1OTc5NyA3LjY2MjYwNiAyMC4wNzUwMTcgMCAyNy43NDA0MzItNy42NjU0MTUgNy42NjU0MTUtMjAuMDgwNjM1IDcuNjY1NDE1LTI3Ljc0ODg1OSAwLTUuNzYzODA3LTUuNzY5NDI2LTcuMTg3OTA2LTE0LjIzNTM3LTQuMjY5NDg3LTIxLjMzNjIwMWwtMjYuNDYyMzk0LTI2LjQ2MjM5NDUtLjAwMjgwOSA2OS42Mzc1ODQ1YzEuODY3OTAxLjkyNjkyOCAzLjYzMTg3MyAyLjE2MDAyMyA1LjE4Nzk4OSAzLjcxMDUyMSA3LjY2MjYwNiA3LjY1OTc5NyA3LjY2MjYwNiAyMC4wNzUwMTcgMCAyNy43NDYwNDktNy42NjU0MTUgNy42NjI2MDctMjAuMDg2MjUyIDcuNjYyNjA3LTI3Ljc0MDQzMiAwLTcuNjYyNjA2LTcuNjcxMDMyLTcuNjYyNjA2LTIwLjA4NjI1MiAwLTI3Ljc0NjA0OSAxLjg5MzE4MS0xLjg5MDM3MiA0LjA4NDEwMi0zLjMyMDA4OCA2LjQyMTA4NC00LjI4MDcyM3YtNzAuMjg2NDMzNWMtMi4zMzY5ODItLjk1NTAxNjgtNC41MjUwOTQtMi4zNzYzMDY3LTYuNDIxMDg0LTQuMjgwNzIyOS01LjgwNTk0MS01Ljc5NzUxNDItNy4yMDE5NTEtMTQuMzE2ODI2NC00LjIyNzM1NC0yMS40NDU3NDY4bC0yOS4wMjEyNzc5LTI5LjAyNjg5NTQtNzYuNjQwMTA0OTYgNzYuNjM0NDg3NmMtNi40NDA3NDYyMyA2LjQ0MzU1NS02LjQ0MDc0NjIzIDE2Ljg4NDEzNiAwIDIzLjMyMjA3NGwxMTEuNzczNDkwODYgMTExLjc2Nzg3MmM2LjQzNTEyOSA2LjQzNzkzOCAxNi44NzI5MDEgNi40Mzc5MzggMjMuMzE2NDU2IDBsMTExLjI1MTA0Mi0xMTEuMjQ4MjMxYzYuNDM3OTM1LTYuNDQwNzQ2IDYuNDM3OTM1LTE2Ljg4Njk0NSAwLTIzLjMyNDg4MyIvPjwvc3ZnPg==" vertex="1" parent="1">
          <mxGeometry x="390" y="140" width="50" height="50" as="geometry" />
        </mxCell>
        <mxCell id="ugSwHuxISsAq8XEXFErL-14" value="" style="shape=image;verticalLabelPosition=bottom;verticalAlign=top;imageAspect=0;aspect=fixed;image=data:image/svg+xml,PHN2ZyB4bWxucz0iaHR0cDovL3d3dy53My5vcmcvMjAwMC9zdmciIHZpZXdCb3g9IjAgMCA3MiA3MiI+PHBhdGggZmlsbD0iIzkyZDNmNSIgZD0ibTE3LjEzNDcgNTguODk4OXMtMi0xMy41IDEwLTEzLjVjMy4xOTE4IDIuMTI3OSA1LjkyNjQgMy41OTg0IDkgMy41OTIyaC0uMTI0N2MzLjA3MzYuMDA2MiA1LjQwODEtMi4xNjQzIDguNi00LjI5MjIgMTUuNTcwNSAwIDEwLjggMTQuMiAxMC44IDE0LjIiLz48cGF0aCBmaWxsPSIjNjFiMmU0IiBkPSJtNDkuMjk3IDU4Ljg2MXYtMTIuODc1bC00LjQ5MS0uNzg0djcuMjQ1aC0xNy44NzdsLjAwMi03LjI0NS00LjY2Ni43ODR2MTIuODc1eiIvPjxwYXRoIGZpbGw9IiNkMGNmY2UiIGQ9Im02Ny4wODcgNDMuNDIzLTYuOTUgMTYuMzQ5aC0yNC45OWw2Ljk1LTE2LjM0OXoiLz48cGF0aCBmaWxsPSIjOWI5YjlhIiBkPSJtNjcuMzAzIDQzLjQyMy02Ljk1IDE2LjM0OWgtLjIyLTguNzdsNi45NS0xNi4zNDloOC43N3oiLz48cGF0aCBmaWxsPSIjZjRhYTQxIiBkPSJtNDkuMTYzMSAzMy43ODgzYy0yLjExMzEgNS4yODQ3LTcuNDE5MiA4LjcwMjQtMTMuNjMxMSA4LjcwMjQtNS4zNTUxIDAtMTEuMzEtMy4zMDc1LTEzLjQyMzMtOC41OTIybC0uMDc0Mi0uMTgxM2MtLjY3LTEuNjU3Ni0uNTYyMi0zLjY4NjUtLjU2MjItNS41ODM1bDIuMTUzOC0xOC43NjM3IDYuMDA3NiA1Ljg0MjlhMTQuMzU0NSAxNC4zNTQ1IDAgMCAxIDUuNTg2LTEuMTIzOWguNjI0NmExNC4zNTQ1IDE0LjM1NDUgMCAwIDEgNS41ODYgMS4xMjM5bDYuNTk1MS02LjQyMjkgMi4xODYzIDE5LjYzNjRhMTQuMjY3MiAxNC4yNjcyIDAgMCAxIC0xLjA0IDUuMzY1NyIvPjxwYXRoIGZpbGw9IiNlMjcwMjIiIGQ9Im0zNS41MzIgNDIuNDkwN2M2LjIzMTIuMTk4NSAxMS45NTUzLTMuMzk4MSAxNC4wNjg0LTguNjgyOGwuMDY1MS0uMTMzOWMuNjctMS42NTc2LjU2MjYtMy45OTc2LjU2MjYtNS44OTQ2bC0yLjIwMjctMTguOTg5NCIvPjxwYXRoIGZpbGw9IiNiMzk5YzgiIGQ9Im0yMi42NTIgMTcuNy0uNDg3IDQuNzI4IDI3LjEzMi0xLjY0MS0uMjgzLTIuNDU0eiIvPjxwYXRoIGZpbGw9IiNiMzk5YzgiIGQ9Im01MC44OTcyIDE5LjZhMiAyIDAgMSAxIC0yLTIgMi4wMDA3IDIuMDAwNyAwIDAgMSAyIDIiLz48cGF0aCBmaWxsPSIjZmZmIiBkPSJtNDcuMDcyMyAyNC45NzQ4cy04LjE2NzggMy40MDc1LTcuNzgzNyAzLjg0YzcuODE1NCA3LjAxNTkgOC40Mjg2LTIuODYyNyA3Ljc4MzctMy44NHoiLz48cGF0aCBmaWxsPSIjZmZmIiBkPSJtMjQuNjI4MSAyNC45NzQ4czcuNTU2OSA0LjAxIDcuNzgzNyAzLjg0Yy03LjU0NDUgNy4zODM5LTguNTQ1NS0yLjIzNjktNy43ODM3LTMuODR6Ii8+PHBhdGggZmlsbD0iI2ZmZiIgZD0ibTUzLjcyMTYgNTEuNzM3NmEzLjQyIDMuNDIgMCAwIDEgLTIuODQ4OSAyYy0xLjEwMzUgMC0xLjYyLS44OTU1LTEuMTUxMS0yYTMuNDIxMiAzLjQyMTIgMCAwIDEgMi44NDktMmMxLjEwMzUgMCAxLjYxOTQuODk2NSAxLjE1MSAyIi8+PGcgc3Ryb2tlLWxpbmVqb2luPSJyb3VuZCIgc3Ryb2tlLWxpbmVjYXA9InJvdW5kIiBzdHJva2U9IiMwMDAiIGZpbGw9Im5vbmUiPjxwYXRoIHN0cm9rZS13aWR0aD0iMiIgZD0ibTM2Ljg3MjMgNDguMzk4NmE2Ljg0NzIgNi44NDcyIDAgMCAxIC0xLjA2NjUuMDgxMWguMTI1Yy0zLjA3MzYuMDA2My01LjgwODEtMS40NjQyLTktMy41OTIxLTEyIDAtMTAgMTMtMTAgMTMiLz48cGF0aCBzdHJva2Utd2lkdGg9IjIiIGQ9Im0zNS40NjcgNTIuMTMzaC04LjUzOGwuMDAyLTcuMjQ1Ii8+PHBhdGggc3Ryb2tlLXdpZHRoPSIyIiBkPSJtMjIuMjY0OSA0NS43NTY5djEyLjEwOTciLz48cGF0aCBzdHJva2Utd2lkdGg9IjIiIGQ9Im0zNS4xNDcgNTkuNzcyaDI0Ljk5bDYuOTUtMTYuMzQ5aC0yNC45OXoiLz48cGF0aCBzdHJva2Utd2lkdGg9IjIiIGQ9Im0yNC4xNzY3IDU5Ljc3MjVoMTAuOTciLz48cGF0aCBzdHJva2Utd2lkdGg9IjEuOCIgZD0ibTM4LjI5MzYgMzUuNTg5LTIuNDQzNC0zLjAxNDMiLz48cGF0aCBzdHJva2Utd2lkdGg9IjEuOCIgZD0ibTMzLjQwNjggMzUuNTg5IDIuNDQzNC0zLjAxNDMiLz48cGF0aCBzdHJva2Utd2lkdGg9IjEuOCIgZD0ibTMzLjQwNjggMzIuNTc0N2g0Ljg4NjgiLz48cGF0aCBzdHJva2Utd2lkdGg9IjIiIGQ9Im00OS43NjY3IDIzLjg2OS40Mzg3IDQuMTg0NGExMy42NjQgMTMuNjY0IDAgMCAxIC0xLjAxNzEgNS4xODkiLz48cGF0aCBzdHJva2Utd2lkdGg9IjIiIGQ9Im0yMi41MTIxIDMzLjI0MjNhMTMuNjYzNSAxMy42NjM1IDAgMCAxIC0xLjAxNzEtNS4xODg5bDIuMTM4LTE4Ljk5IDYuNDQ5MiA2LjIxMDlhMTQuMTc1IDE0LjE3NSAwIDAgMSA1LjQ2MjYtMS4wODY4aC42MTA4YTE0LjE4MjUgMTQuMTgyNSAwIDAgMSA1LjQ2MzIgMS4wODY4bDYuNDQ4NS02LjIxMDkuNjY1NSA2LjM5OSIvPjxwYXRoIHN0cm9rZS13aWR0aD0iMS44IiBkPSJtMjguMTExOSAzOS43MjE5YTE0LjEyMDcgMTQuMTIwNyAwIDAgMCA3LjQzMjkgMi4wOTY5aC42MTA4YTE0LjExOTEgMTQuMTE5MSAwIDAgMCA3LjQzMjktMi4wOTY5Ii8+PC9nPjxlbGxpcHNlIHJ5PSIxLjIwNTciIHJ4PSIxLjIyMTciIGN5PSIyNy43NTIiIGN4PSIyOC41MTk5Ii8+PGVsbGlwc2Ugcnk9IjEuMjA1NyIgcng9IjEuMjIxNyIgY3k9IjI3Ljc1MiIgY3g9IjQzLjE4MDUiLz48cGF0aCBzdHJva2Utd2lkdGg9IjEuNiIgc3Ryb2tlLWxpbmVqb2luPSJyb3VuZCIgc3Ryb2tlLWxpbmVjYXA9InJvdW5kIiBzdHJva2U9IiMwMDAiIGZpbGw9Im5vbmUiIGQ9Im00Ny4wNzIzIDI0Ljk0NzRzLTguMTY3OCAzLjQwNzUtNy43ODM3IDMuODRjNy44MTU0IDcuMDE1OSA4LjQyODYtMi44NjI3IDcuNzgzNy0zLjg0eiIvPjxwYXRoIHN0cm9rZS13aWR0aD0iMS42IiBzdHJva2UtbGluZWpvaW49InJvdW5kIiBzdHJva2UtbGluZWNhcD0icm91bmQiIHN0cm9rZT0iIzAwMCIgZmlsbD0ibm9uZSIgZD0ibTUwLjkyMTYgMzcuMTk0Ny01LjQ5NzctMy4wMTQzIi8+PHBhdGggc3Ryb2tlLXdpZHRoPSIxLjYiIHN0cm9rZS1saW5lam9pbj0icm91bmQiIHN0cm9rZS1saW5lY2FwPSJyb3VuZCIgc3Ryb2tlPSIjMDAwIiBmaWxsPSJub25lIiBkPSJtNDguNjc4MiAzOS44MDg5LTUuNDk3Ny0zLjAxNDIiLz48cGF0aCBzdHJva2Utd2lkdGg9IjEuNiIgc3Ryb2tlLWxpbmVqb2luPSJyb3VuZCIgc3Ryb2tlLWxpbmVjYXA9InJvdW5kIiBzdHJva2U9IiMwMDAiIGZpbGw9Im5vbmUiIGQ9Im0yNC42MjgxIDI0Ljk0NzRzNy41NTY5IDQuMDEgNy43ODM3IDMuODRjLTcuNTQ0NSA3LjM4MzgtOC41NDU1LTIuMjM2OS03Ljc4MzctMy44NHoiLz48cGF0aCBzdHJva2Utd2lkdGg9IjEuNiIgc3Ryb2tlLWxpbmVqb2luPSJyb3VuZCIgc3Ryb2tlLWxpbmVjYXA9InJvdW5kIiBzdHJva2U9IiMwMDAiIGZpbGw9Im5vbmUiIGQ9Im0yMC43Nzg4IDM3LjE5NDcgNS40OTc3LTMuMDE0MyIvPjxwYXRoIHN0cm9rZS13aWR0aD0iMS42IiBzdHJva2UtbGluZWpvaW49InJvdW5kIiBzdHJva2UtbGluZWNhcD0icm91bmQiIHN0cm9rZT0iIzAwMCIgZmlsbD0ibm9uZSIgZD0ibTIzLjAyMjIgMzkuODA4OSA1LjQ5NzctMy4wMTQyIi8+PHBhdGggc3Ryb2tlLXdpZHRoPSIxLjYiIHN0cm9rZS1saW5lam9pbj0icm91bmQiIHN0cm9rZS1saW5lY2FwPSJyb3VuZCIgc3Ryb2tlPSIjMDAwIiBmaWxsPSJub25lIiBkPSJtNDYuOTk4IDE4LjI4NC0yNC4zNDYtLjU4NC0uNDg3IDQuNzI4IDI0Ljg0LTEuNTAyIi8+PHBhdGggc3Ryb2tlLXdpZHRoPSIxLjYiIHN0cm9rZS1saW5lam9pbj0icm91bmQiIHN0cm9rZS1saW5lY2FwPSJyb3VuZCIgc3Ryb2tlPSIjMDAwIiBmaWxsPSJub25lIiBkPSJtNTAuNDk3MiAxOS42YTIgMiAwIDEgMSAtMi0yIDIuMDAwNyAyLjAwMDcgMCAwIDEgMiAyIi8+PC9zdmc+" vertex="1" parent="1">
          <mxGeometry x="120" y="120" width="50" height="50" as="geometry" />
        </mxCell>
        <mxCell id="ugSwHuxISsAq8XEXFErL-22" value="" style="rounded=1;whiteSpace=wrap;html=1;" vertex="1" parent="1">
          <mxGeometry x="380" y="550" width="130" height="80" as="geometry" />
        </mxCell>
        <mxCell id="ugSwHuxISsAq8XEXFErL-24" value="" style="shape=image;verticalLabelPosition=bottom;verticalAlign=top;imageAspect=0;aspect=fixed;image=data:image/svg+xml,PHN2ZyB4bWxucz0iaHR0cDovL3d3dy53My5vcmcvMjAwMC9zdmciIHdpZHRoPSIyNTQuNzI1MzcyMzE0NDUzMTIiIHZpZXdCb3g9IjAuNTE2ODcyNDA2MDA1ODU5NCAwLjM3MTQyOTQ0MzM1OTM3NSAyNTQuNzI1MzcyMzE0NDUzMTIgMzQ1LjM3OTY2OTE4OTQ1MzEiIHByZXNlcnZlQXNwZWN0UmF0aW89InhNaWRZTWlkIiBoZWlnaHQ9IjM0NS4zNzk2NjkxODk0NTMxIj48cGF0aCBmaWxsPSIjNTM4MmExIiBkPSJtODIuNTUzOTQ5MSAyNjcuNDcyNTI0cy0xMy4xOTg0MjkxIDcuNjc1MzQ1IDkuMzkyODcyNyAxMC4yNzI1ODFjMjcuMzY4NzI3MiAzLjEyMjI3IDQxLjM1NjU2NzIgMi42NzQ1MDIgNzEuNTE3MDkxMi0zLjAzMzgzMiAwIDAgNy45Mjk0ODMgNC45NzE5ODUgMTkuMDAzNTc4IDkuMjc4MzcxLTY3LjYxMTkyNyAyOC45NzczMzgtMTUzLjAxOTExMjgtMS42Nzg0MjktOTkuOTEzNTQxOS0xNi41MTcxMiIvPjxwYXRoIGZpbGw9IiM1MzgyYTEiIGQ9Im03NC4yOTIxMzA5IDIyOS42NTg5OTZzLTE0LjgwMzMxNjQgMTAuOTU3NzMxIDcuODA0NzQxOCAxMy4yOTYxNzVjMjkuMjM2MTMxMyAzLjAxNjE0NSA1Mi4zMjQ1MzgzIDMuMjYyODM2IDkyLjI3NjM2MzMtNC40MzAxOTYgMCAwIDUuNTI1ODc3IDUuNjAyMjEgMTQuMjE0OTgyIDguNjY1ODMyLTgxLjc0Njg1MSAyMy45MDM4ODQtMTcyLjc5ODEzOCAxLjg4NTA5MS0xMTQuMjk2MDg3MS0xNy41MzE4MTEiLz48cGF0aCBmaWxsPSIjZTc2ZjAwIiBkPSJtMTQzLjk0MTgxOCAxNjUuNTE0NzA1YzE2LjY1OTU0OSAxOS4xODA0NTEtNC4zNzcxMzQgMzYuNDQwNDM3LTQuMzc3MTM0IDM2LjQ0MDQzN3M0Mi4zMDE0NC0yMS44MzcyNjYgMjIuODc0Mjk4LTQ5LjE4MjcyYy0xOC4xNDQzNDktMjUuNTAxMzI0LTMyLjA1ODY0Ny0zOC4xNzE5MjcgNDMuMjY3NzIzLTgxLjg1ODU2MDIgMCAwLTExOC4yMzc1NTU5IDI5LjUzMDI5ODItNjEuNzY0ODg3IDk0LjYwMDg0MzIiLz48ZyBmaWxsPSIjNTM4MmExIj48cGF0aCBkPSJtMjMzLjM2NDAxNSAyOTUuNDQxNjg3czkuNzY3MDk4IDguMDQ3NzA5LTEwLjc1NjY1NSAxNC4yNzM2MjljLTM5LjAyNjUwMiAxMS44MjI1NDYtMTYyLjQzMjQ2NTUgMTUuMzkyNTgyLTE5Ni43MTQxMjM2LjQ3MTA0LTEyLjMyMzM3NDYtNS4zNjExMDUgMTAuNzg2NDQzNi0xMi44MDA5MzEgMTguMDU1OTEyNy0xNC4zNjIwNjUgNy41ODEzMjM2LTEuNjQzOTg2IDExLjkxMzc3NDUtMS4zMzc3MTYgMTEuOTEzNzc0NS0xLjMzNzcxNi0xMy43MDQ4NDM2LTkuNjU0NDU5LTg4LjU4MjUxNjMgMTguOTU3MDMyLTM4LjAzNDE1MjcgMjcuMTUwODk0IDEzNy44NTI3NDIxIDIyLjM1NTc4MiAyNTEuMjkyMzkzMS0xMC4wNjY4NTEgMjE1LjUzNTI0NDEtMjYuMTk1NzgyIi8+PHBhdGggZD0ibTg4LjkwMDg4NzMgMTkwLjQ3OTgyNXMtNjIuNzcyMTMwOSAxNC45MDk0NC0yMi4yMjkxNzgyIDIwLjMyMzYwOGMxNy4xMTg0ODczIDIuMjkxODk4IDUxLjI0Mzc1MjkgMS43NzMzODIgODMuMDMwNTc0OS0uODg5OTQ5IDI1Ljk3Nzk0OS0yLjE5MTM2IDUyLjA2Mjk1Mi02Ljg1MDU2IDUyLjA2Mjk1Mi02Ljg1MDU2cy05LjE2MDE0NSAzLjkyMjg1MS0xNS43ODcyODcgOC40NDhjLTYzLjc0NCAxNi43NjQ3NDEtMTg2Ljg4NTU4NTM2IDguOTY1NTg1LTE1MS40MzQ3MDU0LTguMTgyNjkxIDI5Ljk4MDg1ODItMTQuNDkyMzkzIDU0LjM1NzY0MzctMTIuODQ4NDA4IDU0LjM1NzY0MzctMTIuODQ4NDA4Ii8+PHBhdGggZD0ibTIwMS41MDY0NDQgMjUzLjQyMjMxM2M2NC43OTg3Mi0zMy42NzE5MTMgMzQuODM4MzQxLTY2LjAzMDMxMyAxMy45MjY0LTYxLjY3MDg2Ni01LjEyNTU4NiAxLjA2NjgyMi03LjQxMDk2OCAxLjk5MTIxNS03LjQxMDk2OCAxLjk5MTIxNXMxLjkwMjc3OS0yLjk4MDc3MSA1LjUzNzA0OC00LjI3MTAxMWM0MS4zNzA1MzEtMTQuNTQ0NTI0IDczLjE4NzE0MSA0Mi44OTcyMjItMTMuMzU0ODIyIDY1LjY0NzcwOSAwIC4wMDA5MzEgMS4wMDI1ODktLjg5NTUzNSAxLjMwMjM0Mi0xLjY5NzA0NyIvPjwvZz48cGF0aCBmaWxsPSIjZTc2ZjAwIiBkPSJtMTYyLjQzODk4Mi4zNzE0MzI3M3MzNS44ODY1NDUgMzUuODk4NjQ3MjctMzQuMDM2ODI5IDkxLjEwMDYyNTQ3Yy01Ni4wNzE0NDc1IDQ0LjI4MTQ4MzgtMTIuNzg2MDM3IDY5LjUyOTU5OTgtLjAyMzI3MyA5OC4zNzY2MTA4LTMyLjcyOTgzMjctMjkuNTMwMjk4LTU2Ljc0OTE0OTEtNTUuNTI1OTM0LTQwLjYzNTExMjctNzkuNzIwMjYyIDIzLjY1MTYwNzctMzUuNTE1MTEyNSA4OS4xNzQ1NzQ3LTUyLjczNDEzNzkgNzQuNjk1MjE0Ny0xMDkuNzU2OTc0MjciLz48cGF0aCBmaWxsPSIjNTM4MmExIiBkPSJtOTUuMjY4MzA1NSAzNDQuNjY1MzY3YzYyLjE5ODY5MDUgMy45ODE0OTggMTU3LjcxMTgyNTUtMi4yMDkwNDcgMTU5Ljk3MzkzNDUtMzEuNjM5NzM4IDAgMC00LjM0ODI3NiAxMS4xNTY5NDYtNTEuNDAzODY5IDIwLjAxNzMzOC01My4wODc4ODQgOS45OTA1MTctMTE4LjU2NDMwNTUgOC44MjQwODgtMTU3LjM5OTA0MDEgMi40MjEyOTUuMDAwOTMwOS0uMDAwOTMxIDcuOTQ5OTYzNiA2LjU3OTY2NSA0OC44Mjg5NzQ2IDkuMjAxMTA1Ii8+PC9zdmc+" vertex="1" parent="1">
          <mxGeometry x="390" y="560" width="44.35" height="60" as="geometry" />
        </mxCell>
        <mxCell id="ugSwHuxISsAq8XEXFErL-25" value="" style="shape=image;verticalLabelPosition=bottom;verticalAlign=top;imageAspect=0;aspect=fixed;image=data:image/svg+xml,PHN2ZyB4bWxucz0iaHR0cDovL3d3dy53My5vcmcvMjAwMC9zdmciIHZpZXdCb3g9IjAgMCAzMiAzMiIgaGVpZ2h0PSIzMiIgd2lkdGg9IjMyIj48ZyBmaWxsLXJ1bGU9ImV2ZW5vZGQiIGZpbGw9Im5vbmUiPjxwYXRoIGQ9Ik0wIDBoMzJ2MzJIMHoiLz48cGF0aCBkPSJNNS40NjYgMjcuOTkzYTEuMzY0IDEuMzY0IDAgMTAtLjA4Ny0uMDc2bC0uMjY2LS4yMzRDMS45NzIgMjQuNzYyIDAgMjAuNTk3IDAgMTUuOTc4IDAgNy4xNjggNy4xNjggMCAxNS45OCAwYzQuNDggMCA4LjUzIDEuODU3IDExLjQzNSA0LjgzNmExNC42ODEgMTQuNjgxIDAgMDAxLjctMy4wMTVjMi4wMzYgNi4xMTggMy4yMzMgMTEuMjYgMi43OTUgMTUuMzEtLjU5MiA4LjI3NC03LjUwOCAxNC44My0xNS45MyAxNC44M2ExNS45MDMgMTUuOTAzIDAgMDEtMTAuMjc2LTMuNzU3bC0uMjM4LS4yMXptMjMuNTgtNC45ODJjNC4wMS01LjMzNiAxLjc3NS0xMy45NjUtLjA4NS0xOS40OC0xLjY1NyAzLjQ1My01LjczOCA2LjA5NC05LjI2MiA2LjkzLTMuMzAzLjc4OC02LjIyNi4xNDItOS4yODMgMS4zMTgtNi45NyAyLjY4LTYuODYgMTAuOTkyLTMuMDIgMTIuODYuMDAyIDAgLjIzLjEyNC4yMjcuMTIgMC0uMDAyIDUuNjQ0LTEuMTIyIDguNzY0LTIuMjc0IDQuNTYtMS42ODQgOS41NjYtNS44MzUgMTEuMjEzLTEwLjY1Ny0uODc3IDUuMDE1LTUuMTgyIDkuODQtOS41MDcgMTIuMDU2LTIuMzAyIDEuMTgyLTQuMDkyIDEuNDQ1LTcuODggMi43NTYtLjQ2NC4xNTgtLjgyOC4zMTQtLjgyOC4zMTQuOTYtLjE2IDEuOTE3LS4yMTIgMS45MTctLjIxMiA1LjM5My0uMjU1IDEzLjgwNyAxLjUxNiAxNy43NDUtMy43M3oiIGZpbGw9IiM3MEFENTEiLz48L2c+PC9zdmc+" vertex="1" parent="1">
          <mxGeometry x="459.13" y="574.5" width="31" height="31" as="geometry" />
        </mxCell>
        <mxCell id="ugSwHuxISsAq8XEXFErL-27" value="" style="rounded=1;whiteSpace=wrap;html=1;" vertex="1" parent="1">
          <mxGeometry x="530" y="550" width="130" height="80" as="geometry" />
        </mxCell>
        <mxCell id="ugSwHuxISsAq8XEXFErL-28" value="" style="shape=image;verticalLabelPosition=bottom;verticalAlign=top;imageAspect=0;aspect=fixed;image=data:image/svg+xml,PHN2ZyB4bWxuczp4bGluaz0iaHR0cDovL3d3dy53My5vcmcvMTk5OS94bGluayIgeG1sbnM9Imh0dHA6Ly93d3cudzMub3JnLzIwMDAvc3ZnIiB3aWR0aD0iNTExLjMwNjU0OTA3MjI2NTYiIHZpZXdCb3g9IjAuMjMxMTUyMDU3NjQ3NzA1MDggMCA1MTEuMzA2NTQ5MDcyMjY1NiAzMTMuMDk0MzYwMzUxNTYyNSIgcHJlc2VydmVBc3BlY3RSYXRpbz0ieE1pZFlNaWQiIGhlaWdodD0iMzEzLjA5NDM2MDM1MTU2MjUiPjxkZWZzPjxsaW5lYXJHcmFkaWVudCBpZD0iYSI+PHN0b3Agc3RvcC1jb2xvcj0iIzQxODczZiIgb2Zmc2V0PSIwIi8+PHN0b3Agc3RvcC1jb2xvcj0iIzQxOGIzZCIgb2Zmc2V0PSIuMzI4OCIvPjxzdG9wIHN0b3AtY29sb3I9IiM0MTk2MzciIG9mZnNldD0iLjYzNTIiLz48c3RvcCBzdG9wLWNvbG9yPSIjM2ZhOTJkIiBvZmZzZXQ9Ii45MzE5Ii8+PHN0b3Agc3RvcC1jb2xvcj0iIzNmYWUyYSIgb2Zmc2V0PSIxIi8+PC9saW5lYXJHcmFkaWVudD48bGluZWFyR3JhZGllbnQgeTI9Ijg5Ljc1NTE0MiUiIHkxPSIxNy40ODY4MzElIiB4bGluazpocmVmPSIjYSIgeDI9IjI3LjgyMjY5NCUiIHgxPSI2OC4xODg0NDElIiBpZD0iYiIvPjxwYXRoIGQ9Im01Ny45MDMzODYgMS44NDkyMDk5M2MtMS44NDkyMDk5LTEuMDQwMTgwNTgtNC4wNDUxNDY3LTEuMDQwMTgwNTgtNS44OTQzNTY3IDBsLTQ4LjY1NzMzNjMgMjguMDg0ODc1ODdjLTEuODQ5MjA5OTMgMS4wNDAxODA2LTIuODg5MzkwNTIgMy4wMDQ5NjYxLTIuODg5MzkwNTIgNS4wODUzMjczdjU2LjI4NTMyNzNjMCAyLjA4MDM2MTIgMS4xNTU3NTYyMSA0LjA0NTE0NjcgMi44ODkzOTA1MiA1LjA4NTMyNzNsNDguNjU3MzM2MyAyOC4wODQ4NzYzYzEuODQ5MjEgMS4wNDAxOCA0LjA0NTE0NjggMS4wNDAxOCA1Ljg5NDM1NjcgMGw0OC42NTczMzYtMjguMDg0ODc2M2MxLjg0OTIxLTEuMDQwMTgwNiAyLjg4OTM5MS0zLjAwNDk2NjEgMi44ODkzOTEtNS4wODUzMjczdi01Ni4yODUzMjczYzAtMi4wODAzNjEyLTEuMTU1NzU2LTQuMDQ1MTQ2Ny0yLjg4OTM5MS01LjA4NTMyNzN6IiBpZD0iYyIvPjxsaW5lYXJHcmFkaWVudCB5Mj0iLTE4LjMwNjEzOCUiIHkxPSI1NS4xNjg3NzclIiB4Mj0iMTU5LjI0NTI3NyUiIHgxPSI0My4yNzY1NDclIiBpZD0iZCI+PHN0b3Agc3RvcC1jb2xvcj0iIzQxODczZiIgb2Zmc2V0PSIuMTM3NiIvPjxzdG9wIHN0b3AtY29sb3I9IiM1NGEwNDQiIG9mZnNldD0iLjQwMzIiLz48c3RvcCBzdG9wLWNvbG9yPSIjNjZiODQ4IiBvZmZzZXQ9Ii43MTM2Ii8+PHN0b3Agc3RvcC1jb2xvcj0iIzZjYzA0YSIgb2Zmc2V0PSIuOTA4MSIvPjwvbGluZWFyR3JhZGllbnQ+PGxpbmVhckdyYWRpZW50IGlkPSJlIj48c3RvcCBzdG9wLWNvbG9yPSIjNmNjMDRhIiBvZmZzZXQ9Ii4wOTE5MTY0NiIvPjxzdG9wIHN0b3AtY29sb3I9IiM2NmI4NDgiIG9mZnNldD0iLjI4NjQiLz48c3RvcCBzdG9wLWNvbG9yPSIjNTRhMDQ0IiBvZmZzZXQ9Ii41OTY4Ii8+PHN0b3Agc3RvcC1jb2xvcj0iIzQxODczZiIgb2Zmc2V0PSIuODYyNCIvPjwvbGluZWFyR3JhZGllbnQ+PGxpbmVhckdyYWRpZW50IHkyPSIxMy40MyUiIHkxPSIxMy40MyUiIHhsaW5rOmhyZWY9IiNlIiB4Mj0iNTMyNy45MyUiIHgxPSItNDQxMy43NyUiIGlkPSJmIi8+PGxpbmVhckdyYWRpZW50IHkyPSI0OS45OTcyMDclIiB5MT0iNDkuOTk3MjA3JSIgeGxpbms6aHJlZj0iI2UiIHgyPSIxMDEuNDk5MjM5JSIgeDE9Ii00LjM4ODgwNCUiIGlkPSJnIi8+PGxpbmVhckdyYWRpZW50IHkyPSIzNi4yMSUiIHkxPSIzNi4yMSUiIHhsaW5rOmhyZWY9IiNlIiB4Mj0iMjcuOTMlIiB4MT0iLTk3MTMuNzclIiBpZD0iaCIvPjxsaW5lYXJHcmFkaWVudCB5Mj0iNTAuMjc1NDIxJSIgeTE9IjUwLjI3NTQyMSUiIHhsaW5rOmhyZWY9IiNlIiB4Mj0iMTAwLjc5Njg0OSUiIHgxPSItMTAzLjg2MDcxNCUiIGlkPSJpIi8+PGxpbmVhckdyYWRpZW50IHkyPSIyMDEuNjA1Mzg3JSIgeTE9Ii0yMTEuMDY5MzYlIiB4bGluazpocmVmPSIjYSIgeDI9IjQuMzkzMjc3JSIgeDE9IjEzMC42MTMwMjUlIiBpZD0iaiIvPjxtYXNrIGZpbGw9IiNmZmYiIGlkPSJrIj48dXNlIHhsaW5rOmhyZWY9IiNjIiBmaWxsPSIjZmZmIi8+PC9tYXNrPjwvZGVmcz48ZyBmaWxsPSJub25lIj48cGF0aCBmaWxsPSIjNTM5ZTQzIiBkPSJtMjUzLjExMDYwOSAzMTMuMDk0MzU3Yy0xLjczMzYzNCAwLTMuMzUxNjkzLS40NjIzMDMtNC44NTQxNzYtMS4yNzEzMzJsLTE1LjM3MTU1Ny05LjEzMDQ3NGMtMi4zMTE1MTMtMS4yNzEzMzItMS4xNTU3NTYtMS43MzM2MzUtLjQ2MjMwMy0xLjk2NDc4NiAzLjEyMDU0Mi0xLjA0MDE4IDMuNjk4NDItMS4yNzEzMzIgNi45MzQ1MzgtMy4xMjA1NDIuMzQ2NzI2LS4yMzExNTEuODA5MDI5LS4xMTU1NzUgMS4xNTU3NTYuMTE1NTc2bDExLjc4ODcxMyA3LjA1MDExM2MuNDYyMzAzLjIzMTE1MSAxLjA0MDE4MS4yMzExNTEgMS4zODY5MDggMGw0Ni4xMTQ2NzItMjYuNjk3OTY4Yy40NjIzMDMtLjIzMTE1Mi42OTM0NTQtLjY5MzQ1NC42OTM0NTQtMS4yNzEzMzJ2LTUzLjI4MDM2MWMwLS41Nzc4NzktLjIzMTE1MS0xLjA0MDE4MS0uNjkzNDU0LTEuMjcxMzMybC00Ni4xMTQ2NzItMjYuNTgyMzkzYy0uNDYyMzAzLS4yMzExNTEtMS4wNDAxODEtLjIzMTE1MS0xLjM4NjkwOCAwbC00Ni4xMTQ2NzMgMjYuNTgyMzkzYy0uNDYyMzAyLjIzMTE1MS0uNjkzNDUzLjgwOTAyOS0uNjkzNDUzIDEuMjcxMzMydjUzLjI4MDM2MWMwIC40NjIzMDIuMjMxMTUxIDEuMDQwMTguNjkzNDUzIDEuMjcxMzMybDEyLjU5Nzc0MyA3LjI4MTI2NGM2LjgxODk2MiAzLjQ2NzI2OCAxMS4wOTUyNi0uNTc3ODc4IDExLjA5NTI2LTQuNjIzMDI1di01Mi41ODY5MDhjMC0uNjkzNDUzLjU3Nzg3OC0xLjM4NjkwNyAxLjM4NjkwNy0xLjM4NjkwN2g1Ljg5NDM1N2MuNjkzNDU0IDAgMS4zODY5MDcuNTc3ODc4IDEuMzg2OTA3IDEuMzg2OTA3djUyLjU4NjkwOGMwIDkuMTMwNDc0LTQuOTY5NzUxIDE0LjQ0Njk1Mi0xMy42Mzc5MjMgMTQuNDQ2OTUyLTIuNjU4MjM5IDAtNC43Mzg2IDAtMTAuNjMyOTU3LTIuODg5MzlsLTEyLjEzNTQ0LTYuOTM0NTM3Yy0zLjAwNDk2Ni0xLjczMzYzNS00Ljg1NDE3Ni00Ljk2OTc1Mi00Ljg1NDE3Ni04LjQzNzAyMXYtNTMuMjgwMzYxYzAtMy40NjcyNjggMS44NDkyMS02LjcwMzM4NiA0Ljg1NDE3Ni04LjQzNzAybDQ2LjExNDY3Mi0yNi42OTc5NjljMi44ODkzOTEtMS42MTgwNTggNi44MTg5NjItMS42MTgwNTggOS43MDgzNTMgMGw0Ni4xMTQ2NzIgMjYuNjk3OTY5YzMuMDA0OTY2IDEuNzMzNjM0IDQuODU0MTc2IDQuOTY5NzUyIDQuODU0MTc2IDguNDM3MDJ2NTMuMjgwMzYxYzAgMy40NjcyNjktMS44NDkyMSA2LjcwMzM4Ni00Ljg1NDE3NiA4LjQzNzAyMWwtNDYuMTE0NjcyIDI2LjY5Nzk2OGMtMS41MDI0ODQuNjkzNDU0LTMuMjM2MTE4IDEuMDQwMTgxLTQuODU0MTc3IDEuMDQwMTgxem0xNC4yMTU4MDItMzYuNjM3NDcyYy0yMC4yMjU3MzQgMC0yNC4zODY0NTYtOS4yNDYwNS0yNC4zODY0NTYtMTcuMTA1MTkyIDAtLjY5MzQ1NC41Nzc4NzgtMS4zODY5MDcgMS4zODY5MDctMS4zODY5MDdoNi4wMDk5MzNjLjY5MzQ1MyAwIDEuMjcxMzMxLjQ2MjMwMiAxLjI3MTMzMSAxLjE1NTc1Ni45MjQ2MDUgNi4xMjU1MDggMy41ODI4NDUgOS4xMzA0NzQgMTUuODMzODYgOS4xMzA0NzQgOS43MDgzNTMgMCAxMy44NjkwNzUtMi4xOTU5MzcgMTMuODY5MDc1LTcuMzk2ODQgMC0zLjAwNDk2Ni0xLjE1NTc1Ni01LjIwMDkwMy0xNi4yOTYxNjMtNi43MDMzODYtMTIuNTk3NzQyLTEuMjcxMzMyLTIwLjQ1Njg4NC00LjA0NTE0Ny0yMC40NTY4ODQtMTQuMTAwMjI2IDAtOS4zNjE2MjUgNy44NTkxNDItMTQuOTA5MjU1IDIxLjAzNDc2My0xNC45MDkyNTUgMTQuNzkzNjc5IDAgMjIuMDc0OTQzIDUuMDg1MzI4IDIyLjk5OTU0OCAxNi4xODA1ODcgMCAuMzQ2NzI3LS4xMTU1NzYuNjkzNDU0LS4zNDY3MjcgMS4wNDAxODEtLjIzMTE1MS4yMzExNTEtLjU3Nzg3OC40NjIzMDItLjkyNDYwNS40NjIzMDJoLTYuMDA5OTMyYy0uNTc3ODc4IDAtMS4xNTU3NTYtLjQ2MjMwMi0xLjI3MTMzMi0xLjA0MDE4LTEuMzg2OTA3LTYuMzU2NjU5LTQuOTY5NzUyLTguNDM3MDIxLTE0LjQ0Njk1Mi04LjQzNzAyMS0xMC42MzI5NTggMC0xMS45MDQyODkgMy42OTg0Mi0xMS45MDQyODkgNi40NzIyMzUgMCAzLjM1MTY5MyAxLjUwMjQ4MyA0LjM5MTg3NCAxNS44MzM4NiA2LjI0MTA4NCAxNC4yMTU4MDEgMS44NDkyMSAyMC45MTkxODcgNC41MDc0NDkgMjAuOTE5MTg3IDE0LjQ0Njk1Mi0uMTE1NTc2IDEwLjE3MDY1NS04LjQzNzAyIDE1Ljk0OTQzNi0yMy4xMTUxMjQgMTUuOTQ5NDM2eiIvPjxwYXRoIGZpbGw9IiMzMzMiIGQ9Im0xMTAuMDI3OTkxIDEwNC43MTE1MTJjMC0yLjA4MDM2MS0xLjE1NTc1Ni00LjA0NTE0Ni0zLjAwNDk2Ni01LjA4NTMyNjlsLTQ5LjAwNDA2MzQtMjguMjAwNDUxNWMtLjgwOTAyOTMtLjQ2MjMwMjQtMS43MzM2MzQzLS42OTM0NTM3LTIuNjU4MjM5My0uODA5MDI5M2gtLjQ2MjMwMjRjLS45MjQ2MDUgMC0xLjg0OTIxLjM0NjcyNjktMi42NTgyMzkzLjgwOTAyOTNsLTQ5LjAwNDA2MzIyIDI4LjIwMDQ1MTVjLTEuODQ5MjA5OTMgMS4wNDAxODA5LTMuMDA0OTY2MTQgMy4wMDQ5NjU5LTMuMDA0OTY2MTQgNS4wODUzMjY5bC4xMTU1NzU2MiA3NS44MTc2MDhjMCAxLjA0MDE4LjU3Nzg3ODExIDIuMDgwMzYxIDEuNTAyNDgzMDcgMi41NDI2NjMuOTI0NjA0OTcuNTc3ODc4IDIuMDgwMzYxMTguNTc3ODc4IDIuODg5MzkwNTIgMGwyOS4xMjUwNTY0NS0xNi42NDI4ODljMS44NDkyMDk5LTEuMDQwMTgxIDMuMDA0OTY2MS0zLjAwNDk2NiAzLjAwNDk2NjEtNS4wODUzMjd2LTM1LjQ4MTcxNmMwLTIuMDgwMzYxIDEuMTU1NzU2Mi00LjA0NTE0NyAzLjAwNDk2NjItNS4wODUzMjdsMTIuMzY2NTkxNC03LjE2NTY4OWMuOTI0NjA1LS41Nzc4NzggMS45NjQ3ODU1LS44MDkwMjkgMy4wMDQ5NjYxLS44MDkwMjlzMi4wODAzNjEyLjIzMTE1MSAyLjg4OTM5MDUuODA5MDI5bDEyLjM2NjU5MTUgNy4xNjU2ODljMS44NDkyMDk5IDEuMDQwMTggMy4wMDQ5NjYxIDMuMDA0OTY2IDMuMDA0OTY2MSA1LjA4NTMyN3YzNS40ODE3MTZjMCAyLjA4MDM2MSAxLjE1NTc1NjIgNC4wNDUxNDYgMy4wMDQ5NjYxIDUuMDg1MzI3bDI5LjEyNTA1NjEgMTYuNjQyODg5Yy45MjQ2MDUuNTc3ODc4IDIuMDgwMzYyLjU3Nzg3OCAzLjAwNDk2NyAwIC45MjQ2MDQtLjQ2MjMwMiAxLjUwMjQ4My0xLjUwMjQ4MyAxLjUwMjQ4My0yLjU0MjY2M3oiLz48cGF0aCBmaWxsPSIjMzMzIiBkPSJtMzQ1LjU3MTEwNi4zNDY3MjY4NmMtLjkyNDYwNS0uNDYyMzAyNDgtMi4wODAzNjEtLjQ2MjMwMjQ4LTIuODg5MzkgMC0uOTI0NjA1LjU3Nzg3ODExLTEuNTAyNDgzIDEuNTAyNDgzMDctMS41MDI0ODMgMi41NDI2NjM2NnY3NS4xMjQxNTM0OGMwIC42OTM0NTM3LS4zNDY3MjcgMS4zODY5MDc1LTEuMDQwMTgxIDEuODQ5MjEtLjY5MzQ1NC4zNDY3MjY4LTEuMzg2OTA4LjM0NjcyNjgtMi4wODAzNjEgMGwtMTIuMjUxMDE2LTcuMDUwMTEyOWMtMS44NDkyMS0xLjA0MDE4MDYtNC4wNDUxNDctMS4wNDAxODA2LTUuODk0MzU3IDBsLTQ5LjAwNDA2MyAyOC4zMTYwMjY5Yy0xLjg0OTIxIDEuMDQwMTgxLTMuMDA0OTY2IDMuMDA0OTY2LTMuMDA0OTY2IDUuMDg1MzI3djU2LjUxNjQ3OWMwIDIuMDgwMzYxIDEuMTU1NzU2IDQuMDQ1MTQ3IDMuMDA0OTY2IDUuMDg1MzI3bDQ5LjAwNDA2MyAyOC4zMTYwMjdjMS44NDkyMSAxLjA0MDE4MSA0LjA0NTE0NyAxLjA0MDE4MSA1Ljg5NDM1NyAwbDQ5LjAwNDA2My0yOC4zMTYwMjdjMS44NDkyMS0xLjA0MDE4IDMuMDA0OTY2LTMuMDA0OTY2IDMuMDA0OTY2LTUuMDg1MzI3di0xNDAuODg2NjgxN2MwLTIuMTk1OTM2OC0xLjE1NTc1Ni00LjE2MDcyMjMtMy4wMDQ5NjYtNS4yMDA5MDI5em0tNC41MDc0NDkgMTQzLjc3NjA3MjE0YzAgLjU3Nzg3OC0uMjMxMTUxIDEuMDQwMTgxLS42OTM0NTQgMS4yNzEzMzJsLTE2Ljc1ODQ2NSA5LjcwODM1MmMtLjQ2MjMwMi4yMzExNTEtMS4wNDAxOC4yMzExNTEtMS41MDI0ODMgMGwtMTYuNzU4NDY1LTkuNzA4MzUyYy0uNDYyMzAyLS4yMzExNTEtLjY5MzQ1NC0uODA5MDI5LS42OTM0NTQtMS4yNzEzMzJ2LTE5LjQxNjcwNGMwLS41Nzc4NzguMjMxMTUyLTEuMDQwMTgxLjY5MzQ1NC0xLjI3MTMzMmwxNi43NTg0NjUtOS43MDgzNTJjLjQ2MjMwMy0uMjMxMTUxIDEuMDQwMTgxLS4yMzExNTEgMS41MDI0ODMgMGwxNi43NTg0NjUgOS43MDgzNTJjLjQ2MjMwMy4yMzExNTEuNjkzNDU0LjgwOTAyOS42OTM0NTQgMS4yNzEzMzJ6Ii8+PGcgdHJhbnNmb3JtPSJ0cmFuc2xhdGUoNDAxLjA0NzQwNCA3MC41MDExMjkpIj48cGF0aCBmaWxsPSIjMzMzIiBkPSJtMTA3LjYwMDkwMyA1My43NDI2NjM3YzEuODQ5MjEtMS4wNDAxODA2IDIuODg5MzktMy4wMDQ5NjYyIDIuODg5MzktNS4wODUzMjc0di0xMy43NTM0OTg4YzAtMi4wODAzNjEyLTEuMTU1NzU2LTQuMDQ1MTQ2OC0yLjg4OTM5LTUuMDg1MzI3M2wtNDguNjU3MzM2NC0yOC4yMDA0NTE1MWMtMS44NDkyMDk5LTEuMDQwMTgwNTktNC4wNDUxNDY3LTEuMDQwMTgwNTktNS44OTQzNTY3IDBsLTQ5LjAwNDA2MzE3IDI4LjMxNjAyNzExYy0xLjg0OTIwOTk0IDEuMDQwMTgwNi0zLjAwNDk2NjE0IDMuMDA0OTY2MS0zLjAwNDk2NjE0IDUuMDg1MzI3M3Y1Ni41MTY0Nzg1YzAgMi4wODAzNjEyIDEuMTU1NzU2MiA0LjA0NTE0NjggMy4wMDQ5NjYxNCA1LjA4NTMyNzRsNDguNjU3MzM2MzcgMjcuNzM4MTQ5YzEuODQ5MjA5OSAxLjA0MDE4MSA0LjA0NTE0NjcgMS4wNDAxODEgNS43Nzg3ODEgMGwyOS40NzE3ODMzLTE2LjQxMTczOGMuOTI0NjA1LS40NjIzMDMgMS41MDI0ODMxLTEuNTAyNDgzIDEuNTAyNDgzMS0yLjU0MjY2NCAwLTEuMDQwMTgtLjU3Nzg3ODEtMi4wODAzNjEtMS41MDI0ODMxLTIuNTQyNjY0bC00OS4yMzUyMTQ0LTI4LjMxNjAyNjZjLS45MjQ2MDUtLjU3Nzg3ODEtMS41MDI0ODMxLTEuNTAyNDgzMS0xLjUwMjQ4MzEtMi41NDI2NjM3di0xNy42ODMwNjk5YzAtMS4wNDAxODA2LjU3Nzg3ODEtMi4wODAzNjEyIDEuNTAyNDgzMS0yLjU0MjY2MzdsMTUuMzcxNTU3NS04Ljc4Mzc0NzJjLjkyNDYwNS0uNTc3ODc4MSAyLjA4MDM2MTItLjU3Nzg3ODEgMy4wMDQ5NjYyIDBsMTUuMzcxNTU3NSA4Ljc4Mzc0NzJjLjkyNDYwNS41Nzc4NzgxIDEuNTAyNDgzMSAxLjUwMjQ4MzEgMS41MDI0ODMxIDIuNTQyNjYzN3YxMy44NjkwNzQ1YzAgMS4wNDAxODA1LjU3Nzg3ODEgMi4wODAzNjExIDEuNTAyNDgzMSAyLjU0MjY2MzYuOTI0NjA0OS41Nzc4NzgxIDIuMDgwMzYxMS41Nzc4NzgxIDMuMDA0OTY2MSAweiIvPjxwYXRoIGZpbGw9IiM1MzllNDMiIGQ9Im01NS4yNDUxNDY3IDUxLjA4NDQyNDRjLjM0NjcyNjktLjIzMTE1MTMuODA5MDI5NC0uMjMxMTUxMyAxLjE1NTc1NjIgMGw5LjM2MTYyNTMgNS40MzIwNTQyYy4zNDY3MjY5LjIzMTE1MTIuNTc3ODc4MS41Nzc4NzgxLjU3Nzg3ODEgMS4wNDAxODA1djEwLjg2NDEwODRjMCAuNDYyMzAyNS0uMjMxMTUxMi44MDkwMjkzLS41Nzc4NzgxIDEuMDQwMTgwNmwtOS4zNjE2MjUzIDUuNDMyMDU0MmMtLjM0NjcyNjguMjMxMTUxMi0uODA5MDI5My4yMzExNTEyLTEuMTU1NzU2MiAwbC05LjM2MTYyNTMtNS40MzIwNTQyYy0uMzQ2NzI2OC0uMjMxMTUxMy0uNTc3ODc4MS0uNTc3ODc4MS0uNTc3ODc4MS0xLjA0MDE4MDZ2LTEwLjg2NDEwODRjMC0uNDYyMzAyNC4yMzExNTEzLS44MDkwMjkzLjU3Nzg3ODEtMS4wNDAxODA1eiIvPjwvZz48ZyB0cmFuc2Zvcm09InRyYW5zbGF0ZSgxMzQuMDY3NzIgNzAuNTAxMTI5KSI+PHVzZSB4bGluazpocmVmPSIjYyIgZmlsbD0idXJsKCNiKSIvPjxnIG1hc2s9InVybCgjaykiPjxwYXRoIGQ9Im01MS44OTM0NTM3IDEuODQ5MjA5OTMtNDguNzcyOTExOTQgMjguMDg0ODc1ODdjLTEuODQ5MjA5OTMgMS4wNDAxODA2LTMuMTIwNTQxNzYgMy4wMDQ5NjYxLTMuMTIwNTQxNzYgNS4wODUzMjczdjU2LjI4NTMyNzNjMCAxLjM4NjkwNzUuNTc3ODc4MSAyLjY1ODIzOTMgMS41MDI0ODMwNyAzLjY5ODQxOTlsNTQuNzgyODQ0MjMtOTMuODQ3NDA0MDljLTEuMzg2OTA3NC0uMjMxMTUxMjQtMy4wMDQ5NjYxLS4xMTU1NzU2Mi00LjM5MTg3MzYuNjkzNDUzNzJ6Ii8+PHBhdGggZD0ibTU2LjYzMjA1NDIgMTI1LjA1MjgyMmMuNDYyMzAyNS0uMTE1NTc2LjkyNDYwNDktLjM0NjcyNyAxLjM4NjkwNzQtLjU3Nzg3OGw0OC43NzI5MTI0LTI4LjA4NDg3NjNjMS44NDkyMS0xLjA0MDE4MDYgMy4wMDQ5NjYtMy4wMDQ5NjYxIDMuMDA0OTY2LTUuMDg1MzI3M3YtNTYuMjg1MzI3M2MwLTEuNTAyNDgzMS0uNjkzNDU0LTMuMDA0OTY2MS0xLjczMzYzNS00LjA0NTE0Njd6Ii8+PHBhdGggZmlsbD0idXJsKCNkKSIgZD0ibTEwNi42NzYyOTggMjkuOTM0MDg1OC00OC44ODg0ODc2LTI4LjA4NDg3NTg3Yy0uNDYyMzAyNS0uMjMxMTUxMjQtMS4wNDAxODA2LS40NjIzMDI0OC0xLjUwMjQ4MzEtLjU3Nzg3ODFsLTU0Ljc4Mjg0NDIzIDkzLjg0NzQwNDA3Yy40NjIzMDI0OC41Nzc4NzgxIDEuMDQwMTgwNTkgMS4wNDAxODA2IDEuNjE4MDU4NjkgMS4zODY5MDc0bDQ4Ljg4ODQ4NzU0IDI4LjA4NDg3NTdjMS4zODY5MDc1LjgwOTAzIDMuMDA0OTY2MiAxLjA0MDE4MSA0LjUwNzQ0OTMuNTc3ODc4bDUxLjQzMTE1MTQtOTQuMDc4NTU1Yy0uMzQ2NzI3LS40NjIzMDI1LS44MDkwMy0uODA5MDI5NC0xLjI3MTMzMi0xLjE1NTc1NjJ6Ii8+PC9nPjxnIG1hc2s9InVybCgjaykiPjxnIHRyYW5zZm9ybT0idHJhbnNsYXRlKDAgLTkuMjQ2MDUpIj48cGF0aCBmaWxsPSJub25lIiBkPSJtMTA5Ljc5Njg0IDEwMC41NTA3OXYtNTYuMjg1MzI3MmMwLTIuMDgwMzYxMi0xLjI3MTMzMi00LjA0NTE0NjgtMy4xMjA1NDItNS4wODUzMjc0bC00OC44ODg0ODc2LTI4LjA4NDg3NThjLS41Nzc4NzgxLS4zNDY3MjY5LTEuMTU1NzU2Mi0uNTc3ODc4MS0xLjg0OTIwOTktLjY5MzQ1MzdsNTMuNTExNTEyNSA5MS40MjAzMTYxYy4yMzExNTEtLjM0NjcyNy4zNDY3MjctLjgwOTAyOS4zNDY3MjctMS4yNzEzMzJ6Ii8+PHBhdGggZmlsbD0ibm9uZSIgZD0ibTMuMTIwNTQxNzYgMzkuMTgwMTM1NGMtMS44NDkyMDk5MyAxLjA0MDE4MDYtMy4xMjA1NDE3NiAzLjAwNDk2NjItMy4xMjA1NDE3NiA1LjA4NTMyNzR2NTYuMjg1MzI3MmMwIDIuMDgwMzYxIDEuMzg2OTA3NDUgNC4wNDUxNDcgMy4xMjA1NDE3NiA1LjA4NTMyN2w0OC44ODg0ODc1NCAyOC4wODQ4NzZjMS4xNTU3NTYzLjY5MzQ1NCAyLjQyNzA4ODEuOTI0NjA1IDMuODEzOTk1NS42OTM0NTRsLTUyLjM1NTc1NjE4LTk1LjM0OTg4NzJ6Ii8+PGcgZmlsbC1ydWxlPSJldmVub2RkIj48cGF0aCBmaWxsPSJ1cmwoI2YpIiBkPSJtNTAuMzkwOTcwNy44MDkwMjkzNS0uNjkzNDUzOC4zNDY3MjY4NmguOTI0NjA1eiIvPjxwYXRoIGZpbGw9InVybCgjZykiIGQ9Im0xMDYuNzkxODc0IDEwNS42MzYxMTdjMS4zODY5MDctLjgwOTAyOSAyLjQyNzA4OC0yLjE5NTkzNiAyLjg4OTM5LTMuNjk4NDE5bC01My42MjcwODc5LTkxLjUzNTg5MjFjLTEuMzg2OTA3NS0uMjMxMTUxMy0yLjg4OTM5MDUtLjExNTU3NTctNC4xNjA3MjI0LjY5MzQ1MzdsLTQ4LjU0MTc2MDcgMjcuOTY5MzAwMiA1Mi4zNTU3NTYyIDk1LjQ2NTQ2MzJjLjY5MzQ1MzctLjExNTU3NiAxLjUwMjQ4MzEtLjM0NjcyNyAyLjE5NTkzNjgtLjY5MzQ1NHoiLz48cGF0aCBmaWxsPSJ1cmwoI2gpIiBkPSJtMTExLjI5OTMyMyAxMDQuNzExNTEyLS4zNDY3MjctLjU3Nzg3OHYuODA5MDN6Ii8+PHBhdGggZmlsbD0idXJsKCNpKSIgZD0ibTEwNi43OTE4NzQgMTA1LjYzNjExNy00OC43NzI5MTI0IDI4LjA4NDg3NmMtLjY5MzQ1MzcuMzQ2NzI3LTEuMzg2OTA3NC41Nzc4NzgtMi4xOTU5MzY4LjY5MzQ1NGwuOTI0NjA1IDEuNzMzNjM0IDU0LjA4OTM5MDItMzEuMzIwOTkzdi0uNjkzNDU0bC0xLjM4NjkwNy0yLjMxMTUxMmMtLjIzMTE1MSAxLjYxODA1OS0xLjI3MTMzMiAzLjAwNDk2Ni0yLjY1ODIzOSAzLjgxMzk5NXoiLz48cGF0aCBmaWxsPSJ1cmwoI2opIiBkPSJtMTA2Ljc5MTg3NCAxMDUuNjM2MTE3LTQ4Ljc3MjkxMjQgMjguMDg0ODc2Yy0uNjkzNDUzNy4zNDY3MjctMS4zODY5MDc0LjU3Nzg3OC0yLjE5NTkzNjguNjkzNDU0bC45MjQ2MDUgMS43MzM2MzQgNTQuMDg5MzkwMi0zMS4zMjA5OTN2LS42OTM0NTRsLTEuMzg2OTA3LTIuMzExNTEyYy0uMjMxMTUxIDEuNjE4MDU5LTEuMjcxMzMyIDMuMDA0OTY2LTIuNjU4MjM5IDMuODEzOTk1eiIvPjwvZz48L2c+PC9nPjwvZz48L2c+PC9zdmc+" vertex="1" parent="1">
          <mxGeometry x="561.53" y="569.5" width="66.94" height="41" as="geometry" />
        </mxCell>
        <mxCell id="ugSwHuxISsAq8XEXFErL-29" value="" style="rounded=1;whiteSpace=wrap;html=1;" vertex="1" parent="1">
          <mxGeometry x="679" y="550" width="130" height="80" as="geometry" />
        </mxCell>
        <mxCell id="ugSwHuxISsAq8XEXFErL-30" value="" style="shape=image;verticalLabelPosition=bottom;verticalAlign=top;imageAspect=0;aspect=fixed;image=data:image/svg+xml,PHN2ZyB4bWxuczp4bGluaz0iaHR0cDovL3d3dy53My5vcmcvMTk5OS94bGluayIgeG1sbnM9Imh0dHA6Ly93d3cudzMub3JnLzIwMDAvc3ZnIiB3aWR0aD0iMjEwbW0iIHZpZXdCb3g9IjAgMCA3NDQuMDk0NDg4MTkgMTA1Mi4zNjIyMDQ3IiBoZWlnaHQ9IjI5N21tIj48bGluZWFyR3JhZGllbnQgeTI9IjMyMi4zNjIyMiIgeTE9IjcyMi4zNjIyMiIgeDI9IjU3MS44MjE0OCIgeDE9IjIyNi4zNjAwMTEiIGdyYWRpZW50VW5pdHM9InVzZXJTcGFjZU9uVXNlIiBpZD0iYSI+PHN0b3Agc3RvcC1jb2xvcj0iIzRlNTA1ZCIgb2Zmc2V0PSIwIi8+PHN0b3Agc3RvcC1jb2xvcj0iIzdhODU5YyIgb2Zmc2V0PSIxIi8+PC9saW5lYXJHcmFkaWVudD48cGF0aCBmaWxsPSJub25lIiBkPSJtMTkwIDMyMi4zNjIyMWg0MDB2NDAwaC00MDB6Ii8+PHBhdGggZmlsbD0idXJsKCNhKSIgZD0ibTM5MCAzMjIuMzYxMzNjLTEwMC40MTc2NC4wMDAwOC0xODEuODIxNzIgMjguNDg4NzEtMTgxLjgyMDMxIDYzLjYzMDg2LjAwMiAzNS4xNDEzOSA4MS40MDQ4NCA2My42Mjg4MiAxODEuODIwMzEgNjMuNjI4OSAxMDAuNDE2MjUuMDAwMyAxODEuODIwNi0yOC40ODcyNCAxODEuODIyMjctNjMuNjI4OS0uMDcyLTEuMjk1MjktLjI1Njk0LTIuNTg5NTItLjU1NDY5LTMuODgwODYtLjI4NjU3LTEuNjM5MTgtLjc1NDM3LTMuMjczODctMS40MDIzNS00LjkwMDM5LTEyLjUwNzQ4LTMxLjQxNzA1LTg5LjIyNDkyLTU0LjgxMTktMTc5Ljg2NTIzLTU0Ljg0OTYxem0tMTgxLjgyMDMxIDk5LjgwNDY5djU0LjkxOTkyYy4zMDYxMyAzNS4wNjMxOSA4MS42MDgzIDYzLjQzMTg1IDE4MS44MDA3OCA2My40MzU1NCAxMDAuNDE2MjQuMDAwMjkgMTgxLjgyMDU5LTI4LjQ4NzI0IDE4MS44MjIyNi02My42Mjg5djM2LjE3MzgzYy0uOTIxMzEuODQxMzItMS44NTUxIDEuNjY5MTMtMi44MTQ0NSAyLjQ2Mjg5LTExLjY4MjE1IDkuNjY1NzktMjYuNjk1NDUgMTcuMTE2ODctNDQuNDk0MTQgMjMuMzQ1Ny04LjM2MjU2IDIuOTI2NTYtMTcuMzc2NjIgNS41NTA4MS0yNi45MTQwNiA3Ljg3MTA5IDIuMzU1NzkgMS4yODEyNiA0LjE3ODM5IDIuNjA4NDggNS43MDcwMyAzLjU3NDIybC4wNjA1NS4wMzcxMS4wNjA1NC4wMzkwNmMuMjA2MTYuMTMyNTEuMTAwNTQuMTAxMTEuMjg1MTYuMjI0NjEuMDcwNzUuMDAzMi4yMDI3OC4wMTA2OC4yNzE0OC4wMTM2OGwxLjcxMjg5LjA3MDMxIDEuNjY3OTcuMzg4NjdjMy40MTIxMi43OTgzOCA4LjU3MzIyIDEuNTIxMzUgMTQuOTA2MjUgNS4xMTUyM2wuMTE1MjQuMDY0NDYuMTE1MjMuMDY4MzZjMTUuMDYwNjggOC44NDQwMSAyNy4wNzQ5IDE5Ljg0NDEyIDM2LjQ5MDI0IDM1LjE0NjQ4IDguMjc0MjItNy4yNzUyIDEyLjgyOTY4LTE1LjIxMDI0IDEyLjgzMDA3LTIzLjUxNzU4djM2LjE3MzgzYy0uOTIxMzEuODQxMzItMS44NTUxIDEuNjY5MTMtMi44MTQ0NSAyLjQ2Mjg5LS43MjIzNC41OTc2Ni0xLjQ1NzQgMS4xODY2Mi0yLjIwNTA4IDEuNzY3NTggMS4yMDIwNCAyLjYxOTc5IDIuNDMyMTcgNS4xNzQ3OCAzLjYzMDg2IDcuNDQ5MjJsLjA4OTg1LjE3MTg3LjA4NTkzLjE3MTg4Yy4wODQwNy4xNjgxNi4wODQ4Ny4xNjE5OS4xNjQwNy4zMTgzNi4zMTA2NC4xMTc4OC42ODYwNi4yNjg4NCAxLjA2ODM2LjQyNTc4di0xOTQuNzQ2MDljLS45MjEzLjg0MTMyLTEuODU1MTEgMS42NjkxMy0yLjgxNDQ2IDIuNDYyODktMTEuNjgyMTUgOS42NjU3OS0yNi42OTU0NSAxNy4xMTY4Ny00NC40OTQxNCAyMy4zNDU3LTM1LjU5NzM5IDEyLjQ1NzctODIuNjAzMDcgMTkuNjQ4NDQtMTM0LjUxMzY3IDE5LjY0ODQ0cy05OC45MTQzNC03LjE5MDc4LTEzNC41MTE3Mi0xOS42NDg0NGMtMTcuNzk4NjktNi4yMjg4My0zMi44MTE5OS0xMy42Nzk5MS00NC40OTQxNC0yMy4zNDU3LS45NTkzNC0uNzkzNzYtMS44OTMxNS0xLjYyMTU3LTIuODE0NDUtMi40NjI4OXptMCA5MC45MTc5NnY1NS4wODAwOGMuMzA2MTMgMzUuMDYzMTkgODEuNjA4MyA2My40MzE4NiAxODEuODAwNzggNjMuNDM1NTUgMjkuNDM4OTEuMDAwMDggNTcuMjE3NjMtMi40NjE4OSA4MS44MTY0MS02LjgwODU5LS4xNDI5NS01LjMyODIyLjU5NDg2LTEwLjc0MjEzIDIuMTEzMjgtMTYuMTkxNDEtLjMzNjA0LS42MTk4NC0uOTY2NjktMS41MjI5NC0xLjI0MDI0LTIuMDQ0OTJsLS4wMzkwNi0uMDc0MjItLjAzNzExLS4wNzQyMmMtMi43Mjg3Mi01LjMyNzA1LTMuOTc2OTQtOS44MTE0Ny01LjAwOTc3LTEyLjY1MDM5bC4xNDA2My4zNzEwOWMtLjY1OTMtMS42OTQ5NC0uOTQ2NTQtMi42MTgwOS0xLjE3MTg4LTMuMzczMDQtLjQwMzAyLS41ODAxOS0uOTcyODQtMS40MjA5OC0xLjgyNDIxLTIuNTcyMjdsLS4xNTA0LS4yMDUwOC0uMTQ0NTMtLjIwNzAzYy42NTYyNC45NDE3Ni0yLjE2NTQ4LTIuMTc1MTctNC44MTA1NC02Ljc3NTM5LTIuNjM5MzUtNC41OTAyOC01Ljg5ODk5LTEzLjgyMDA4LTIuMDQ0OTMtMjMuMTcxODcuNTc3MDgtMS40MDI0NSAxLjM2NTQ0LTIuNzIxOSAyLjI4MTI2LTMuOTY4NzUtMjEuNzMyMDIgMy4wMzM3My00NS4yNDIwMyA0LjY2OTkyLTY5Ljg3ODkxIDQuNjY5OTItNTEuOTEwNiAwLTk4LjkxNDMzLTcuMTkwNzgtMTM0LjUxMTcyLTE5LjY0ODQ0LTE3Ljc5ODY5LTYuMjI4ODMtMzIuODExOTgtMTMuNjc5OTEtNDQuNDk0MTQtMjMuMzQ1Ny0uOTUyNjEtLjc4ODE5LTEuODc5OTEtMS42MTAxLTIuNzk0OTItMi40NDUzMnptMjgyLjI4OTA2IDM2LjAwNzgyYy4yMTg0NC4wODg1MS40ODE3NS4yMTg3NC43MDUwOC4zMTA1NC4wMjAxLjAwOTMuMDU2MDcuMDE4MzUuMDc2MTcuMDI3MzV6bTE2LjI1MTk1IDMuODk2NDhjLjA2Mzc1LjA2MzQzLjQ4OTM1LjM3OTYyLjUzMTI1LjQxNjAyLjE3MTguMTQ5NTQuMDA4OTgtLjA0NjQtLjUzMTI1LS40MTYwMnptLTI5OC41NDEwMSA1MS4xNzM4M3Y1NC4zOTI1OGMtLjAwNy4wNDU2LS4wMTMxMy4wOTExLS4wMTk1My4xMzY3Mi4wMDA5OSAxNy40MDA3OSAxOS45ODA1NiAzMy4xNjUyNiA1Mi4zMjQyMiA0NC42NTIzNHYtMzYuMTAzNTJjMC00LjM3NzM4IDEuMDI4MjktMTAuMTc2MzYgNC42NTYyNC0xNS4xNDg0MyAzLjYyNzk4LTQuOTcyMDggOC44NjgxLTcuNjY2NjUgMTIuNzI4NTItOC44OTA2M2wuMTMyODEtLjA0Mjk3LjEzNDc3LS4wMzkwNmMzLjE5NTktLjk1ODc4IDYuNDk1NzEtMS41OTIxMyA5Ljk3MjY2LTEuNzE0ODQgOS43NDY1Ny0uMzQ0MDQgMjEuMjM2MTcgNi4xMDM3NiAyNi4xNzM4MiAxNC44OTQ1MyAyLjI0MzQ2LTQuMTI2MjEgNS43NjI3OS04LjA2MDc3IDEwLjAyNzM1LTEwLjc4NzExLTI1LjcyNTc0LTMuMzM5NDQtNDkuMDUwNjMtOC42MzI0OC02OC44NDE4LTE1LjU1ODYtMTcuNzk4NjktNi4yMjg4My0zMi44MTE5OC0xMy42Nzk5MS00NC40OTQxNC0yMy4zNDU3LS45NTI2MS0uNzg4MTgtMS44Nzk5MS0xLjYxMDA4LTIuNzk0OTItMi40NDUzMXptMzU3LjI0MjE5IDEwLjE1MDM5Yy0uMjgxNDQtLjEwNTA1IDEuMTU2MjIuNDU0MjIgMi40NTcwMy45OTgwNS0xLjM0NDI0LS44MjMwNi0yLjI0ODY5LS45MjAyNS0yLjQ1NzAzLS45OTgwNXptLTM0LjY2NDA3IDEzLjM0OTYxYy0uNDM0NjMuMTY1ODctLjg3NjE1LjMyOTk4LTEuMzE0NDUuNDk0MTQgMS4zNjUyNSAyLjMzNTM1IDIuNzc1MTIgNC41MzU3MiA0LjIxODc1IDYuNTMxMjVoLjI3NzM0Yy0uNzQ5MjktMS42MzQwNi0xLjQ5NDItMy4zMDMxMy0yLjA1MDc4LTQuNTQ4ODNsLS4wMjkyOS0uMDY0NDUtLjAyNzM1LS4wNjQ0NWMtLjMxNjA4LS43MjI1NC0uNjc5MDQtMS41MDc4MS0xLjA3NDIyLTIuMzQ3NjZ6bS0xNzAuMzI4MTIgMjEuMTM4NjdjMS4wMjk0OC45NDE4NyAyLjAwOTAxIDIuMDAzOTggMi44OTY0OCAzLjIwNTA4IDEuMTQ0MjEgMS41NDg1NyAxLjk2MjEgMy4xODE3MiAyLjY0NDUzIDQuODI2MTdoMTMuNDU3MDN2LS4xNTgyaDIyLjU4MDA4Yy43MTEyLTEuMTkxMyAxLjQ0OTk0LTIuMzcwNDcgMi4zNjEzMy0zLjQxOTkyIDEuMzU0NS0xLjU1OTY4IDIuODAzOTQtMi44NTE3IDQuMjk0OTItMy45NzA3MS02LjE0ODY3LjIwODcyLTEyLjM3ODU1LjMxODM2LTE4LjY4MzU5LjMxODM2LTEwLjA1MjM2IDAtMTkuOTEzNjMtLjI3NTQ1LTI5LjU1MDc4LS44MDA3OHptMTg3LjY0NDUzIDE2LjA4MjAzLjI0ODA1LjM5ODQ0Yy0uMDMzLS4wNTE5LS4wMzQyMS0uMDczOC0uMDY2NDEtLjEyNS0uMDU2OTEtLjA5NDk2LS4xMjQwNC0uMTc3NTQtLjE4MTY0LS4yNzM0NHptNi4yMjY1NiA3Ljg3Njk2djEwLjMyODEyaDIuMTE5MTQgMS41MjUzOWMxLjYzNTQ5LTEuMzc3NDMgMy4xMzg4NS0yLjc3ODggNC41LTQuMjAzMTItMi4yNDk5My0xLjQ2OTYyLTQuMDYxOC0yLjg1Nzk5LTUuNTcyMjYtNC4wMDk3Ny0xLjAxNTA5LS43NTExNi0xLjgwNTUtMS40MzY0Ny0yLjU3MjI3LTIuMTE1MjN6Ii8+PHBhdGggZmlsbD0ibm9uZSIgZD0ibTE5MC4wMDAwMiAzMjIuMzYyMmg0MDAuMDAxNDZ2LjAwMDAxIDM5OS45OTk5N2gtNDAwLjAwMTQ2Yy0uMDAwMDEgMC0uMDAwMDEgMC0uMDAwMDEgMHYtMzk5Ljk5OTk3YzAtLjAwMDAxIDAtLjAwMDAxLjAwMDAxLS4wMDAwMXoiLz48cGF0aCBmaWxsPSJub25lIiBkPSJtMTkwIDMyMi4zNjIyMWg0MDB2NDAwaC00MDB6Ii8+PGcgZmlsbD0iIzRlNTA1ZCI+PHBhdGggZD0ibTI3OC40ODQyNCA3MDcuOTY4NTFoMTAuMjgxMDR2LTQwLjcyODY2bDE2LjA1NCAzNS41MDg3OWMxLjgxOTUyIDQuMjcwMjkgNC40MjkxNSA1Ljg1MjQ1IDkuNDkwMjUgNS44NTI0NSA1LjA2MTYxIDAgNy41MTMwNS0xLjU4MTY5IDkuNDExMjktNS44NTE5OWwxNS45NzUyLTM1LjUwOTI1djQwLjcyODY2aDEwLjM1OTg5di00MC43Mjg2NmMwLTMuOTU0MjMtMS41ODE3LTUuODUyNDUtNC45MDMzNC02Ljg4MDQ5LTcuODI5MDgtMi4zNzI1My0xMy4wNDkwMS0uMzE2MDMtMTUuNDIxNTQgNC45ODIyM2wtMTUuNzM3NTcgMzUuMTEzMzItMTUuMTg0MzgtMzUuMTEzMzJjLTIuMjkzNTktNS4yOTgyNy03LjU5MjQ5LTcuMzU0NzYtMTUuNTAwODctNC45ODIyMy0zLjI0MjM0IDEuMDI4MDItNC44MjM5NyAyLjkyNjI0LTQuODIzOTcgNi44ODA0OXoiLz48cGF0aCBkPSJtMzU4LjU5NzQ0IDY3NC44MzE5M2gxMC4zNTk4OXYyMi4zODA4OWMtLjA3ODkgMS4yNjUxNi4zOTU0MyA0LjExMzAzIDYuMDEwMjQgNC4xOTE5MSAyLjkyNjI0LjA3ODQgMjIuMzAyMDMgMCAyMi40NjAyOCAwdi0yNi43MzEwNWgxMC4zNjA0MXYzNi42MTY2N2MwIDkuMDE1MzctMTEuMTUxMjQgMTAuOTkyOTctMTYuMzcwNjUgMTEuMDcxODVoLTMyLjU4MzA0di02Ljg4MDQ4aDMyLjY2MTkyYzYuNjQzMjktLjcxMTQ2IDUuODUyNDUtNC4wMzMxMiA1Ljg1MjQ1LTUuMTQwNTV2LTIuNjg5MDdoLTIxLjkwNjU4Yy0xMC4yMDIxMy0uMDc4OS0xNi43NjYwNi00LjU4NjgzLTE2Ljg0NDk3LTkuNzI3MzUgMC0uNDc0ODEuMjM3MTQtMjIuOTM0NTcgMC0yMy4wOTI4N3oiLz48cGF0aCBkPSJtNTgwLjgyNjM4IDY0OC44OTE2Yy02LjMyNjc5LS4xNTc3My0xMS4yMzAxMy40NzUzMS0xNS4zNDI2NyAyLjIxNDc4LTEuMTg2MjcuNDc0My0zLjA4NDUxLjQ3NDc5LTMuMjQyNzkgMS45NzcxMS42MzMwOS42MzMwOC43MTE5OCAxLjY2MTA4IDEuMjY1NjggMi41MzA4My45NDk2MiAxLjU4MTE3IDIuNjA5NjkgMy43MTcwNyA0LjExMjUgNC44MjQ0NSAxLjY2MDU5IDEuMjY1MTUgMy4zMjE2NyAyLjUzMDMxIDUuMDYxMTQgMy42Mzc3MSAzLjA4NDUgMS44OTgyNCA2LjU2NDQyIDMuMDA1MSA5LjU2OTU1IDQuOTAzMzQgMS43NDA0OCAxLjEwNjM3IDMuNDc5NDQgMi41MzA4IDUuMjE5NDEgMy43MTcwNy44NzAyNC42MzIxIDEuNDIzNDIgMS42NjA1OSAyLjUzMDggMi4wNTYwMiAwLS4wNzkzIDAtLjE1ODE2IDAtLjIzNzE2LS41NTM2OC0uNzExOTUtLjcxMTk1LTEuNzM5OTctMS4yNjUxNi0yLjUzMDgxLS43OTAzNC0uNzkwODYtMS41ODE2Ny0xLjUwMjgxLTIuMzcyNTMtMi4yOTM2Ni0yLjI5MzY1LTMuMDg0MDItNS4xNDA1Mi01Ljc3MzA3LTguMjI0OTktNy45ODczNi0yLjUzMDMxLTEuNzM5OTYtOC4wNjY3My00LjExMjUtOS4wOTQ3Ny03LjAzODc0LjAwMDQ5IDAtLjA3OTMtLjA3ODktLjE1ODE3LS4xNTc3MyAxLjczOTk4LS4xNTgzOCAzLjc5NTk3LS43OTA4NCA1LjQ1NzA3LTEuMjY1NjUgMi42ODkwOC0uNzExOTcgNS4xNDA1Mi0uNTUzNyA3LjkwODQ3LTEuMjY1MTUgMS4yNjUxNS0uMzE2NTUgMi41MzA4LS43MTE5NyAzLjc5NTk1LTEuMTA3NDEgMC0uMjM3NjUgMC0uNDc0MjkgMC0uNzExNDUtMS40MjI5LTEuNDIzOTItMi40NTE0MS0zLjMyMTY1LTMuOTU0MjItNC42NjYyMS00LjAzMzEyLTMuNDgwNDItOC40NjIxOS02Ljg4MDQ2LTEzLjA0OTAxLTkuNzI3MzQtMi40NTE5Mi0xLjU4MTY5LTUuNjE1MzItMi42MTAyMS04LjIyNDk5LTMuOTU0MjUtLjk0ODYxLS40NzUzLTIuNTMwODMtLjcxMTk1LTMuMDg0MDEtMS41MDI4MS0xLjQyMzkyLTEuNzM5OTUtMi4yMTQ3OC00LjAzMzEyLTMuMjQyNzgtNi4wODk2My0yLjI5MjY2LTQuMzUwMTUtNC41MDc5My05LjE3MzY0LTYuNDg1MDQtMTMuNzYwNDYtMS40MjI5LTMuMDg0NTEtMi4yOTMxNS02LjE2OTAzLTQuMDMzMTItOS4wMTU4NS04LjE0NTU5LTEzLjQ0NDM5LTE3LjAwMzIzLTIxLjU5MDA2LTMwLjYwNTktMjkuNTc3OS0yLjkyNjI0LTEuNjYwNTktNi40MDU2NS0yLjM3MjU0LTEwLjEyMjc1LTMuMjQyMjgtMS45NzY2MS0uMDc5My0zLjk1NDIzLS4yMzcxNS01LjkzMTM2LS4zMTY1My0xLjI2NTE2LS41NTM3LTIuNTMwODMtMi4wNTYwMS0zLjYzODIxLTIuNzY3OTktNC41MDY5Mi0yLjg0NzM0LTE2LjEzMy05LjAxNTM2LTE5LjQ1NDY2LS44Njk3Mi0yLjEzNTM3IDUuMTQwNTIgMy4xNjMzOSAxMC4yMDE2NCA0Ljk4MjIzIDEyLjgxMTgzIDEuMzQ1MDMgMS44MTg4NSAzLjA4NDUxIDMuODc0ODUgNC4wMzM2MSA1LjkzMTM4LjU1MzcgMS4zNDM1Mi43MTE0OCAyLjc2Nzk3IDEuMjY1MTYgNC4xOTEzOSAxLjI2NTY3IDMuNDc4OTMgMi40NTE0NCA3LjM1NDc3IDQuMTEyNTIgMTAuNTk3NTYuODcwMjIgMS42NjA1OSAxLjgxODg0IDMuNDAwNTYgMi45MjYyNCA0LjkwMjg1LjYzMjU2Ljg2OTcyIDEuNzM5NDUgMS4yNjU2NSAxLjk3NzEgMi42ODkwNy0xLjEwNjg4IDEuNTgxNy0xLjE4NjI2IDMuOTU0MjYtMS44MTkzNSA1LjkzMTM5LTIuODQ2ODUgOC45MzY0NS0xLjczOTQ1IDIwLjAwODM2IDIuMjkzNjcgMjYuNTcyMjcgMS4yNjUxNiAxLjk3NjYzIDQuMjcwNzYgNi4zMjcyOCA4LjMwMzkyIDQuNjY2MjIgMy41NTg4LTEuNDIzNDUgMi43Njc5Ni01LjkzMTM4IDMuNzk1OTYtOS44ODU2NC4yMzc2NS0uOTQ5Ni4wNzkzLTEuNTgxNjcuNTUzNy0yLjIxNDI2LjAwMDUuMDc4OSAwIC4xNTgzOCAwIC4xNTgzOCAxLjEwNzM4IDIuMjE0MjYgMi4yMTQyNiA0LjM0OTY4IDMuMjQyMjYgNi41NjM5IDIuNDUxOTQgMy44NzQ4OCA2LjcyMjI0IDcuOTA4NDkgMTAuMjgxMDIgMTAuNTk3NTkgMS44OTg3NCAxLjQyMjkzIDMuNDAxMDUgMy44NzQ4NyA1Ljc3MzU5IDQuNzQ1MDkgMC0uMDc5OSAwLS4xNTgzOCAwLS4yMzc2Ni0uMDc5MyAwLS4wNzkzIDAtLjE1ODM4IDAtLjQ3NDgxLS43MTE5Ny0xLjE4NjI3LTEuMDI3OTktMS44MTg4Ni0xLjU4MTY5LTEuNDIzNDItMS40MjM0My0zLjAwNTYyLTMuMTYzNC00LjExMjUtNC43NDUwNy0zLjMyMTE1LTQuNDI5MDctNi4yNDc5LTkuMzMxOTItOC44NTc1Ny0xNC4zOTM1My0xLjI2NTE2LTIuNDUxNDItMi4zNzI1Ni01LjE0MDUxLTMuNDAwNTYtNy41OTE5NC0uNDc0ODEtLjk0OTYyLS40NzQ4MS0yLjM3MjU0LTEuMjY1NjUtMi44NDY4Ni0xLjE4NjI3IDEuNzM5NDgtMi45MjU3NCAzLjI0MjI5LTMuNzk1OTggNS4zNzc2OS0xLjUwMTggMy40MDA1My0xLjY2MDU2IDcuNTkxOTQtMi4yMTQyNiAxMS45NDE1Ni0uMzE2MDUuMDc5My0uMTU4MzggMC0uMzE2NTQuMTU4MzgtMi41MzAzMi0uNjMzMDktMy40MDA1Ni0zLjI0MjI4LTQuMzQ5NjktNS40NTcwNi0yLjM3MjUzLTUuNjE0OC0yLjc2Nzk2LTE0LjYzMDY5LS43MTE0NS0yMS4xMTUyMy41NTM2OS0xLjY2MTA4IDIuOTI2MjMtNi44ODA0OSAxLjk3NzEtOC40NjIxOS0uNDc0MjktMS41MDI4MS0yLjA1NjQ5LTIuMzcyNTQtMi45MjYyNC0zLjU1ODgtMS4wMjc5OS0xLjUwMjgxLTIuMTM1MzctMy40MDA1NS0yLjg0NjgzLTUuMDYxNjEtMS44OTgyNC00LjQyODU1LTIuODQ3MzctOS4zMzE5MS00LjkwMzM2LTEzLjc2MDk4LS45NDkxMS0yLjA1NjQ5LTIuNjA5NjktNC4xOTEzOS0zLjk1NDIzLTYuMDg5MTItMS41MDIzMS0yLjEzNTM5LTMuMTYzNC0zLjYzODItNC4zNDk2OS02LjE2OTAzLS4zOTQ5MS0uODY5NzItLjk0OTExLTIuMjkzMTUtLjMxNjU0LTMuMjQyMjguMTU4MzgtLjYzMjU3LjQ3NDMyLS44Njk3MiAxLjEwNzM4LTEuMDI3OTkgMS4wMjgwMi0uODcwMjMgMy45NTQyNi4yMzcxNSA0Ljk4MjIzLjcxMTQ3IDIuOTI2MjQgMS4xODU3NSA1LjM3NzY4IDIuMjkzNjUgNy44Mjk2IDMuOTU0MjMgMS4xMDY4OC43OTA4NCAyLjI5MzE1IDIuMjkzNjcgMy43MTY1OCAyLjY4OTA3aDEuNjYxMDhjMi41MzA4My41NTMyMSA1LjM3NzY4LjE1ODE3IDcuNzUwMjIuODY5NzUgNC4xOTE4OCAxLjM0NDAzIDcuOTg3MzQgMy4zMjE2NSAxMS4zODg0MSA1LjQ1NzA1IDEwLjM2MDQxIDYuNTYzOTMgMTguOTAwOTUgMTUuODk2MzMgMjQuNjc0NTcgMjcuMDQ3MS45NDkxMyAxLjgxODM2IDEuMzQ0MDQgMy40Nzk5NCAyLjIxNDI5IDUuMzc3NjggMS42NjEwOCAzLjg3NTM0IDMuNzE3MDcgNy44Mjk1OSA1LjM3NzY2IDExLjYyNTU2IDEuNjYwNTggMy43MTY1OCAzLjI0MjI4IDcuNTEzMDcgNS42MTQ4MiAxMC41OTc1OCAxLjE4Njc2IDEuNjYwMDkgNS45MzEzNSAyLjUzMDMyIDguMDY2NzMgMy40MDA1NiAxLjU4MTY3LjcxMTQ1IDQuMDMzNjIgMS4zNDQ1NCA1LjQ1NzA0IDIuMjE0MjYgMi42ODg1OCAxLjY2MDA3IDUuMzc3NjYgMy41NTg4MyA3LjkwODQ2IDUuMzc3NjYgMS4yNjU2OC45NDg2MyA1LjIxOTQxIDIuOTI2MjYgNS40NTcwNyA0LjUwNzQ0aC4wMDAwMnoiLz48cGF0aCBkPSJtNTAwLjE1OTAzIDU4MC4xNjY2OWMtMS4zNDQ1NCAwLTIuMjkzMTUuMTU4ODEtMy4yNDIyNi4zOTU5MyAwLS4wMDA1IDAgLjA3OTMgMCAuMTU4MzhoLjE1ODM3Yy42MzMwOSAxLjI2NTE1IDEuNzM5NDUgMi4xMzUzOSAyLjUzMDMyIDMuMjQyMjYuNjMzMDggMS4yNjUxNSAxLjE4NjI2IDIuNTMwODIgMS44MTkzNSAzLjc5NjQ3LjA3ODktLjA3OTMuMTU3NzMtLjE1ODM3LjE1NzczLS4xNTgzNyAxLjEwNzktLjc5MTM2IDEuNjYxMDgtMi4wNTY1MSAxLjY2MTA4LTMuOTU0MjQtLjQ3NDgxLS41NTM3LS41NTM3LTEuMTA3MzgtLjk0OTExLTEuNjYxMDgtLjQ3NDMyLS43OTEzNS0xLjUwMjgxLTEuMTg2MjctMi4xMzU0LTEuODE5MzV6Ii8+PC9nPjxwYXRoIGZpbGw9IiM5OWIwMDAiIGQ9Im00MTUuNjk2NyA3MDcuOTY4NTFoMjkuNzM2MTZjMy40Nzk0NCAwIDYuODAxMS0uNzExNDYgOS40ODk2Ni0xLjk3NzEzIDQuNTA4NDYtMi4wNTU5OSA2LjY0MzMyLTQuODIzOTYgNi42NDMzMi04LjQ2MjE2di03LjU5MjQ2YzAtMi45MjU3NC0yLjQ1MTk1LTUuNjkzNjktNy4zNTQ3Ny03LjU5MTk1LTIuNTMwMzEtLjk0ODYyLTUuNjk0Mi0xLjUwMjMxLTguNzc4Ny0xLjUwMjMxaC0xMi40OTQ4Yy00LjE5MTg4IDAtNi4xNjkwMS0xLjI2NTY1LTYuNzIyNjktNC4wMzM2Mi0uMDc5My0uMzE2MDUtLjA3OTMtLjYzMjU5LS4wNzkzLS45NDg2MnYtNC42NjYyMmMwLS4yMzcxNCAwLS41NTM2OC4wNzkzLS44Njk3Mi41NTM3LTIuMTM1MzggMS42NjA1OC0yLjY4OTA4IDUuMjk4NzktMy4wODQ1MWguOTQ4NjIgMjkuNDk5NTF2LTYuODgwNDloLTI4Ljk0NTgzYy00LjE5MTQgMC02LjQwNTY2LjIzNzE2LTguMzgyODEuODcwMjQtNi4wODk2MyAxLjg5NzIzLTguNzc4NzEgNC45MDI4My04Ljc3ODcxIDEwLjIwMTYydjYuMDEwNzZjMCA0LjY2NTY5IDUuMjE5OTMgOC42MTk5NCAxNC4wNzc1MSA5LjU2OTA1Ljk0OTEyLjA3ODkgMS45NzcxMi4wNzg5IDMuMDA1MTIuMDc4OWgxMC42NzY0NWMuMzk1NDMgMCAuNzkwODYgMCAxLjEwNzQuMDc5MyAzLjI0MjI2LjMxNjAyIDQuNjY1NjkuODY5NzIgNS42MTQ4IDIuMDU1OTkuNjMyNTguNjMyMDcuNzkwODUgMS4xODYyNi43OTA4NSAxLjg5ODI0bC4wMDA1IDYuMDA5NzVjMCAuNzExOTUtLjQ3NDgxIDEuNjYxNTgtMS40MjM5MiAyLjQ1MjQyLS45NDg2NC43OTA4NS0yLjQ1MTk0IDEuMzQ0NTUtNC40MjkwOSAxLjQyMzQyLS4zOTQ5MSAwLS42MzI1Ny4wNzg5LTEuMDI3OTkuMDc4OWwtMjguNTQ5NDItLjAwMDV2Ni44ODA5OGwuMDAwMDQuMDAwMDV6Ii8+PHBhdGggZmlsbD0iIzk5YjAwMCIgZD0ibTUyNS45NDExOSA2OTYuMDI2OTNjMCA3LjAzNzcyIDUuMjk4NzkgMTAuOTkyNDcgMTUuODk1ODIgMTEuNzgzMzEgMS4wMjc5OS4wNzkzIDEuOTc3MS4xNTgzOCAzLjAwNTEyLjE1ODM4aDI2Ljg4OTgydi02Ljg4MDk5aC0yNy4xMjY1MWMtNi4wMTAyNCAwLTguMzA0MzYtMS41MDE4Mi04LjMwNDM2LTUuMTQwMDNsLjAwMDQ5LTM1LjU4ODE1aC0xMC4zNjA0djM1LjY2NzU2bC4wMDAwMi4wMDAwMnoiLz48cGF0aCBmaWxsPSIjOTliMDAwIiBkPSJtNDY4LjEyOTY5IDY5Ni4zNDI4NHYtMjQuNTE2MjVjMC02LjI0NzM5IDQuNDI4NTYtMTAuMDQzODcgMTMuMDQ5MDItMTEuMjMwMTEuOTQ5NjItLjA3OTMgMS44OTgyMy0uMTU3NzMgMi43Njc5Ni0uMTU3NzNsMTkuNjEyOTEtLjAwMDVjMS4wMjkwMSAwIDEuODk4MjQuMDc5MyAyLjkyNjI0LjE1ODE3IDguNjIwNDMgMS4xODU3NSAxMi45NzAxMiA0Ljk4MjcyIDEyLjk3MDEyIDExLjIzMDExbC4wMDA1MSAyNC41MTYyNGMwIDUuMDYxMTctMS44MTkzNyA3Ljc1MDc0LTYuMDkwMTYgOS41Njk1N2wxMC4xMjMyNiA5LjE3MzY0aC0xMS45NDE1OGwtOC4yMjQ5OS03LjQzNDE0LTguMzAzOTIuNDc0MjloLTExLjA3MjM3Yy0xLjgxODM2IDAtMy44NzUzNy0uMjM2NjQtNi4wMTAyNS0uNzkwMzQtNi41NjQ0NC0xLjgxODg1LTkuODA2Ny01LjI5ODc5LTkuODA2Ny0xMC45OTI5OWwtLjAwMDA1LS4wMDAwM3ptMTEuMTUwNzUtLjU1MzY4YzAgLjMxNjAyLjE1ODE3LjYzMzA4LjIzNzY2IDEuMDI4NTEuNTUzMTggMi44NDY4MyAzLjI0MjI2IDQuNDI4NTYgNy4zNTQ3NiA0LjQyODU2aDkuMzMxODlsLTguNTQxMDUtNy43NTA3M2gxMS45NDIxbDcuNTEyNTYgNi44MDE2MmMxLjQyNDQ0LS43OTEzNiAyLjI5MzY1LTEuODk3NzUgMi42MTAxOS0zLjMyMTE4LjA3ODktLjMxNjUyLjA3ODktLjcxMTk0LjA3ODktMS4wMjg0OXYtMjMuNDg4MjdjMC0uMzE2MDUgMC0uNjMyNTktLjA3ODktLjk0ODYyLS41NTM2OC0yLjY4OTEtMy4yNDI3OC00LjE5MTkxLTcuMjc1ODgtNC4xOTE5MWgtMTUuNTc5ODFjLTQuNTg2ODIgMC03LjU5MjQ2IDEuOTc3MTMtNy41OTI0NiA1LjE0MDUzdjIzLjMzMDAzeiIvPjxwYXRoIGZpbGw9IiM5OWIwMDAiIGQ9Im01NzYuNDc2NDggNzA4LjA0NzE2aDEuNTAyODF2LTUuNzczMDdoMS45NzcxM3YtMS4xODY3NmgtNS41MzY0NHYxLjE4Njc2aDIuMDU2NXptMTEuNDY3ODMgMGgxLjQyMjkxdi02Ljk1OTg1aC0yLjEzNDg4bC0xLjc0MDQ5IDQuNzQ1MDctMS44OTcyMi00Ljc0NTA3aC0yLjA1NjQ5djYuOTU5ODVoMS4zNDQ1NHYtNS4yOTg3OWguMDc4OWwxLjk3NzExIDUuMjk4NzloMS4wMjg1MWwxLjk3NzEzLTUuMjk4Nzl2NS4yOTg3OXoiLz48L3N2Zz4=" vertex="1" parent="1">
          <mxGeometry x="708.64" y="540" width="70.71" height="100" as="geometry" />
        </mxCell>
        <mxCell id="ugSwHuxISsAq8XEXFErL-32" value="" style="shape=image;verticalLabelPosition=bottom;verticalAlign=top;imageAspect=0;aspect=fixed;image=data:image/svg+xml,PHN2ZyB4bWxucz0iaHR0cDovL3d3dy53My5vcmcvMjAwMC9zdmciIHdpZHRoPSIyNTUuOTk5OTg0NzQxMjEwOTQiIHZpZXdCb3g9IjAuMDAwNjg1NjkxODMzNDk2MDkzOCAwIDI1NS45OTk5ODQ3NDEyMTA5NCAyNTUuOTk1MTAxOTI4NzEwOTQiIHByZXNlcnZlQXNwZWN0UmF0aW89InhNaWRZTWlkIiBoZWlnaHQ9IjI1NS45OTUxMDE5Mjg3MTA5NCI+PHBhdGggZmlsbD0iI2RlNGMzNiIgZD0ibTI1MS4xNzIyNDUgMTE2LjU5MzUxNy0xMTEuNzczNDkyLTExMS43NjUwNjM5OGMtNi40MzIzMi02LjQzNzkzNzM2LTE2Ljg3MjkwMS02LjQzNzkzNzM2LTIzLjMxMzY0NyAwbC0yMy4yMDk3MTk3IDIzLjIwOTcxOTA4IDI5LjQ0MjYwODcgMjkuNDQyNjA4OGM2Ljg0MjQxNS0yLjMxMTcwMjUgMTQuNjg3NTk4LS43NjEyMDQ2IDIwLjE0MjQzIDQuNjkzNjI3MiA1LjQ4MDExMSA1LjQ4ODUzODMgNy4wMTkzNzQgMTMuNDAxMTM0MSA0LjY1MTQ5NCAyMC4yNjYwMjAxbDI4LjM3NTIzNyAyOC4zNzUyMzY4YzYuODY0ODg2LTIuMzY1MDcxIDE0Ljc4NTkwOC0uODM0MjM1IDIwLjI2ODgyOSA0LjY1NzExMiA3LjY2MjYwNiA3LjY1OTc5NyA3LjY2MjYwNiAyMC4wNzUwMTcgMCAyNy43NDA0MzItNy42NjU0MTUgNy42NjU0MTUtMjAuMDgwNjM1IDcuNjY1NDE1LTI3Ljc0ODg1OSAwLTUuNzYzODA3LTUuNzY5NDI2LTcuMTg3OTA2LTE0LjIzNTM3LTQuMjY5NDg3LTIxLjMzNjIwMWwtMjYuNDYyMzk0LTI2LjQ2MjM5NDUtLjAwMjgwOSA2OS42Mzc1ODQ1YzEuODY3OTAxLjkyNjkyOCAzLjYzMTg3MyAyLjE2MDAyMyA1LjE4Nzk4OSAzLjcxMDUyMSA3LjY2MjYwNiA3LjY1OTc5NyA3LjY2MjYwNiAyMC4wNzUwMTcgMCAyNy43NDYwNDktNy42NjU0MTUgNy42NjI2MDctMjAuMDg2MjUyIDcuNjYyNjA3LTI3Ljc0MDQzMiAwLTcuNjYyNjA2LTcuNjcxMDMyLTcuNjYyNjA2LTIwLjA4NjI1MiAwLTI3Ljc0NjA0OSAxLjg5MzE4MS0xLjg5MDM3MiA0LjA4NDEwMi0zLjMyMDA4OCA2LjQyMTA4NC00LjI4MDcyM3YtNzAuMjg2NDMzNWMtMi4zMzY5ODItLjk1NTAxNjgtNC41MjUwOTQtMi4zNzYzMDY3LTYuNDIxMDg0LTQuMjgwNzIyOS01LjgwNTk0MS01Ljc5NzUxNDItNy4yMDE5NTEtMTQuMzE2ODI2NC00LjIyNzM1NC0yMS40NDU3NDY4bC0yOS4wMjEyNzc5LTI5LjAyNjg5NTQtNzYuNjQwMTA0OTYgNzYuNjM0NDg3NmMtNi40NDA3NDYyMyA2LjQ0MzU1NS02LjQ0MDc0NjIzIDE2Ljg4NDEzNiAwIDIzLjMyMjA3NGwxMTEuNzczNDkwODYgMTExLjc2Nzg3MmM2LjQzNTEyOSA2LjQzNzkzOCAxNi44NzI5MDEgNi40Mzc5MzggMjMuMzE2NDU2IDBsMTExLjI1MTA0Mi0xMTEuMjQ4MjMxYzYuNDM3OTM1LTYuNDQwNzQ2IDYuNDM3OTM1LTE2Ljg4Njk0NSAwLTIzLjMyNDg4MyIvPjwvc3ZnPg==" vertex="1" parent="1">
          <mxGeometry x="430.13" y="360" width="60" height="60" as="geometry" />
        </mxCell>
        <mxCell id="ugSwHuxISsAq8XEXFErL-33" value="" style="shape=image;verticalLabelPosition=bottom;verticalAlign=top;imageAspect=0;aspect=fixed;image=data:image/svg+xml,PHN2ZyB4bWxucz0iaHR0cDovL3d3dy53My5vcmcvMjAwMC9zdmciIHZpZXdCb3g9IjAgMCA0OTYgNTEyIj48cGF0aCBkPSJtMTY1LjkgMzk3LjRjMCAyLTIuMyAzLjYtNS4yIDMuNi0zLjMuMy01LjYtMS4zLTUuNi0zLjYgMC0yIDIuMy0zLjYgNS4yLTMuNiAzLS4zIDUuNiAxLjMgNS42IDMuNnptLTMxLjEtNC41Yy0uNyAyIDEuMyA0LjMgNC4zIDQuOSAyLjYgMSA1LjYgMCA2LjItMnMtMS4zLTQuMy00LjMtNS4yYy0yLjYtLjctNS41LjMtNi4yIDIuM3ptNDQuMi0xLjdjLTIuOS43LTQuOSAyLjYtNC42IDQuOS4zIDIgMi45IDMuMyA1LjkgMi42IDIuOS0uNyA0LjktMi42IDQuNi00LjYtLjMtMS45LTMtMy4yLTUuOS0yLjl6bTY1LjgtMzgzLjJjLTEzOC43IDAtMjQ0LjggMTA1LjMtMjQ0LjggMjQ0IDAgMTEwLjkgNjkuOCAyMDUuOCAxNjkuNSAyMzkuMiAxMi44IDIuMyAxNy4zLTUuNiAxNy4zLTEyLjEgMC02LjItLjMtNDAuNC0uMy02MS40IDAgMC03MCAxNS04NC43LTI5LjggMCAwLTExLjQtMjkuMS0yNy44LTM2LjYgMCAwLTIyLjktMTUuNyAxLjYtMTUuNCAwIDAgMjQuOSAyIDM4LjYgMjUuOCAyMS45IDM4LjYgNTguNiAyNy41IDcyLjkgMjAuOSAyLjMtMTYgOC44LTI3LjEgMTYtMzMuNy01NS45LTYuMi0xMTIuMy0xNC4zLTExMi4zLTExMC41IDAtMjcuNSA3LjYtNDEuMyAyMy42LTU4LjktMi42LTYuNS0xMS4xLTMzLjMgMi42LTY3LjkgMjAuOS02LjUgNjkgMjcgNjkgMjcgMjAtNS42IDQxLjUtOC41IDYyLjgtOC41czQyLjggMi45IDYyLjggOC41YzAgMCA0OC4xLTMzLjYgNjktMjcgMTMuNyAzNC43IDUuMiA2MS40IDIuNiA2Ny45IDE2IDE3LjcgMjUuOCAzMS41IDI1LjggNTguOSAwIDk2LjUtNTguOSAxMDQuMi0xMTQuOCAxMTAuNSA5LjIgNy45IDE3IDIyLjkgMTcgNDYuNCAwIDMzLjctLjMgNzUuNC0uMyA4My42IDAgNi41IDQuNiAxNC40IDE3LjMgMTIuMSAxMDAtMzMuMiAxNjcuOC0xMjguMSAxNjcuOC0yMzkgMC0xMzguNy0xMTIuNS0yNDQtMjUxLjItMjQ0em0tMTQ3LjYgMzQ0LjljLTEuMyAxLTEgMy4zLjcgNS4yIDEuNiAxLjYgMy45IDIuMyA1LjIgMSAxLjMtMSAxLTMuMy0uNy01LjItMS42LTEuNi0zLjktMi4zLTUuMi0xem0tMTAuOC04LjFjLS43IDEuMy4zIDIuOSAyLjMgMy45IDEuNiAxIDMuNi43IDQuMy0uNy43LTEuMy0uMy0yLjktMi4zLTMuOS0yLS42LTMuNi0uMy00LjMuN3ptMzIuNCAzNS42Yy0xLjYgMS4zLTEgNC4zIDEuMyA2LjIgMi4zIDIuMyA1LjIgMi42IDYuNSAxIDEuMy0xLjMuNy00LjMtMS4zLTYuMi0yLjItMi4zLTUuMi0yLjYtNi41LTF6bS0xMS40LTE0LjdjLTEuNiAxLTEuNiAzLjYgMCA1LjlzNC4zIDMuMyA1LjYgMi4zYzEuNi0xLjMgMS42LTMuOSAwLTYuMi0xLjQtMi4zLTQtMy4zLTUuNi0yeiIvPjwvc3ZnPg==" vertex="1" parent="1">
          <mxGeometry x="240" y="360" width="77.5" height="80" as="geometry" />
        </mxCell>
        <mxCell id="ugSwHuxISsAq8XEXFErL-34" value="" style="shape=image;verticalLabelPosition=bottom;verticalAlign=top;imageAspect=0;aspect=fixed;image=data:image/svg+xml,PHN2ZyB4bWxucz0iaHR0cDovL3d3dy53My5vcmcvMjAwMC9zdmciIHZpZXdCb3g9IjAgMCA3MiA3MiI+PHBhdGggZmlsbD0iIzkyZDNmNSIgZD0ibTE3LjEzNDcgNTguODk4OXMtMi0xMy41IDEwLTEzLjVjMy4xOTE4IDIuMTI3OSA1LjkyNjQgMy41OTg0IDkgMy41OTIyaC0uMTI0N2MzLjA3MzYuMDA2MiA1LjQwODEtMi4xNjQzIDguNi00LjI5MjIgMTUuNTcwNSAwIDEwLjggMTQuMiAxMC44IDE0LjIiLz48cGF0aCBmaWxsPSIjNjFiMmU0IiBkPSJtNDkuMjk3IDU4Ljg2MXYtMTIuODc1bC00LjQ5MS0uNzg0djcuMjQ1aC0xNy44NzdsLjAwMi03LjI0NS00LjY2Ni43ODR2MTIuODc1eiIvPjxwYXRoIGZpbGw9IiNkMGNmY2UiIGQ9Im02Ny4wODcgNDMuNDIzLTYuOTUgMTYuMzQ5aC0yNC45OWw2Ljk1LTE2LjM0OXoiLz48cGF0aCBmaWxsPSIjOWI5YjlhIiBkPSJtNjcuMzAzIDQzLjQyMy02Ljk1IDE2LjM0OWgtLjIyLTguNzdsNi45NS0xNi4zNDloOC43N3oiLz48cGF0aCBmaWxsPSIjZjRhYTQxIiBkPSJtNDkuMTYzMSAzMy43ODgzYy0yLjExMzEgNS4yODQ3LTcuNDE5MiA4LjcwMjQtMTMuNjMxMSA4LjcwMjQtNS4zNTUxIDAtMTEuMzEtMy4zMDc1LTEzLjQyMzMtOC41OTIybC0uMDc0Mi0uMTgxM2MtLjY3LTEuNjU3Ni0uNTYyMi0zLjY4NjUtLjU2MjItNS41ODM1bDIuMTUzOC0xOC43NjM3IDYuMDA3NiA1Ljg0MjlhMTQuMzU0NSAxNC4zNTQ1IDAgMCAxIDUuNTg2LTEuMTIzOWguNjI0NmExNC4zNTQ1IDE0LjM1NDUgMCAwIDEgNS41ODYgMS4xMjM5bDYuNTk1MS02LjQyMjkgMi4xODYzIDE5LjYzNjRhMTQuMjY3MiAxNC4yNjcyIDAgMCAxIC0xLjA0IDUuMzY1NyIvPjxwYXRoIGZpbGw9IiNlMjcwMjIiIGQ9Im0zNS41MzIgNDIuNDkwN2M2LjIzMTIuMTk4NSAxMS45NTUzLTMuMzk4MSAxNC4wNjg0LTguNjgyOGwuMDY1MS0uMTMzOWMuNjctMS42NTc2LjU2MjYtMy45OTc2LjU2MjYtNS44OTQ2bC0yLjIwMjctMTguOTg5NCIvPjxwYXRoIGZpbGw9IiNiMzk5YzgiIGQ9Im0yMi42NTIgMTcuNy0uNDg3IDQuNzI4IDI3LjEzMi0xLjY0MS0uMjgzLTIuNDU0eiIvPjxwYXRoIGZpbGw9IiNiMzk5YzgiIGQ9Im01MC44OTcyIDE5LjZhMiAyIDAgMSAxIC0yLTIgMi4wMDA3IDIuMDAwNyAwIDAgMSAyIDIiLz48cGF0aCBmaWxsPSIjZmZmIiBkPSJtNDcuMDcyMyAyNC45NzQ4cy04LjE2NzggMy40MDc1LTcuNzgzNyAzLjg0YzcuODE1NCA3LjAxNTkgOC40Mjg2LTIuODYyNyA3Ljc4MzctMy44NHoiLz48cGF0aCBmaWxsPSIjZmZmIiBkPSJtMjQuNjI4MSAyNC45NzQ4czcuNTU2OSA0LjAxIDcuNzgzNyAzLjg0Yy03LjU0NDUgNy4zODM5LTguNTQ1NS0yLjIzNjktNy43ODM3LTMuODR6Ii8+PHBhdGggZmlsbD0iI2ZmZiIgZD0ibTUzLjcyMTYgNTEuNzM3NmEzLjQyIDMuNDIgMCAwIDEgLTIuODQ4OSAyYy0xLjEwMzUgMC0xLjYyLS44OTU1LTEuMTUxMS0yYTMuNDIxMiAzLjQyMTIgMCAwIDEgMi44NDktMmMxLjEwMzUgMCAxLjYxOTQuODk2NSAxLjE1MSAyIi8+PGcgc3Ryb2tlLWxpbmVqb2luPSJyb3VuZCIgc3Ryb2tlLWxpbmVjYXA9InJvdW5kIiBzdHJva2U9IiMwMDAiIGZpbGw9Im5vbmUiPjxwYXRoIHN0cm9rZS13aWR0aD0iMiIgZD0ibTM2Ljg3MjMgNDguMzk4NmE2Ljg0NzIgNi44NDcyIDAgMCAxIC0xLjA2NjUuMDgxMWguMTI1Yy0zLjA3MzYuMDA2My01LjgwODEtMS40NjQyLTktMy41OTIxLTEyIDAtMTAgMTMtMTAgMTMiLz48cGF0aCBzdHJva2Utd2lkdGg9IjIiIGQ9Im0zNS40NjcgNTIuMTMzaC04LjUzOGwuMDAyLTcuMjQ1Ii8+PHBhdGggc3Ryb2tlLXdpZHRoPSIyIiBkPSJtMjIuMjY0OSA0NS43NTY5djEyLjEwOTciLz48cGF0aCBzdHJva2Utd2lkdGg9IjIiIGQ9Im0zNS4xNDcgNTkuNzcyaDI0Ljk5bDYuOTUtMTYuMzQ5aC0yNC45OXoiLz48cGF0aCBzdHJva2Utd2lkdGg9IjIiIGQ9Im0yNC4xNzY3IDU5Ljc3MjVoMTAuOTciLz48cGF0aCBzdHJva2Utd2lkdGg9IjEuOCIgZD0ibTM4LjI5MzYgMzUuNTg5LTIuNDQzNC0zLjAxNDMiLz48cGF0aCBzdHJva2Utd2lkdGg9IjEuOCIgZD0ibTMzLjQwNjggMzUuNTg5IDIuNDQzNC0zLjAxNDMiLz48cGF0aCBzdHJva2Utd2lkdGg9IjEuOCIgZD0ibTMzLjQwNjggMzIuNTc0N2g0Ljg4NjgiLz48cGF0aCBzdHJva2Utd2lkdGg9IjIiIGQ9Im00OS43NjY3IDIzLjg2OS40Mzg3IDQuMTg0NGExMy42NjQgMTMuNjY0IDAgMCAxIC0xLjAxNzEgNS4xODkiLz48cGF0aCBzdHJva2Utd2lkdGg9IjIiIGQ9Im0yMi41MTIxIDMzLjI0MjNhMTMuNjYzNSAxMy42NjM1IDAgMCAxIC0xLjAxNzEtNS4xODg5bDIuMTM4LTE4Ljk5IDYuNDQ5MiA2LjIxMDlhMTQuMTc1IDE0LjE3NSAwIDAgMSA1LjQ2MjYtMS4wODY4aC42MTA4YTE0LjE4MjUgMTQuMTgyNSAwIDAgMSA1LjQ2MzIgMS4wODY4bDYuNDQ4NS02LjIxMDkuNjY1NSA2LjM5OSIvPjxwYXRoIHN0cm9rZS13aWR0aD0iMS44IiBkPSJtMjguMTExOSAzOS43MjE5YTE0LjEyMDcgMTQuMTIwNyAwIDAgMCA3LjQzMjkgMi4wOTY5aC42MTA4YTE0LjExOTEgMTQuMTE5MSAwIDAgMCA3LjQzMjktMi4wOTY5Ii8+PC9nPjxlbGxpcHNlIHJ5PSIxLjIwNTciIHJ4PSIxLjIyMTciIGN5PSIyNy43NTIiIGN4PSIyOC41MTk5Ii8+PGVsbGlwc2Ugcnk9IjEuMjA1NyIgcng9IjEuMjIxNyIgY3k9IjI3Ljc1MiIgY3g9IjQzLjE4MDUiLz48cGF0aCBzdHJva2Utd2lkdGg9IjEuNiIgc3Ryb2tlLWxpbmVqb2luPSJyb3VuZCIgc3Ryb2tlLWxpbmVjYXA9InJvdW5kIiBzdHJva2U9IiMwMDAiIGZpbGw9Im5vbmUiIGQ9Im00Ny4wNzIzIDI0Ljk0NzRzLTguMTY3OCAzLjQwNzUtNy43ODM3IDMuODRjNy44MTU0IDcuMDE1OSA4LjQyODYtMi44NjI3IDcuNzgzNy0zLjg0eiIvPjxwYXRoIHN0cm9rZS13aWR0aD0iMS42IiBzdHJva2UtbGluZWpvaW49InJvdW5kIiBzdHJva2UtbGluZWNhcD0icm91bmQiIHN0cm9rZT0iIzAwMCIgZmlsbD0ibm9uZSIgZD0ibTUwLjkyMTYgMzcuMTk0Ny01LjQ5NzctMy4wMTQzIi8+PHBhdGggc3Ryb2tlLXdpZHRoPSIxLjYiIHN0cm9rZS1saW5lam9pbj0icm91bmQiIHN0cm9rZS1saW5lY2FwPSJyb3VuZCIgc3Ryb2tlPSIjMDAwIiBmaWxsPSJub25lIiBkPSJtNDguNjc4MiAzOS44MDg5LTUuNDk3Ny0zLjAxNDIiLz48cGF0aCBzdHJva2Utd2lkdGg9IjEuNiIgc3Ryb2tlLWxpbmVqb2luPSJyb3VuZCIgc3Ryb2tlLWxpbmVjYXA9InJvdW5kIiBzdHJva2U9IiMwMDAiIGZpbGw9Im5vbmUiIGQ9Im0yNC42MjgxIDI0Ljk0NzRzNy41NTY5IDQuMDEgNy43ODM3IDMuODRjLTcuNTQ0NSA3LjM4MzgtOC41NDU1LTIuMjM2OS03Ljc4MzctMy44NHoiLz48cGF0aCBzdHJva2Utd2lkdGg9IjEuNiIgc3Ryb2tlLWxpbmVqb2luPSJyb3VuZCIgc3Ryb2tlLWxpbmVjYXA9InJvdW5kIiBzdHJva2U9IiMwMDAiIGZpbGw9Im5vbmUiIGQ9Im0yMC43Nzg4IDM3LjE5NDcgNS40OTc3LTMuMDE0MyIvPjxwYXRoIHN0cm9rZS13aWR0aD0iMS42IiBzdHJva2UtbGluZWpvaW49InJvdW5kIiBzdHJva2UtbGluZWNhcD0icm91bmQiIHN0cm9rZT0iIzAwMCIgZmlsbD0ibm9uZSIgZD0ibTIzLjAyMjIgMzkuODA4OSA1LjQ5NzctMy4wMTQyIi8+PHBhdGggc3Ryb2tlLXdpZHRoPSIxLjYiIHN0cm9rZS1saW5lam9pbj0icm91bmQiIHN0cm9rZS1saW5lY2FwPSJyb3VuZCIgc3Ryb2tlPSIjMDAwIiBmaWxsPSJub25lIiBkPSJtNDYuOTk4IDE4LjI4NC0yNC4zNDYtLjU4NC0uNDg3IDQuNzI4IDI0Ljg0LTEuNTAyIi8+PHBhdGggc3Ryb2tlLXdpZHRoPSIxLjYiIHN0cm9rZS1saW5lam9pbj0icm91bmQiIHN0cm9rZS1saW5lY2FwPSJyb3VuZCIgc3Ryb2tlPSIjMDAwIiBmaWxsPSJub25lIiBkPSJtNTAuNDk3MiAxOS42YTIgMiAwIDEgMSAtMi0yIDIuMDAwNyAyLjAwMDcgMCAwIDEgMiAyIi8+PC9zdmc+" vertex="1" parent="1">
          <mxGeometry x="242.75" y="530" width="72" height="72" as="geometry" />
        </mxCell>
        <mxCell id="ugSwHuxISsAq8XEXFErL-35" value="" style="shape=image;verticalLabelPosition=bottom;verticalAlign=top;imageAspect=0;aspect=fixed;image=data:image/png,iVBORw0KGgoAAAANSUhEUgAABNoAAADyCAYAAACbO6gCAAAACXBIWXMAACxLAAAsSwGlPZapAAAAAXNSR0IArs4c6QAAAARnQU1BAACxjwv8YQUAAGJrSURBVHgB7d1dbBznmS/4/1vVkj8yi7QyVwMcHBdNyo4HOBHlxFnMxRk1nbGPnAOMaAdzk7Gklg4ysDPAEeW7iRGr6SDOnUUdYBGfPYDUkozBudjY8lxMlDgRW5kBBoizJjV74bFEme29X4vGbmJb6qp33+etbn6JpMjuqrc++v9LmqQpfvQXq6v+9TzPCxARERERERERERERERERERERERHlgcIQ0gcPBuZdDaF3wPxXYO6FYNU/L0GbC3ANvr6kLl9ugYiIiIiIiIiI6B6GJmjTtVoVux88Aa1r5lbXtv+NErqpS/CjaRO6tUFERERERERERLSB0gdtqwK2KXNrqxiEVk0GbkREREREREREtJFSB236qW+PQ+m3zYcBEqUa6pf/OA0iIiIiIiIiIqKu0gZt+un/fBQ6mhm4im1z8/D0s6xuIyIiIiIiIiIiUcqgzYZsiJpIX9uEbRMM24iIiIiIiIiIqHRBmz54sIZIzcIdhm1ERERERERERFSuoM2EbEE3ZAvgVhu3P9uvWq0lEBERERERERHRUKqgTDqqAc95yCYC7H7glHl/EpRLeq5aRejXEOmaeY58GVoHK/8IE5Cqj+GpFvxwXu1faoOIiIiIiIiIaIdKU9HWrWZbRJYiPaF+dbkFyg39u+oktDphnuq1HXxXC8prqm/8P+dBRERERERERLRNHspCqtmy5qlzoFzQv/3jun7vK4vQ3ts7C9mE+Xqtm/L9+nd/fBRERERERERERNtQioo2XZusYvcXt5AHrGrLlP6XaoCKBJ47Dde2oNCEH02zpZSIiIiIiIiItlKOirZdn08iL5Q6BcqEfq9aQ8WbSzRksz8YdXS8Wf3b6jiIiIiIiIiIiDZRjoq2v3imaSLD/LT43f5sz3ZXILWz5UJ1yHw4Yh6OL9tPquhj82Yenp5Xly+3UQJ6rhr0Pk6jMkz/rnoU2msibSqqq28scXYbEREREREREd2lHEHbU8/MmVuSn2ojFU2qX/zina2+xARsNROwnTLXu4YtvxAtKN1Uv7xciHBnzeqeSu8zd0YAbLgSrAki9Ty0umbur0vqiaUW+qR/98eT0PptOBNNDHJ9iYiIiIiIiKicyhG0Pf2MRp4onFS/+PnMZv+sn/72KfO2gZ1py/fkMXCz4dod76gJ1iYHaNtsm1BxRn3zkzM7+aZ4Jpu0i6IKd5ZQifZzZhsRERERERERrVb4oM22XkZqEXmicUa9+/OpDf+pv5BttTZUNHWvijkXbMDW8U6YD+W2JhV0tU2INbHdEMuuLLpxxVza2t2wbVstwkRERERERERUfuVYDCFvPP3ljT6dQMgmAmjvkn7q2+dsyJgR/dvqCROyScjVQLLVZIH8XDtzbTvXIZuQDfb33vamQERERERERETUVfygLfRctgz2LQ7FBg7ZVihdR6Rm9dMHnS4CIVVs+r09s1CetMamd99rb2arVT5ty6jKOOjycMJW9RERERERERERoQxBmx/lr3UvUp9u8LlZJC8wiVszrpRLnw23OjIPre85bDtRNUHa5gsc+H4N2VWz9VRZ1UZEREREREREPWwdTYPSa8I//dTBOlINhXRDP/3MaaRIv1etdRcdCOBOoH/3xxtX7CntJFy8J1a1EREREREREVFX4YM2dflyG3mj9Ny6T7ho75zSf3GwhhTE89I8qchzHyjpqH7Xp+KW0gD5UMUdfxJERERERERENPTKUtHWRp4oda33oZ3NplCDC17yv8cuOKC9JjKjandVjEWO7s/t8vQBEBEREREREdHQK0nQpq8iP+bXVNl1VAPuLCJB+r2vnOouepCtO+uq1zyVr2BL5yz4IyIiIiIiIqJMlCNoi9BEbuh31vynB3ehkIfEAkcbsgEN5IK/dvVRpQLkS8A5bURERERERERUiqBN/epyCxr5WH3UWwn90l8EYRWlm0nNq4tnsuUlZDO0DtZ9IkD+MGgjIiIiIiIiGnLlWXVU6TPI2l1hl5NFEEQbCtNIgF1oINOZbBvw8dDaT6j8hVp3GLQRERERERERDbvyBG2375dZYm1kaVXYpQ8erDlbBAG6kUQ1m/6XagBlVxfNF85AIyIiIiIiIqICKE3QplqXlhDpY8iMnl4TdkXqHFzQOKN+efk8BmRDtooN2fJYmbV+BlobebMrJ63LRERERERERJSZ8lS0oTurzQRecE3rlgm7Gsv/6W42Wxt3PmsgCb46DVfz5PqxduXR3IVaav9SG0REREREREQ01EoVtAkbeGm4nNfWho/lSjp98GAApU7BBU9PqFZr4NDJrjCq1CTyLPJqKx/jGnJFt0BEREREREREQ690QZtQ7/58ylFlW9uGXatbRjuqASeVYetaVfv9Ke9Va8jTCqObUbq2/LGO5pEnWuUs+CMiIiIiIiKiLJQyaBNxK2eKYZvWLdz+bP/qsEs//e1T5h51sdJoe3Wrar/sXDZ4bmbJDcpTB5Y/1riEPFFRvq4PEREREREREWWitEGbsGGUp0eQ5PB8jSUonFTvXl7Ttqmf/s9HZfVPuODpCSTB9xrI81y2tard6juoP5N5aHlp19Rt9cRSC0REREREREQ09EodtAmpOFO//PlIt7qtjX7ZgE03ceezEfWLn8+s+ScbskVNuGCuQyIto7+rTprA0EX1XXK0tzJHTuuBV1pNhHIUrhIRERERERFR7ikMme6KoEehVG1736Bb5l66itufz2y08IB+6pkT5t9n4IqnR5KZzfaVRRSnmq1nCZVoRO1fso+Dfm+PuQ0qQGakmu3WCIiIiIiIiIiIjAqGjHr3ctO8a9rVQe+ocfh6HBoPQUInpZZMsCatoR8jVPMIP2tttqqnrtWq2P2ArC46BVeSqmaTVUaLF7KJKm57cn834v/Ux8ydMousKO8kiIiIiIiIiIi6hq6iLQm2ik3CHmWCH5cSqGazCyBUvDnA8XVPztqqtt/uedsEpJNwTeGM+sYn7kJWIiIiIiIiIsq90lW02UqzXbsC+P44IrVkwikJZNoDB1S2gu3BE9B6ynnAFl+Dd5KoZusugFDUkE2srWrbpY+hg3G3LaR6Xn3jFkM2IiIiIiIiIlqjFBVtcbj2gAz2l8qm8S2CsHnIgggaLdseqjttE8gtrQ+wbFtpGFZtWBcq+XkH7M/NUqQn1K8utzCAbjXbIspAR/vVN5fm7Yf2dkkLqQqQOt1GxTwW+2XlUyIiIiIiIiKiFYUO2rKvMnOmu3LqYPRvv9Is3EqjmzOBlwnbei2kTsI2PW9CtmcZshERERERERHRRjwUlK062/3AnPmoUfKQTRZBaGFANogqT8gmZDGLc73/UH9mwq+OnrBhWBo0zrOSjYiIiIiIiIi2UsigTT/1bWnplIH+AYZBFJ7BoOLZbOWi1KT+3VfWhG3qiVv7zYfTSIyd8XdSffOTeq96joiIiIiIiIhoI4VrHY3np5mQrexVbCsGbhvVc9UqOl6KwaQJo5S6hEhdxa6wZT6xJKGU+b0BOuZ3aq8OpQ+k1tap9SVZFGF1EGYr+CRc7LuKTwI2dQaVaIYBGxERERERERFtR/GCtqefkWH+AYaF0k31i8vHMAD92z+WoOscErezMEr/tmquhzqVUuAmM9vuau2MAzfUzO81gZuq3fvH6FYc3OE8AzYiIiIiIiIi2olCBW366W+fsjPZhomKJtUvfvEOBqDf+4pUsyW8aqoJpOKFAXYURtnqutBrQOME0tEwgdv5zWap6feqNVsNGeEhaG+PuX9vAf6nQDhvwrU2wzUiIiIiIiIi6lfBgrYhq2YTtz/bo1qtvsMf/dvqOJRtG03StHrikwYGYMK/hnl3Culom2d2C340zcULiEpi9Mii+bsOkCZtth03Lwy8wjMREREREQ2vCgpCf+uZSQxbyAbMDxKyxbwpJGvgkE3IzzBhm3yYRtgWmAPmOjpe3fyOefPxVXiqhShsq28upbMqKRERERERERENvcIEbVCYxLCRgGhQCgeQnERCtp6Uw7aecXMfjEPrE1Aeur+vHf+Tbm8wL27Jzp7T5r1W1+BFLfXEUgtERERERK4FdXlbNUdtZn+2Y46H1JfXVXibfVb9sTmsayFEC+0mx6AQEWWsSEHbPgwbL5rFAGzbaFJVgApn1DeSC9mWf6wN2/Yc2N5CBYkJur892PifVdxUbcNd75QJ59rmv5rmuk6DiIiIiChtccAWwO9MmZPFRyFhmzlpvCElO67RCXtkN3q4idCfNoFbG0RElAkPRaGSHuZfAFH0MQahvYSqAHUbftRAWjr6WLyCaW4F5iLVd4t6rhqAiIiIiCgNErAF9SoqkSzwtWjCNVlArLrt71eqbr9v9PA583MCEBGRc8UJ2obPknr33cHmiXk6mbbRip5IczVO9WdLbUTqDPIvQMebZdhGRERERImLq9hGzAluWchssNEqErj50RWGbURE7hWidVQfPBggwnDReqCQzYRBVXQSaMeUllEXK3fujmbM9T26eTtnbvTCtv1pho+UQy5WvdwW3cLCxQkQERElZeyw9B5ecTbKQ2MRNy88DFqxty5v90ObcGwnFWxbUSa0q0TvY+93n8SNv+eCYEREjhRnRlueaZgXLhOMKXxsPm53P9d9r6rwdDU+QFf7zOeDbbXBKjQxiE4SrbbSMqpn4ICEVvq31Wlz9u0c8i/AbbuaawM0HPbWx82Ob4BcMAdB0lLCYcdERETlIJVsd2wollzItmIPdOUKwzYiIncYtPXFBFBavQOtL6Hz+bxqtXZ0wKtrtSoq94/DQ90cNEt7Z7DuS9rql5fPYxAyn01hMEo3nFSz9X7dN5ea+r09p81HSe9gJM/DCT1XnWFV25CI7CBi5EYlrJu3TkJwIiIiStFKu2gaIVtPHLYF9ce5SAIRUfoYtG2XhgQq5yVcU7+63MIAusFcq3uBfurb4+atBG4j5rKIO58NFrLZX6L3YaCkTbfVN5YGvx47JbPavAFnUrhRxR1fFptogoaAl8y8w+QcAoM2IiKi4vM7ssN+ypzQC5CuPahEb5n3j4OIiFLFoG07lG7i9ucnd1q5tu0f/+4/Shl30qXcg7WOKt1AFuysNq8IQZuhh28l3GE0Vq+ZBDhArrB9lIiIqPBGD8vbOpTMKXZiP8aONLBwoQEiIkpNMVYd/fz+bA4mpYpN62PqF5ePpRWypUH/tjo+WPulzGbDO8hA3IqpWygCrQNQ+elOHXlUiaZAREREBaaUubwCt07Yk3VERJSaQgRtqnXJfchlW0XVhHr3chNFowac76BUK9PZY6HOJOTbMQ8PgYZA7tpGu3ROrxcRERHd01jd7HN7tQxWNK/yZB0RUbqKUdEWa8MlrZ/ttnQWTzhg22gUnUGWNC6hEAqwaAMNZvT5yQx2gLdJ1exqqERERFQ8uqPMxVXL6PpfzpN1REQpKk7QFsFh6KWnB13wIFPeIMNUdVt9cynTgFH9mV3ptA2i7E0iz3SU7+tHREREG5PVzJW3D5noznolIqJUFCdoU/gYbrTNvdJEoen+Wxq1ykfbZoSrIMqS7IAq7xDyTCOjM+FERETUt6AOdDwJurKrTPcjVrUREaWkOEGbdlThpHRLXb7cRpENNKMtaiIPdFSAtl3NFR/LzA+lWizfZ3ulrXXs+RqIiIioOCr2ku34B6VHQEREqShQRZtqwYUozHY+WSJUgL5k3za6rOK3kX8M2spMId/VbD3aY/soERER7RBnDRMRpaUwQZtdmECnHmwsqXffLeYCCGsF6IerMHM77oT5fxwifAoqp6AemD+IYgRYiu2jREREREREeVGkVUelfbSFdLUx1KIWcqK7IEK+KdUGlZMf1lAcVbaPEhERERER5UOxgjakPCBfD/nMrQjXkC9t5FnElVFLq2hVYmwfJSIiKo6OvbSRJY05EBFRKooVtHXua4K2pP+lGqA/S7mZz1YUfhEWbKAdi9tGaygSCQZllVQiIiLKv3YTqERtZDnv1/M+BhERpaJQQZtqXVpKtX1UDfNQUJ3D0Ei3kWcVMGgro2K1jfZUUelku3oZERER7YBGZvvfGm3caHI/logoJUVrHZX2zmmkJ8CwilS6bbn9iFSOz7TpebV/iauOlpFSJ1BI6hSIiIioKCRp+wdkIkcLoBERlVDhgjb1q8utFFcfreqDBwMU2f193jdelL85DV7URF4pxbOAZWTbRlHQyjA1zvZRIiKiguj4cmkii/bRUKVZuEBENPQqKCKlz6RWvaGVDBWfQUFJlZV+7yvYMY3cVY+pJ5Za5rbIjsD6x7oNrefhqSWE5nrL6p9euGQD2MoWg2U73YpF7Qfm+wPzPNoHJZ9TOw9WdHQeVD6VqI7iqqIS1lHg7RcREdHQkDltY0dumY/McQ3cVaVr1TS/uw0iIkpNMYO22/fPYNcXJ0xIknz1RoRDGL4D1dwuhKCe+KRh3jX03PIiD0sDtGy2N/qk+dlVE8KNI/Jq8PSBew/C120JAUHlo3HUbFeKbBi3X0RERMXUsc1FZ+BHR+OTv6m7xWo2IqL0FW9GG7qLItiqtjR+OGr6qaeKPlS8jR3J40IIa5lwrd29JF5eLz9TgjP1v37SUE/cmkAnGoGOjpn7pbXxN+iToPLZWx93tJObIhMSs32UiIioGOzqo51bUNFxpE+b/7/KajYiovQVMmizpKottVltlTqGSYRPQcvUn5lA75tLzZXQDee7YWTbXE6qbyxdApVP1JlCGcTto0RERFQEC2+aN96seZN2pdmrWLjIqnciIgcKG7TZqjakVFmkcFTXagWuCtHtnXw1NFce2kwcun1SN6HbfvXEJyPmwh2U0vIOoBwOgYiIiIpj4YK8bSC9sG3a/I4GiIjIieJWtBnq3ctNaLSQvCp2PXgaRRWpnS1s4EdcQZOG21i9Vvy20R7bPhqAiIiIiiO9sI0hGxGRY4UO2ixfH0ulhVTpuv6LgzUUkdrh/aEzWFacKE90p44yKfbqqURERMNJwraO1zCXh83+eRuD0Fg0Z98nGLIREblX+KBNXb7cNi8k6ZRZe+pcMVtI1Y4q1PK64iiRO6VpG+1h+ygREVERyQIJ7aYJyfQItC0oaGNn5AT6NELvcSy82QIRETlX/Io2Q/3q5zMptZAG2PXA2yiccAfBWf5XHCVK1ejzk+VpG102jrHnayAiIqJiunlRLk2oaMRWptmWUt26K3iz/20/f6ZbwbbHVrG1m+xYISLKSAVlcee+Z7H7izkg4QNmhZp++pnT6pc/T2fhhTTsMi+4nW1/NV+EadhNopS8mnnTAhERERWXXZXUvp63QEREhVCKijZhVyHV6lmkY0o//e1TKAi1f0nCs/b2vlht7+uIyiioV6G8srZZngARERERERE5VZqgTah3/3EeEVKqPNONIoVt0NtsCQ2xsxVKicrED6WarYBzGLelyvZRIiIiIiIit0oVtAk7rw06ncURbNj2zNuFWCAh0le39XVccZSGmSr5ogHaK2lbLBERERERUT6VLmgT6peXG+bdeaRjErsfmNMHDwbIMx/bq2jzo0UQDaOgHpithesgKqWTAJtQOAoiIiIiIiJyppRBm1C//Hkd6YVtASI1p58+mN+D2Mo2gzbgUxANIz+swSVZFUxWAXO7AAnbR4mIiIiIiBwqbdAmumHbJaSjan5DU1YkzWMrabwggm6BiDbmvNpLtew7ndoJgI1pn1VtREREREREjpQ6aLNu33cM6YVtYsq2kv7FwRryJlL3ntNW2ebqpERlEreN1uCSCuOATUVpbo82+L160q6uSkRERERERKmroORU65K0aT2rn36mad6nVdkRwFOz5nfM4PZn06rVyscCA17UMm+Ks1JqHxpz41WY//kdBJ42j4PQUbDhFyuvLe8ihbb52qU7v0e7sX+ei0EMI9s2quCMtI3efLNlP14w78eOyPPOVfhV7a6u2gQRERERERGlqhhB29RcFbf/6IQJUMbNwbE5OPWa+OnYjtqvpI1UP/XMkjm2PoH0SHXbpP6Lg8fUry63kDH1xFJLv7dnKb7PNlWIoEkCNf+PMF7R0b4IyjwPMK4k4ISu4s66L1abBSjavvXjd9j9JeC16/uWzH/Oe5DKPj3fUd61H+6db4HKTak0twMb/cLWmv+U9tF0t0Xrfr09ydAEUT/21scRYdycvPkyIj1uP6e6JzbutgStPzYnNsx7bx6e2bbeaG53Zmg2pOJzl8xeNbdRmRM1Wj9kP7/lbTQXpT42t7Ftvq6NDubRbvLETZKCurxdeWzs8y8aMQ/Ml7d4bOITG9CfwvMWEXkfF+I5SETZk24H325rHlq1rZFjqI2Po1Zva7R3zXztErc1RNTjsKSjT9+/ccrs9E5h/UZOhxN447EWdkg/fbBhbraLKq9cVLfp335lZqsDevXEJ7l8Dthg7UHUPB3V4KkD5kqOwyETvrXMAeW1yPcuMXgrGdmRqrhebTeasJVsPXaBAm8WLnW8PYUOAkaPLG55cJ0EW3l4YQTDbqxeg+5MmiBpH+ITG4NWX8rM0Hnz8y7hjveOeR62kSUJ1nxMmj8Kc9u8Qwk+r+bN/sq8DdZD72rmt7NoesFa77FR3gEk+9rPx2crY4dlf/CKs7EKGotme/swiLIgrwMVs31J9rVOrLzewWxnGLwRDa38Bm0vXK+bayeBWLDJV7Tw00cm0AeHYVsbnp5Qly+3kRH9XrW21QF9noI2Cdfu+1J0NIKaNFeqhvyQ6oUWfH3p9v/rvcN204IbO9Iwb921VG8W3owduQV37aNyRU5i4eIMiopBW7qWwzVPqh/Tfl6awMOcjHIZdvTCNRUedTefUbegVZOhzhZ64VolMicEdc3x7ExzMIxmLsLfPGDQRsNAXusQnkowWNuarXqL3kFYmeF2hkpj7IiyjWKhMs9wt2u8bcuf/hXwxf3SwZRBzhFpLLxpP8pf0PbCjZoJp06bB+/eZzH7rGqz3/qtZybh4Vy3JDhlqqF++Y/TyIh+b8+tzdpHsw7achyubWbJXM9LHaXOs9KtoFwENqvJgfbN88dw9/WYcdo+Kgf9Cxf7OjmRC2UI2lyFvFofw82LzW197cpBRw2uyf0tQUfHO5/aAYitWpAQB3dXxruktQnc/GkeaHWN1eVtLbPn3l26oejNCzs7YoiDwhHzHPsIadPqnHktOY60MGjLTvz3YF6foytI3zQWLjSQljy+VufldQD6EuCfwUKzhbwbO6KRuoLsl44erpvA5hzStpN9t574NWiPeX7LtsNp95fdhofe181+zS3kSgN4+CMFpeVxOwu3zN9N9GSviyk/q47KHLYXb5w2d8rstkI2ofy+D1jUr39+Cb7eD7hYdVM39NPPLOr/9J8OIQuROoOc+dGN8dqP/+1rM7u/pBc11ExBQjZRNX9BdV/r2deu71t8beFrR+2CDFQMMmvKZcgmequN3vV5x6uPysETVx+lHgnYxg7PmheI2cyCjvhvsQHfXIfRI8kuViTP9bEjp7pt4g1kenAFOatat9dl9PC5eNXjISQHBL3HRcvjkuFz7y7mekjoO3rko8Sfi0SUjby9DkBN2u2evPYO6+sAJavdlLe3zAnL5+B67rqSk0zhWfN8Rq4EbfNn5o2Y/a7X4ZaE09OrRwXlI2h74YMAX3xpzly/qR1+Z81+b59sS6enTZKuXdQ8BtDeJf3Ut8/pgwcDuBRFTeSEDdiu75uVoEp5diB9kQ/8AxNiNk1YOPfaja+danwwHoDyLersdBszGDnruno222rx592+KFYit7ef8sceeBw9nauQQwK3OORYTOTgQ84+5+bAap1e4CYHf8Nk9LCs9rzyuLg+4bFdcuDAwI2o+ORkkh+ZY8scvg7Ia++wn3ih5EjYVgnNa6t+Fc4pKSKaQpCTl0s5oVeJlPnb/zVc/91Lhd/ChTUdjNkHbd+7Pg7ly4YwQD88f6CdVQnb1C8v182946a1U8oYI7XoMnBTf7bUtuW5GVoTsBWnem27TIiqGrt9PcvALe/scG2H1q02up6sPuqUdnz7KVekotMeeOh8Bq4SvlTM9es34LAh4uG3uy0eeT+J00gsWMwzaYmTA16F2YI8LrHlwI0HwkSFsvpkUl4D/R458ZJGRTcNn4WL8nYmg+N9c1ivXjGX7Ocby1y2ipYRCKcy+Nu/hdD71vpPZhu0SchWgQzq73/HS6OOFz6oYUAmbGvA0/IkacMF54GboyBxnZIHbOutBG4LX+OLZt7EB3sBXNqsbXT53zNoH5WwhYaP7MjrAhx4yP6ABBw7rfhaDhGlNacg4mBx0YSD5as07bWJQuerenKn4gPhKzwQJioACcXzfDJpI72K7rHDp0E0iI6vzeW5eAEOp2RG3M+6cz4z0gC++JK8ZssxjuuOAW3+N7XRDN7sgjZp+azgbSRxdlP5idyhcXXbz0dsKKUdtXT1Arenn3nbBG41pEQ9sdQyt6sNR37ywXgwRAHberalVGa4/eiD8RooH3SnDpe2ahvtyaJ9VEfFCSIoGXuPnLA78sVq1W9sO2wrToi4CXW6VK2kUsVWwUThDng3E1e3nRu6dl+iIpGTLVIRXdzXgSmzjZljBS31zbaQdm6Zk/jpLZqzOZl7/zrGnkcmZC5baF6ro+gtuKW7Cyld2OgfswvalC+VbAGSUcOL/5bYzpytbrMLJTiZ3dYzacKZWbtowtMHj6ZS5RYpJ7dH2ie1r+eGMGBbL/B9PfuT6/vOsZ00D3LWNrrC7WIlGqzMGCZ28Ly0ExTSvcM2CdmKFyJupIG9h9Nf1Sxte49Ipe6UXT2xsAe8G5Iz9eb5ePgtLipDlDMSssnJluK/DozbVlKGbdSvhTfNfr7XMvt9GSyEaGev15zPaxv7a5lRp+B33M9/laKKUG06Gy+boO2F63Ug6TvCOzXIwgjrLc9u02o/tNN+58D89uaqttIakrI7kt7tNdUzeq4aICHSJipVXNI+ieK/2CVGVillO2nGRp+fzF3b6LKoBZfkfhh7vgYqP3nex4Ogi6yxaWvlSshWDlrVCxu2xa2ie8y+yznzolfiFij1rDkQfp8HwkQ5UZ6QLSb7aAzbaBChp81FRkbNwy1lQr6z5t0eONMwF19BmZBPeUfglobnPbdRy2hPNkGbSqV3tgrPfxtTc4luaNW7/ziv3r08gUhPOA7cem2liVW5qf1LS+bnpZJwv3bja6elTRQo1RnsJNl20p9c/xpnMGTDbbvkdtpGe+TrXM9T0B7bR8tOdtKVV/wKKUudxt7vrp0tGM9cbKJsJGwr2qweCdmAEVSkik3XUXbSSipz23ggTJQt+RuMomTGEOUJwzYahLSQynD+jgmBXI+nkdfHSnjW7MfACWkZ7Xgj5jjK/Vw2YBo3mluGme6Dthdu1JBWGKMxji++lModrX51ubUcuLltKRVBYlVuG1S1DUJmsb12fd+cOTgo3zDnFGioKan6YyupQ9Lmo7xDcGrbbaPdL3e8+qhi+2ipKXPQ4ZfoDL+IKm8vt+zZgw97cFVSdlZPMeaB9UI2CZ6k7WlYqOXbzOp9oqz4RZ7NeQ8M22gQdl5buGiOPF+Fc0qOuaZSbyGV/Y9KpMzfya/h/rV4DgsX7rnQZAYVbVEN6ZrC92+ktoNqAzdpKZUVSmWFCTiuRBmwys1WtSW0AulrH/6HSZnFhmHauU5GsNvcbz++Ps77zQU/lOottxvgbbeN9jhuH5X7g+2j5aWlhL5kBx92hc7wlA3byhYibqyR+5UuV4dsZT3Y3Up85t714GUiEmNHT5d+uxOvTF3ik0qUqoWL8lYKbFpwS5n/v2IuI0iLDdm0zE49lcFctkV0vO9s50uzaB0NkDatG/jbD1PdQbUz3N79+Rm7SulKlVsb7gTLVW6yYqkJ3bb7jeqJJRmMPW3up0vokyx4AOWlXa691G2pm9dAy/whXTLvmxtduv/WQtyP7rZMtj9VBT3HVUkdUHBbzbaTttEeto9Skkp78KGmTLDx9tCEOsrsIOe1mmHYQ7ZlasI8J18HEbkjVdtlWNF4e8YLN06A8qPja3N5zvkxBrDHhMQ/M89dhcQ1ugmWqgGZtIw2tprLtloFZRWZEOpvPwT+t0dTb8mSKjfEIQ/0U98eN28PmIs5iFXj8YtB6uR3Teqnnqmb8G9iO9+gnvikgT405sar9/2RPqf1QDOvJEBbMn8k8zrUH3uetxiF+DQyQWXYDSsbj823MQC5nv79GPckkFTRuPKUrDiZuwoy39dv//j6+MTLj8y7Hlg5HOIWM8eB0g7bRpe/zbaPunvBkPbRoC4vFkUIpom67I7VsKh2qxn2I08Ysq2jeNKCyK0ha9k2J5lGn7+Km2/2XSBBQ0paSMeev2U+Om7SqStwS/ZdXje//6RdDTUpMpctMvsgKjqLFGK8LWhoky/dPH9hu9+QQdCm3B3URWoG37t+Df/jEWchhiyegLiqyi46oP/iYA1K7TNPhJp5eEzok2LYk3KoJ/PYtAmGtN7BbZAE3QRqSqtWR+PjMML8oCHadjT2z8vzrLX6c3L9TZhXUxV9CBp52TGWyra3Gx+MT7i4X4aOH9bgeCu887bRHmkf9VyemTEH8R35W26BiPJqHGNHGli40EAeMGQjInJPFjcK6i2eHKUdk5Br9EgLkk0onIBTyvw+/Q6Co+a5m0Dt09hfmzehst2LygvgkrSMhuqlnXxLFhVtLit3zIEk5vC3H9ZdVLZtZFW12/Jqn7bqTUfVOIDTe8wD9xDiVlDzOV01aWl1+6GZbsfvTKClkcjstY10Q7Z7ripq2zcjfS1SXiv8A1rdwCsX/i4OsppyWQ7dPH0qBwcLwS5fy+qA26pGpB1wPfRf/g5v7rBttEfaR0ePtN0+H5UEey0QUZ6dMAdYze22KqQmDtn2MGQjInKuaueUAidBtFOhF6+SWYlcd3iZUMw7a959HbIS6kAa5vKRisNCdQRuaXMffmunQbf7oO3+XZfwxZ1zcEnaSF/8tz346VdnkAPdqjfR2s7X61rNhG732+BNtS63kYHNQrblYE17l8LPMZ+nYG0rq0O3H38wXs86cFMm9Hvt37429YOv/msunqOlELeN1uBUn22jy9/uuH1U2ttluDzPkBLlmRxgZX8yxu9IefBp52eRiYgI8YrUz7+z4znARNJCGtRvoeM9Z8K29+Gy/bq3cNDY4YnuAg39kZbRjmd+VpTFXLbpfk52ul8MYWbkrpY+N7zTaa5GmibVai1JwJZVyNZYHJc/xqD7n0s60md0qI7d/r3a8/Ij1yZe/uq/Tv3wsflcVa/txMuPzTd/8Oi1Ea1VahWB2+KpUzJbDpQM2zbqWN9toz0ZrD5aCesgopxTtcxXClbeK+aS75VQiYhKTRXyWJZyQMK2SrhocqMMjnftrPQpBH3uQthVRiMFP/o1nM9o1C0sXOjrPsti1VFzfcNsAg3p533xOldu2aHGyPxSqNWzYagmfvDItT0SrEk4VdRgbTMvPzrfkNuYwcosPdVdD0bDsopS+pRyO4egn9VG18ti9VE4XpWViPqU4QHW3rq0mjRAREQZysFJFyquuKLsjA2P3FLm/6+Yy8iOwzYbsmmpqHfffSZz2Tr+cfQpm6DtjcdayG4u0BS+f30OL3wQgLbth4/OX5KqNZSc3EYVZRe2KRMOsaotAbZt1PUqswO2jS7/GDieJ2l22qR9lIhyzvytxoGXW7I9jezqp0RElDlWtdEAOp424dFzGRzr7kEl+pmdSb9tjW5aZVecz6JltDHIfNxsgjahw2PmbTYVUbJqpvJn8b3r7ndYKfdkfptW6llk8/xkVVsSKlEdrg3cNtrjvH0UbB8lKogog22b32lw8QMiorzI6KQLlYOs/lnp3IKKjsG9/XZRj7Hnt/fVMpctwgh0dBZuafO/M7h54QIGkF3Q9sZjbXPPZTkTK7ArkhZ0bhul6+VH5ucRZTOzTSnFVr5B6QxWG01qOC3bR4loM7KSsssK1NHDdc5lIyLKGR1NgqhfC2+a55B31YZJztnRPrV7tpCO/bUUAqhMTvZJy2joDZwDJLPq6AuLAdTtcehuKaDSS+bBW8L9/988ZvZvXhUkq4C+cD2Il2nNiMxt+765Drt/f3LL60pD5wdfnZ/58fV9h2RFULg1/qMPxmvD0KqbCjnLp6MATiXUNrr845yvPlqz7WEDlEdT4ZnXbX0JnjInGfSn5nW8veZfNarwvIfM19TMa/14SSqcluI5JeqauV3tu26zUN4+ezZVQQb55qGCoGrORMv1aMGJArUo9U5Q9B5HrYL4v1mNR0RrxNt+rT427+fNZclsJ9YeA/Ze8+z2X+/rtq7liRw7N0DUr1Bp87yeRiX6c0ilmTvK5ERnzbuvm49vbfwlDXP5SMUZkToCt7QJ2b5ljokGzoX6C9qm5qr47EtH4UHSdLPDd6caz7jrfYF8bB67L74EvHi9HW/E/Ev46djdrVVvPDKFFz6sQqnszphq1HH7S+Pmdk0wbKPVolBN+745sHTM86IasptjWGxRZ8ocHMOpxNpGe6R91HN7gBu32zZAw8SEaybUVdGlHVRkxmc/9353HFHF/K3ZasiCzfgzgSL0mW3e5pWvkTDarmasTmUa3mhf9pdaSNvYEdkGBcif+CBZmRMcUfQxws482v+zvelXyyDlXkApwamExfFBM2dTEg0POb47Y/ev+ulAkEpiP5y0VcX5CN2qdlGEpLopaPhIC2lw9BY63nfMMcD7cPmaqEyAXQnfwtjhie4CDWtJy2jHM18TZTGXbTqpwoOdBW0SsN3+oxP4Qk+ZkG27D0Zg7k1ziSZN6Calf2bHKJyOW0e73ni0bsI2ZBy2jePzB2U2VgNEXVJV9tr1fW24PthQdhlk6ovn9r6TKoqbCe/oyI7T2BFzgsJpBY0EJg3QcJB2gdBr9H3G7sbfy/OzHodPUSM++Mg5rZrmDG7/O1Dx9zXtZexIA+4H88aUlpOc6c5WkcdVm/BdIS/iikulz+/4wLLdjL8/DiflcqY7H6ZmzqrXixkWE9G2xJWuDdy8MNgJ0fi1smkveXnd0568FrRA1C8J28YOL0LCJajTcEqOdU2mtPe7M2afcuXTdpXRSJm/3V/D+WuzOYm3cDGx0VHbL/t48cNJfPGlRdtq2f+NDmz1mPIX75qNJmFb5hsLzcGSdBcN/Q4cU/loUSqesXrNfaVJwm2jK1w/78a5ZPwQsAcd0YQ56JhKoizehk83L9TNvkF2Cxzd21J8m88fS6w9euFCw55tzWaF6mrqf6v5WQBBnlPT9r6+efFYgrMw4xMaoQnaOt5++/zNaLVxIkrNtPkb3z9wyLbe6te9LLcb8UgDosHEFWVn4lEaTkkL5CuQ44/evLY/+Zs4ZJMTmVnMZev4x5Gg7QVtL94wCaeSpd2TSxUlsHvx+iJe+CBY/tx9u2Slx3lkpw2iu+gsnpPVxgfjAWhndKcO1xJvG+3qeE0459VAZTZvDzrSaDW5ebFpA4u8hW1yENRJ6TbLwVboTWRzoOXVkBap1sjDAggaMzZgk1AziVB4I1LtZh9Hv2kfS3tWn4gKTbbJSrb7KW47hLzuxduNrI5dx50ujkPl1fG0CZmey2B/Zg+iylvmYKpqm2oe+Ky30EcWLaONpGdVbx20Savo96/P2bK+dJidOX8W37seV+/MjCxBhyZs22AgsRN6BkTrRMpvIwMP+mxl2bkM2kbTmo9hN/bOzy5ltzANpW3e7EhNpHrQIc9Z1ZlAXsjfZ2hvcxtpySxs0+lt66SaLUtyVjmuujyZ6vN1tV7g1vGkUvFhVrcRFda83SbfaLoJv+LtRnZhmx+xqo0GJy2klc4tqCjdsRQbiee1ncLoTfPS74+YY7nX4Za241RuXriAhG0etNl5bF+atbPL0hWggpWwTWa36QweZEQn18yNG2LBrA7GfqPfHr2qZ+RjUCa+CBm07cjo85Mlahvt/fyrcKvK9tESiqu6nnUSWtjZbfok8iDtkK3HBoyu91tUivtmXoYHbnrWPG6PZzbgO57ntmgrP3V34Q8iKoreCaU2XJLX1uzCtvyc3KJik5EK2ruazWufOgGlJzIZWyEn9+TEXgo2D9q++KNzDkK2nqoN23ptpG881nL6IGs9jZ9+ldVsXRUPdfNuUimc8H3Mjv6zzv+QayLYVZDd8lS626ks2kfj4bpUJqHjA4+FizMZVGOuo0+6vc1vthzvnFZti2fSRg/XM5vNJq2iCxefdFbFtpm4um3J3A/SzcFWUqIicHlCaSNx2Pas82rYfMzSpLIIlTb7jPK6Nwe3lDmougLlHYFbcnu/hZRsHLTZhQq064Otqm0jlUo6cf+uhpsWUnUJbzzaAC3rRJjRtnXDPusDFaE5dlXPBrN6xLzHsPHDiAsT5J3MqFDeIbgkO1NptyZk0T4qq2jFK/JRGUj44/rsfvyLswsobEv3Rfcnz2QVV5cz6vxoH5KW3Sp602mdUe7bgu0iaYBhG1H+uT6htJEsqps1kn8doOElLaTQt0xo/B3kd4GrpEioMZ3mduPuoE2qyuKVRbMQ4PMH43lwdl5blPLOjQnydCdfO3ZJkVbcFz98264Wu0PtCbVkwrW1q24o1Co+3jcfnRz9jVYmdMPQUNmsABp+nunCIMXih/I8d91q62hV0AzaR4EaqPjiGWXZVGvb1r/MqtoayIJUNGikszjKRpQeQZJshZyqwb1pO7Q8jxi2ERXBdOYhW4/r1z5WtFHS7Ly2cDHTE6ZOqEvmNT7V23h30CZVZVlS6sRyVdsbjzVTrWqTWXBlnMsmYWkFb5s7cxKR7isRW5hQLfOdzXWfrpoNugwoPGsuI8MQtv34+n+Q56T7eTUa843982U/k5AcBbfVbMJz1NaZSfuof9QcdIOKTrUyPvhwFEavIuHizQvuwq71VHQJrphzXkhSJcygbVy9nduQrYdhG1F+xS2jTeSK44AijTECNNwWLsrbM9mPAUmJdO511EtI2dqg7YXrdSDzZLy6XNUmQp3OzBNlQiSZBVcmL3wgl5FuWBrYzyl9DX0KI0i13631n1dA3fdxxXw4DK2kdWTwN6G1dl3FVFxxFYbbA0QXbaM9mbSP6iwqBClpoco2GOj4TbjXQJbiWW1tOKG+jKTYYF25bRvV+Mjs6B5HEdiwTQ6eS3rQQVRcjdxUs/W4rmqrdAIQJa3jabMf91wJV+HWdhFMB9uNlaBNQprsZnOsJVVtcn3Eg/c1kXiPsF5EFJbrzGR8f0nIJgFYEH9Szw9SsSctpAjx6kb/JrPbKr7ZSQZOjv1TOcM2qWZT8E4gA3d0Ru1eReSHNbjnuFIng/ZRP4vqFkqOzrqaDd2h1G5b4EMvDycp3GwfVBQgOYG5uByTEA8gznrhg50o70EHUXHlY5u/EXf7iUlXNxMJ20LaueV+VfVUxXPZbr7p5O9zdUVbgPzM5VmZESSz2pLfUZ8uVcvohiEbJLAc+H5bmFAz5inZ2vQL4lbSxt6SzW37yQf2eKMOuJ/PprWabjw23wbdm1RhZHGCwHPcppBFW4Tcr2wfLTL3bZsb0XB5EDSfj8oG7SZcTPLgyu0Ji9QHEKdCDjp8c9AhZ8KJKHtaNXO7Hen47sYIEKVl4U3zd2bCbLerqqdHWkZTnsu22qqgzasjT5RaCTjCKMEDBr2Inz6a3fyWpG0WsokoTOZ2RveYS6JxCvHctj0lCttGFLxTcG/u5UfnG6DtCpwP73bZNtqTRftofL+yfbSwtNvn6KYcXg+3od7mPL94C9m4nHNpV4V1t6ObqJtvyv7pO2whJcoDnd8wKw4A3VTsKhWAKC2hkgp0ec2eQ7HFlfQOrQRtWQx834ryVpYr9hLdUS9Py+hWIZssIpHQDLruwghbtjKaeK1e8ezctsKHba/d+BoiX0twGMCtudu/V0+Ctm8o2kZ7lPsQoRLWQcVkZ8TkgXbZGpjtYk49dwrWWiiVq1q5qt6WHYQGCk0WmSr7amxEBZDfttEuBvJUAlLNDX0LHe87cBUeJ09et0+6roCNg7Y4sKkhT6JVIcf99ycXtOmoHEPmtwzZIMFpCwkK46q2rf+4FMZ9H++jwCuSSshmNJTbv4db0i76g0euPc6VRnfAto0q9zP0vAzaOEU2q2odYvtoIeWnoiqsuLsunvcx8qBIc8digXn9DuBCvCrsBRSZtNLYEx88iCbKjp1Dmu9trVb5eE2iIsj3gbOd1xYuFvQkk7Zt5gsXnbe/9iraAuRZPKdtcPFKo20U3feuy9vNQzaRVNtol10YYRv92bJIQm9F0qKFbSZkM1ffnGnXykXLqNw5NmC7/Xv1MNtF+xLA9Qy9LNpGe9g+Sts3nDv3eaokK9LAfL/jbjuqUJLRHaxqI8qUVteQd0q3QVQWCxfl7ZnCnWSS/bFQvYoMdIO2SoC8S2KnNYyKP5gyDtn2bxmyyRy6hNpGV+tEmNHbeBxWhW2FaCNtzI3jx9f3Scj2uoOQTfbOZ8NQPfmDR659RQI2VrH1qRLV4V7GA+azaB+NpkDFMpyrIi4VsJIsH5Tnrm2045UjaLNVbbZtjc85oiwUIcTS3D5QyRRv9W0NFR3PatEUD8Pkv381H6uw9etvF+TtflSwRchmpXKW1Va1Rdv72RK29Wa2Icd+dGNcrqxcxysmZEszUFgO2F5+5NqTP3xsvgXq3966bDrLv9roepm0j+oDGHseVCBqCHfueUAzAL0PTthWrzbKQ84klmMlNqLCycuCP1tQfhtEZWJbSDu3THh1DPkXr3Ce4cziOGjzdA53UKNP1/ynGrB9SaOFIvu+rWSrd0O2re+LFOfQ3ZxQTXNfbm/VEYXxXT5eH/uNVsgZqWLrtopO7H5Qv5/iTDYGbOkYdzZTqCfLttGe7NpHa6Di0EPYrsIWnUE4ag/PoCI3VZFcWiAi91SFJ1eIsiAV3dq7up2RUpnSWMx6hfOKfbt7Vxtf3EHOtJc/kpBJD7ojqIu7g/f9G+aNnkIUnb7n18ocup+mPIcuwkvwt7e6m6xGat4tjV3VJxcO5CNvkyq28Pe2iu0VX+v0qtjMH3gYqeMbhWsS9Pl/ZP4AdWQeVvOoeXffN545Wu4oDz/cm/+Tds5FnSko5wW5eamIletRg1NezbxpgYhKyMmKo2Z3oCSLUfXIwcbYkV77KGdZErlUtNWdicokVOY1XU2jEv05pNsuf24h9L6FjMVHqvFiA/k6M6DXBDkJ7AQW9Kzjize6A/px75BNRGHqye3ChGrtsEJQwqyTYxnPa5OArTuLzVaxpdgqqnWkZm7/QT2+PmT70Yfd6xC3q04gvm/ksT0L2GrF3uVs998mXjNf/xNzsW2uZA5s6uaNdwCuZd022tPxm3BN2nTZPkpUPvGqwm5Coo7DFWidkf2aArSwEZUNZ3ISZUdaSKFvoeN9B/mbVRovVpSDURWVlQ9NeAI9ibxQemU1Ga0DO/VrEPd/Xqwdoak54IsvdQf0b7PqykU1W4/MavN3UFWjzO0A5oNZPduecFfZJpVj930pMldXqSiuApIqthrSc8sEeMdf/ur8moU3XrvxNVkhSYUa8jf2X03QNy5VmtrcMZsVZsm/+Xo5nGyaywUTurXMLdF/t/f/whCrZdI2utDMxzZEdi7HDre6LZ1uxPd3DaxqIyqbAG7Ml/LAOJ6Mcc1sI2sgIiIaFhK2jR1ehJ0Nr7ZXEJQ+bV6Xm7h5IRdtrSuH+GGYo5J+c3bwjVWBURxODGIJM/uLs4P3wgey8xYP6McOWhsdVLP1SFWb3uGKI9q3VVqpL44g4dpy9VpcOSb34RUTWl1RabbcaSyacOzJHzy6ErL9+Po4Xour6Brm8omv9Fvd67CjCgJpwZXrbz78yFwmpcJNbudQ0p063MvbQirur4/28nMihoiSUXEVtOVxFnAClNkT4nxAItdYzUaUBwsX5e0Z9/OjNyHZRKheRU6sBG0P3tdEbuiV5d9lPptSA7aJFWgn6MUP5e0Ibj/4PrCjirHmmnDSAbXD1ba6K5G+NXY1nRZSCZ5+/G9fW92WeXb3g/ojsxd8WqU908qEbLcjWfBgfrnq6SfXvybvpG/9IxOcnkIy7TmB1t7bkNZSczsbHwxZ2DYq7YsZtI2G3gzyJIv2UcX2USLqk/baKCPbOcqDfiKn+DdHlB8dT5vjkuegM5+baA75o+N5Wt18JWiL57S1kAdar267kyQhwCC0KsYG2S56gGehfAnZgp18q8tqtp5OZNsZd3bfxu0VU0HC89p+IoFTHLCdlnCtW71Wh6PZM1qp5xqPzbd7/21bRc3tVNA7fyy38/vMbbNz5kwoO2Rh26TzttG45amNPLEtWM7PHsnfUg1ERDul9P+NMlK+XD4GERHRMJIW0krnlgm5jiE7EixMY+HNFnKksua/tAlrlF9DllbPGZMWykhPQeVjtcrUyO1UvtzIU+aDU9gpraddV7OJ9oSS1UTPmMdsZ9c5/nppfVtEcgITPM2aHx7AMa3V9MuPrlSydUO2hu7nsdyZYLevr9wO1ZONufHFxv6Sz2O2Q7s7GbQv6gsYO5LDjZD+B7gOvqR9NKi3TNAHIioBHQal38dKU8e+ba/bmyYiIhoesgr3qF2FW3KBE3Atbhl1XnR0L2vHsL/xWMukBk1kaW1lluwAHkWZvWCr2EYg89i07iOY0Yt449EGMtKJ0E9LXbXi4WySLaSRH9bgbqjzCo1FE7I1ev/52of/Qd41uq2iLtiwrVvNV3ZVKO8QnFOykEeUv4u9Xm5J+6irFQqJiIiIiCjf/uRv4nUrVUZt3UqOTdQIcubu9Q7v330SsnJiFlZXZkmVF7wGkqAyCGDuRVYVffGGPCUnuq2iNfQn0/RWqtpM2NTCTiXcQqoilcnBv8xl6338k7iFc9JhyNYT7H5An/3RhyVvIfVDqWZjyJOtKiqdIV2Fg4iIiIiIVjSABz4zOU4kx2muj4F79qAS/Qxjh3NVon930Caz2nT4HJy7qzJrJMFqtiAO7nJCqtjiVUVfh7IrSfYXHtg220fPI2tRn2Ff3EKaSHASas9536T5S26unssGW4HpZbO8sbIr806WdiVSaRtVyKCaje5mgmTbxktENOR22QtPABER0XAKFqW1bMTESu47bdaSBQhfz9PCbd6Gn41bSB1WSpmQTUfLlUF2UQDlX0Gyasja6io2u6qonkLfzH2WwQIIG1mYUC30t9R2teLj1N4EqtrC+zEPx8t9d0K1HHJKNZuuRHVk0b7a5SstIV9Zd/gDs1HIYD4b3U1JmssDS6JS0Fy9bxDxqqPcHhIR0fCRE+8VrVAJT+ejg1DJfLgagnxMHvM2/RepLnMTtt1CRz23tmVUahCTfrC8mg26svL96+ur2AIMJpMFEDalcQb9kbBxPwbUGJlf0lr3ex12TqP9w8fmW6s+E2TQMrpesPt/icpZ9RXP4KN8qJoX1DqIqPhUxU3QptW/RxnpjlwYtBER0ZBpmOMz3VvMMS/HnwraO2ve5WJ2ubflv66EbclNrV9DL6KDJ/E/Honb/uKQbaS/RQHuQZmEM4uzjtIm+v3r8iScwu0HPxqsiq1L4VwuWkZXi/qY09alPbw+lsSsNuVdgiMm1Htn9X9HOQmCdKTqjQ9K1j4at42We1GU4jnE9lGiEnA1uFjpci7YIyu2KhWAiIjKSbFqeUNBGwjtAgRZF5qspUyWVAnPYuwwsubd8yskbOvgcRuKJUeb/83adtFeyBYLUmgZ7aniiwen8L3rcEICthevx22iwPvm9ibU1mceh92/fwk5Y9tHdZ9hW7wwQg0DevmR+XkT17XgQKRXQj1pG1Xw3C9lvAEV348ByiUwt6wGyhH7eHDHg6jo7jgK2jT25aWVI1HaJG1aBSAiopJS3N9d79/9F6ASKfjRr5FLtsJuKuv9jnsHbULCsPt2P76quq3f8iP5vlvm3TG88ciTa1ofZS5bvMpogLQo29q3P9WFEdYGbFdsm6hGUiVG2oaTM/vzOlPlHfTLw6kkqtpUpPu/DjsQfo61ATGQmzKy3Soq1ywzto3mE9tHicrAUUWbPWFSvoMVpeXyNRAREQ2DP/0r4L47knXkZC7bhqTc/BVzGUGGthe0CVmN1LaShg8jjF7qVrhtJ3SLv0Yq2CKcxH2/f/iutsfeXLbkVhndXAVvQdpTkwzb7CIHH94dsCW+AIO53/M0l22dToQm+pVQVdvt+7wm0j9wWGrsn1/+HR0vzFWvpvbUPpSFbRtVuagWpLuwfZSo6NpNeS1zE7ZVOuWaa2C3f7Lbp0q63DcREXHBm9UawOcPmBc+XTf/kffjsz2oRD/D2GGFjGw/aOuRoOd//+qMCcseti2lEp7JzDCYIA2Yg7YB3Kz9nI5mTDB33IRrX7EVbP/9kTObVGMFqcxl21ivPXXCzk4bJHCT6rUX/k11Fzl4FqkFbICtJvypud9zrD2hlvpuH4Wd1TYZDFjVZhdFwJpqszSseQ57OdvJVjo/1XUJCJCjakFazbaPBiCiomsjfcouSlUmFXnj1cA2eiKi8lL6IVBM5rJFXhBXixWCLLj4OsaeRxYqGEQ8X22wUGPK5HKf327ArV7Y1jSXV/Hih21ZNkNKssxt2vy7XpAM8Y5NVrp1ejVIVcftB6USL70dLWUCzJ8+2kAxSOtmDX1Q8cD7BgY+ux6dd7lDr/IWNpRpaGclqoPyK358GiCi4tK4Zl43HJzQ0AfsvJR2vtZy6puO5Cz5JDI7V05ERA7wZIqQKm6ZywYtq3oGKAzpjNLvmP2Pluv9j8GCtiRIOaaLltGNf3fdBG5184EMtpeA6BpevD5vu11lJSkdf1HM/neAOET6c9idK13tpyhwh1dyEbv/8CQKQtpHK75d+KEf1YqHKQx44H5nl39p9x2d0OIT96aVeihn+9kBymBv3WSm0VEexOSYNuH42PMNLLwJIioo5aSiTX7Rge6ctrzOmd0+O9Ygkm3gX4KIiHauCAvJ2BEBETtr5NDcX5QjslMFXKBOQXsSDn4ddq0Ad9JOie7tizzM7FCT5o/onIkd3zf/Yfac8BFgP77S/fgj+3l15yPzUJ21AZ2TEMeEbPle/OAug7aPmmfkobFitI9S+sZzPGSThFo++UBERaUjV6+XypwNn0IZ9NpG+RpFRNQf6cDJ/6zfKoa+oq0Rt4yGdmEBV6O+kqUwgkp4FmOH4VL2QRuiGnJHBd2VQmtxaaRcXOuGbDle/GAL/a/8uXy/Dybl1UeDxgcr+bBSuTs7X/xqARF1ynFAVnpeDURUXGHF5Ymp/4rRIyi2htlXCc0Z8k4dRETUr/yHWBXOibYhG/Qe+NGvUWjqkHkzZUdYOJKDoI3uVuiQTbopWhiALIqAAWnPayFdwfJHkf4UeaJdtQGlaKxu3ngHQEVwIqsho0SUgHazDXcnaOSgKptxIUmxZ/b9AMoremJIRJStXTmvCtbRwMekhfanfwUTsClU9KkSVHCreBEHW5nnBIO23Cl2yCZuTCg5O973TrssijBo++jLj8wPdB3u5T6Ffb2PNfIVbCmtP0bxsSWnOOTAuQYiKi6NNKvAV4tnvDhu30jMn/xNfNDhdxogIqLBRGF+K8bsLE4M8Un/BvD5AzKkvg45qV4Oe1CJfmb2QZxMAGfQlivFD9lWaaF/yRy4q8Eq67YSIZpY+T26jRwxhwDFn0/Hlpxi0d5wn/EjKjql3b1uxCdRnLZvJKMBPHDbvDfbO1azEVGZOeuOyXX3SgAMceuoVG9HXhBXgZXKfnN53UU3Tg6CNtUGoWQhm2ygr2IQ3uBBm470NaTFU/sac/G21wv9FnIkilJvm03XqGz42DZaKMquPgoiKqiOfwnu9No3AhSJPejQe8yb10FERINTejK3+4/DXLks1XwVaRkNz5azw0hJhV4t7RN+OQjawhaGncYs7vvD46UJ2UQ0cFXVgWDA9tEI6Z2hV3HFnR3g+XePzbc10que2xFzBuqHj823UGyTbBstHLaPEhWZzGlzO99zj9mBP+eqfWNgywcdpZhTQ0S0NXfdOvncfxyTouVhPenfMCGjjsc8QNVQTgraO2ve7UGKsg/a4nCpheGkofU03njkSczsL8dKkV0dDBi0qZUgq1+VyE+1Fea+B1b17Ws9WAVfQpQq+N9SvMw32xCLSPtHC7BMOxFtRuE8nLI78K/nfl6bDIOWkM0edJRmTg0R0ea0cjjvWZ3KVVVbvC87pCdVGt0Ff+yCAadQZgojtmIvxX2QfMxoy0lI4dgtc8OfwxuPNlBC7QklweFA4WFlwL54qTRDilbPabuz25uBu1XbNvVFqKZRbFUo7xCoeKT8P+/LtBPRFqIWnLPtG1MYzenIMwnZvnjAnPm2K6WW+6CDiGiFw2Mae9KlhvwIzDa/jmEULJo3eg/86Ndw7xacU3LMmdrM2HwEbffvlpAigzs3E9q2iurwcfz0UZczUdxTg7WhaC+RyqY2UqKUWq5oa4zML2mtzyBD5nR7s5FyuJg6P2RYU1zV7uNHREW08GbLvPK24JbMa5OZZ0fjVp0c6YVsct0UzoGIaGg4XCDHUvlYjVpeh2Q22zBWs8lrnl1VO5zJ4PZrdLzHzVvXx9K9mbEjSEE+graZEZOaR6+i/EyYGL1kW0XLNI9tMwPOe1FI5I88vTMyCuOND1aK7mxVm8YisnGr8NVs8TLarGYrMlkUge2jREX2DtxT5n9NSMVYXsI22Y7dZshGREPK810HbTVIZdHe7yIzcWW1Cdm8oi2JnYAG8Ll9zatnsKq2DGU3x7C6jdCTY1nHzz2ZGRv9LI2ZsRXkxU+/OoMXr/+l+WgC5SNVbC0gPD4UAVuX1vhUDfKUVfGCCO2JAX6IVNXpVJdmDtCtmpOqth99MH7c9/UsXIvUq4WvZrP3pWJFVKHZHSWpSCzVzEmiodHxm2aHU1oks6gsbti3o0deRajMi7/jkXG9qyDzaXoz2RTbRVM1WkfphOaYMZPnLlGC7phjG+cpgZLt7VVzomMO7Sac2ntEZgLVMawjAuyq2l4AP3oFzqlLWDgfF4vs/a50OB6HrlyB2/2Q/bAzY58/iYU3kZT8BG1CmyBKeVfSKt/Lhl6EjiRga4F2qopBD9oj/SlU4gH1Mn9V0CZkxc8ffzg+rZR2tqHWkZp5+avzMyg6P6zZOkYqtkpYN2+L/3wkGkbt5hLGjkjrRlYHGw1IFRnUt8z1WMTCBbjRiA80/EVlQr7AvLKeLfFqa/mgzP6dxjGUi7YHjTzZREUnrwWjR9qOWwiriCpvmfdPmsBjMcnAY0tjR83Bhz5hbutpDKPeqtoaV5y3jEonWKheWv7vG39vHo/Dc+YfTPCmHD8eMjNWv4PgaCupkyX5Ctqk2ut7158z10pSzFSXW3XgFrT+by4WO5CqL3kgFyZyF1IMvKOxKw6yXJeQDuTlR+cbJmyDi7DN7NHNmpDtJIrOto2G7ku1ZQPvbglz97Q5aeF+zsIh83jOOD8bSUTJ6Hgz3aq2bNiVwKKPIOmXVLfJljpUKVUJNeLhzxXz6zpqj3k9OIGKuUBxVmj6zP0dnUW5mB3yqG3et0BUfLJYYQCXZJ/VjyQHOG5OtsymerJlrA5pCYJUMmlMYRjJXLbbulfBHcAtcxgbnUT7QnvNZxcuSthmTvjpQ45PeJmw0ZOTbF9HQmsH5CtoE//jkXkTtj1Z0LBNeoyXbMB2/x9mMLM/1TNaNmDzoDqR/cMIRn+jW2EI3c5P4Dbwjmrk27bPQgVtYlXYJiW46TwgWjXN7ynL2eAgk+oBFR2PB4CX1NjhqQzOCNXA9lGi4oorGZrmlauObDUAex3Me/UPGD28BOVrLDQxMHsG37zXCwqhX7XzJX0J2IZwADYR0YZkcRzl/iS4DXykww3T5rVIWgo1biYYuMn23+/IsVkNErJBpzliKMcawBdtmdg/brIL1yfX4rlsN9/ceC5sx5Pq4OPmxMX/CZd5kD3RF541x0/P2sBvQPlYDGE9CdtkVU5puyyGeCVR6Ofw00e+YqvYUg7ZRv9Znp+QFtsrFR8fwbfBpJwBHpEAriyUzvdOb/j55iGghG06NBuJ5BdI0Fqr6R+UJ2Trto06Jot1lDlkEzJvKQuVaDjPDBKVRTyQOPuwXA64ZKGEuMJNqp9qGDui7NBimakjFQnBvY4DG/GBlXytfM+o+d54BpvMBJ5BRX9kXg9OD+Uqc0REmwn9S8iWhD+y7a+bwC3e5u+toy/yGjBaR3fgvRw/nwNs5dyQhmyIxyWE5r6IorfgmhwbL1zYfBE/qWCvdMzxc/QcnFOyMN/Uvfct7i1/FW090kb6wgdPmizwFJRN0/PWF9mtXovO235ehzPYxn6jTf6EoyZgk0qV5aoxWaXTN4FbGNqBfpnvICuFL2NAWuEh5JXZSDT2z295P7/82HzzJx+Mt7QXJfE81uZxb0WhelVmwaEsbNtodALOqRbKzs5bOtxyXy2oD2DseTibr0FEyWo32xnPaluval5D62an21zs/k2re/lXs32bN9d1Cb1zjKr7ge6+3CppC/UCxNVq+xAfWJkd6cj8zHyebyYiylxm+5CrxCdAzpntu7wWyWvSVRO6zcfbefNGexsfWck/e5HM6lZ2VnfHHi/LgmtHzImWWl5rjZwZ+2vzJlTmyLJhXgcDuKXNybxv3fOr5Bhi9Ii0L58xj7HL40TzhFGvmItU2w1ULJPfoE3EK3QeM4HbVfMkkBscILvALd5z0zLPyQRrjsM10WsVNR++rqKNe8klbDMB3KnRWX3yZtYtpFp2jJEprdRD6V0FNb2dr/q7eDXQYyZwm14VuNkfsI1v19035QvYVgTI4oySCtMY+JNH8kJRg1OyU6bNhXNqiAorntX2X5G/MR5Vu0K1loOmaPWebHvd+2D5fSWKP7LHZnk7b0tElFsZ7ENuQAI3qTyG3Za3EY8VumYuH2PVonSrBOYiBR/xyZVKNN77QdQwl49UHF6pI3DLvArrk/Zk3nbICuRyvO1Hf2nbOt3ZY54zPzNB89excLHvVsF8B209bzzWNG+bJnCrOwrcVu5QCdY81UJo/phV+E43/HNuzIRsnbjUNW6d2JqEcL8xwdzbWc1rs+2ravDwZNDWUZXW0sAai7f/gHd28i2rAzfzMlFTFf2X0JuETNLW6GFeaXX1ixDvNOLvLaeKrVBwS+7fmyVvG+2R9tFKlMFKSl4NDNqIisvOanteVoN/G0Ww3Pqpgu5/ExHRIDLbh9yC3dYrczEnW1S02dfwxMpmpGW0441ksOiRlvniuHnhzLa/Q1pI935XFib4DnRF5rW5fEClQ/B1jD1/st8OnWIEbT29wO1718dNsnnU7Pz1WgA2C1M2KybdiLQitM13zNtQzdMfQ0fzWQVrPbaKzTfXKkTNvJce6m0FR8o3gVyIefP9ixmFbVUkE3L1/TMai+apcUcHSIV66V5to5vpBm7N7sVqzI1XcX98W0sdqq0nsxYi+VuGY0PQNtqTXen/CfPi1GD7KFGB3Xzzktl+zJrtxwSIiGi45KF9lJJjFwKKlElDfo20ilE2I0UOoXoVO3Xj72W23pz5AS9lsMDbCdvFGBxt9bPyebGCth5ZLGH1SpQvfBCg1yKgvKoJyLpPnI16ju2y2/J1Ml8tDtfu/3wp7cUL+tGtYpOWjVfg73jZ4WrFw1udCE8ioSVqd8L3kykz1mqgjUBSYd9qshDBqy8/Op/ogNBuaJe756AD45kMoB6ettGeLEr/q93f2QIRFVfHl5W/3kfxVoInIqKB6WkGbSVgQzY7vPRUBsdeGio6jvaFNvohK4COHT5jfswhx89FE0p6Z827r6OPPKWYQdt6cdVZGyUhVWy+zGKLUPN92yoaoB8K47t8vD72T/rYwn90XDIks1Myrta973NUtY+kdBe/UMeTDtmGWtSZcj6MepjaRnuyKv3XngyebYGIiktmqRSphZSIiJKzYPaZWdVWcA3Aa6M7Q9l9yygwbZ9Hg+h4MpdKTvxJC6m7E38yG64SnjV/A8/awG8HuNxSjkjAZkIx+VCePOfg44rCYImzliWRzV9X9+c6MfobO5/tADL2xf22QmyQaj6502Slz1kFdfL279XDP2DIlpyxunnjZfA8GaK20R4p/YduwTWFo3b1USIqNmkh1ZgBERENIb2tBeAop2QuW2QCIx2dhWsai1i4MPjzR1o3/c6iuQ3H4Zw6BJmBHxzd0XcxaMsJG07FAVuj4uMjJQeoSYmXRHYZttUHDQiT0BiZX9Khesn+gW8+m69Hr7rcMgHB2zZcC9XDLz9y7cm/e2T+TL8z2WhTNbaNOrWjxTsS0msfJaKiu3nhpHk7ByIiGi62GimDE7Y0uLG/BiqhMiFVI4PjrlsIvW8hKTdl7rP3jjla3/6CCskw0YaSBTl3tPJpOVpHC8oudFCxJVPSZFn3fbwCndIfgLb92Bj7jZ7uhNBpLZDQDQxdl6Ru6uXH5ps/+WC8FdlQJ9qnfPWQub/t3DYTZi6Zj5cQ6U89z2t3ND4O/4AWAzVHdKfOtlGHMmsf9Y8iqLfQboKICq7jfQd+9GvbSkFEREOEs9qKp2EuHynzmn3CPHZH4Ja2zxkZP5GkUEnr3LTZFznkODjcY46jfoaxw1/HwsVtVS8xaMuALHKgPagwsoGPeeLjqJMKsLiyTVZqfSmN1UglOETC1WxKDz57b9Uqn5QXo9JOyLZRp7JaOUrpSfNGKmEYYBMV3a7bUiH+HeiKrFjGxRGIiIaFVLWNHpkx4cZOF+ijrEjLaMcbMQGR+7lsWjVx80LylWfSQjr2vIyGOmaOJa8ATqfC7zeX183vP2n+Hu75xWwddWSsO39t9Kpd7WPCXE5Li6iEX47bLCd9H/KkHEmylbQbso2Y2+K+YoaKaJJto5nIpn200hkHERXfjb+XRU7mgOg53HskAxERlUnoTXdH8lDe2VVGI2Wr0ONRLu5IoUyoXkVabMglxRP6JTinpEiqtp15bQzaUiCh06i57DVB1thvtJIL4nCtYS4f2UUObAmn4yd9lwR7NuQz12fUXLfRfx5sX7kXsnUDvKRv06egcpENvwRtrslGf2FI20Z7pH00E+pU93EnoqKTHdzI7OBqLQOJhz1skxYWLpJERMNBuiNUNGzb/uJ1ZPzJ38QhG+zoqABuafscSbpldL14BdAzGcwOVOaE41nz7p5V/QzaEmJXDL26HKrJ7JJnAVta+5a5fCLhmq1ey6KKZzNxK6kEbnV73Wd3vs3c+08rIVsalXnmp7dBZVOF8g7BuSFuG+3JavVRKKloy+TEAhGl4KOL8gLdZNiGeXRUBmfUiYgyEi+MMCzbPWlRdD14f0AN4IHPzEMUSVGD+5ZRYNpZYUPH0+j4sh9yCy7JnNpKeBZjh7f8MgZtyZFwTSq6PrGrhvp4S2vbRilP8tweYEo4piKcQ3zdJ2yF2z1Ct6DbBtsNFafM7X0/rfZXxaCtfPwwm78Jto32ZNQ+GtZBROUhYZsXNqE6X4frndw80OZEZcd7EkREw2bh4ozZBs6g3LT530lzQuljFInMZYt8k0t4r8M1aSteuDANV2RemxcumscoixZSKRqZ2qqFlEFbAiR4sm2TCjUUtWpDrnvc+ikVbhIQTti216vrLisVew1z+aQbJqZ2m81v4xyAMpH2QQX31WxsG12RWfuoedzZPkpULjKz7c6uORM4fX2o5vbIbQ29b4GLvBDRsLp54aStbC6nuDILulgn6cf+GubEtoLfaWTQMnqr+7rolpz0gzpvHjHXj5XJRNQr5rLpKuwM2pIROF7QIDW2wk3mx8WhW2Qu7yOudrvS/fiT3iIOcBAqeiGKdRaB7iUwzzL389nYNroiu/bRGtg+SlQ+ckYZuhc8zaH85sxtfTL1+TNERHl388KxEoZt2oY2LiuzEtEwF19BqRNQ3hG4JffZVGavi6HS5nX5pC2scGsPKtHPMHZ4w5VPGbTR1hTGbbVbfHE+Z+kOW0fLxQ9ryALbRtfLon0UbB8lKikJ29rNRbOTK5VtMs+mjHPbzG3Ss7ZdlCEbEVEsDtvK0kYah2xym4pGWkY73gjibjOXzH2mmuY+u4CsyD5IpXMLKsricdtvLq9j7Pm7/oFBG+WXxnx7QrEtoyzittF7r4WcNLaN3o3to0SUhpsXzA63nrKLJJSrlVTbAHHh4pNxVTARES2TNlLbalnokyzFDdn+3X+JVxn1o1/DNTnOCtWryJqsiK69q92TfY6pE+ZNbf28NgZtCTBhUBuc05EGto2WS9BtH3SMbaN3ybZ9NAARlZfMSwm9pm2vjGemFL267RZ09Gz3QJKIiDaycKFhtpXPFfQkSzyTrYgh25/+FXDfHWldPJ3BXDYNz3suN1XecrJP6ZMZHOMoE/KdNe/2rP4kg7bktEBJa4HKg22jeZNR+2hUBxGVW9xK2obW9VXVbUUL3Mz1VW+j4z2Om29ms70kIiqSm29esidZpM2+GNt8Hb8+RU8WbyabaACfP2BCNvNaC5yAW3E4eaM5jzzpeBod/zhcF0EpjKASnsXY4eVPMWhLisZVULIi5OsPl/pn20aV6xcAto1uJav2UY2jG80xIKISkuq2mxeb5gzzw+aP/6WCBG6rDrzO5+dMPRFREcg2U9rs8z9CIB4JEJqTKUU9VgjkpcoL4tUvHZPHNo/hpJ3XFpo7Rmdw3dQh82aq10LKoC0hnai0yxtnZmGCLX8lEpjLOJzjc2hTWbWPxmXtNRDR8Fi4KGeZZ+J20txWuMUBm0YdNy88zJM0REQDkJMstrotd7Pb4oVt5GSKjAQo6txNKWKoaGVCJfcto/JaGa80nk+yzwGZ1aYvwS0Vh55qRP6jAkqEDO0fu2oOWhUPIBOh2TZaKnG7oPsXWbaN3ou0Qx2Aa9qTMz4t7IxG+s8hF8/RMq7GeC/DeL+W5fmanLbdHLfNpYmHDzfN+3q8QI7qbYMUsqHjkw76VdzcabgmD4HqfVAWw7iNSsog952LbUbv96T987ntWzHcf09xRXDDhEJNeyygcaQbCmWxvV/Z1m/3REq8iXf1nN7Z76hE8lZCnb+E2+eZ/K5G7qu9pYUU6jj8aJ/jILJqHpv/w7z/elY7NaU0Nqtr8DELGpzGyYUDqixLRRMREdF6tr1CBdgVHbJt5SuVz2nun3YPSOSAS101O+NnuJIoEZEjo4flJIsJh9Rk9zNpbe91923b/Ibz3NaTawzaEjZ2Vc+yqm1wKsT+GxOKM9qIiIiGQS90swvnqANmX2of1o4c2Ok+6/oz/PPxPF09j9B/hwdcREQZCupV+J0a4B1KdHsvwZqcSPHMceSd2/+A9v9sgygDDNoSNjqr68rHOVDftNlA3jwQ9zYTERHRkNr7XXk7boc9K2/cHEB9GUo/BGnN2NiS+RoToKlP4ZmDrUgvwQuv4c7uNoM1IqIck+Ct0pHtfDXe3ut/b5IK2dZvvL23gRpksbWPzde2ua2nvGHQloLRq/ojJUu8urOdvuzCPNYmaDtjgrYpEBEREREREREVCBdDSIGKcNzBrDZZHWtJK1zyNK4hwtU75kxue0K1e18QzOrAPMCB8rDPJHGHVrW05jp087iCKxEREREREREVECvaUjJ2VV8x9+4EkqftipwRXl2YUK2dfKMJ3qo+MAkPr6jsVnzZktZYvHlAPQwiIiIiIiIiooJh0JYSW03m433z4R4kw2RQaIYhXl1dtdYvmSXXDdxyNQvN3Mi6CdrOg4iIiIiIiIioYBi0pWhsVk/Bx2kMxlawqQgvpbEK59hV3TDPgleQj+fCUifE/iSCRCIiIiIiIiIi1xi0pWz0qj6tFPob7K9xSwMn067wMoFgTXs4m3l1m8b0wgHVABERERERERFRATFoc6Abtp3Adu9vE7CZt/+tE2GmPaG2XKLYhGRQFdtyqaS3VKm7fla8JGkEfXNi818vra6+hytZhW0ymy2M8CSr2YiIiIiIiIioqBi0ObJqJlqAje93u4oo4oCtuVXgZEIx7JJwLTI/J0LNBG37TFB1wFzGzc+vmi+pdr90yfzMeRO02VVJ4eOSfDIModsbhG5Zhm2czUZERERERERERcegzbFum+Yhc8fv632uG4RdC4FL26lg6wB7TNB21ARth8wjWMM2md/TNu9asqBCxUe7s0HgZlcm9fC+y7DNhGwzJmQ7CSIiIiIiIiKiAmPQVhBSxWbCMYUQNe3jrHngAgxmxgRtr+4Cbt24O2xzV9mmMbdwQD0OIiIiIiIiIqKC80C5JyGbscdcXodvArDBQzYx5ft437zfP/ZPes0/SNuqzEuTuWlIkfz8ToTnQERERERERERUAqxoy7luyDZSqeAtaIwjDQrT5m1j4T+ufTrsndXjOg7jEn+ecPEDIiIiIiIiIiobVrTl34jv40pqIZvQOGXeNsaurq1suzGh5hHiJSRNY9aEbI8zZCMiIiIiIiKiMmFFW451WzrnUg3ZVtMmVItwemHdzLbRq/q0UpjC4LTWOMOFD4iIiIiIiIiojBi05ZRd/KCCRrfazJ0QT3aA2fWrkY5d1VfMs2UCfZJWURXhuAnxWiAiIiIiIiIiKiG2jubXiPOQzZAVTREvvLCGLFpgwrIZ+RLshMYtc5mWVlGGbERERERERERUZqxoy6GxWS2B12JCq4vumEnSmirEsfUtpGJ0VtdNPPuKUva6qY2/3b5dMm//mwnoZtoTaglERERERERERCXHoC2HTNBWg49ZZCnExFYVaHIdtYdD5gm0r/c5rdD2NK7pCNdYvUZEREREREREw4ZBW87Y2Ww+3jYfTiJLGq1OhIn2BJ8iRERERERERETbwRlt+RMg65BNKNTM2yqIiIiIiIiIiGhbGLTljO9jHDlR8TAFIiIiIiIiIiLaFgZteaNtJVleHJBWViIiIiIiIiIiujcGbTmzenGBzLF9lIiIiIiIiIho2xi05YxWdkZbbuxCvq4PEREREREREVFeMWjLGZWzYCvy8RCIiIiIiIiIiOieGLTRvewBERERERERERHdE4M2IiIiIiIiIiKiBDBoyxkNtJEvt0BERERERERERPfEoC1nlMISckSF+BRERERERERERHRPDNpyRke4hhzpAPMgIiIiIiIiIqJ7YtCWMypPwZbGfHtC5arCjoiIiIiIiIgorxi05U2Un6BNA1dBRERERERERETbwqAtZxYmVMu8y0UVmRehCSIiIiIiIiIi2hYGbXmkcQZZ02jdmFCcz0ZEREREREREtE0M2nKoE2EGGdNgNRsRERERERER0U4waMshWYBA6+zCNgnZbh5Q50FERERERERERNvGoC2nwgjTJmxbhGPyO8MQ0yAiIiIiIiIioh1h0JZTUtWmIhyHaxFeMr+7DSIiIiIiIiIi2hEGbTlmVyDVDqvLzO+6OaEugYiIiIiIiIiIdkyBcm/sqm6YR+oVpPd4afO/VxcOqAaIiIiIiIiIiKgvDNoKYnRW1+HhFaUwgiRp3NIKL938c9UEERERERERERH1jUFbgQSzOvA9nDJh21EM/thJFVurE+E4Z7IREREREREREQ2OQVsBjc3qmvZwtBu4iZ08jjZgQ4RX7Qw4IiIiIiIiIiJKBIO2ArMVbkBN+fhLrTFugrdgs681/942795REd5hwEZERERERERElDwGbSVigrfqLvNOA9Xe5zqwAdtSe0ItgYiIiIiIiIiIUvP/AwUM++33pP/hAAAAAElFTkSuQmCC" vertex="1" parent="1">
          <mxGeometry x="708.64" y="348.76" width="109" height="21.24" as="geometry" />
        </mxCell>
        <mxCell id="ugSwHuxISsAq8XEXFErL-41" value="" style="shape=singleArrow;whiteSpace=wrap;html=1;" vertex="1" parent="1">
          <mxGeometry x="510" y="575" width="20" height="10" as="geometry" />
        </mxCell>
        <mxCell id="ugSwHuxISsAq8XEXFErL-43" value="" style="shape=singleArrow;whiteSpace=wrap;html=1;direction=west;" vertex="1" parent="1">
          <mxGeometry x="660" y="575" width="20" height="10" as="geometry" />
        </mxCell>
        <mxCell id="ugSwHuxISsAq8XEXFErL-44" value="" style="shape=singleArrow;whiteSpace=wrap;html=1;direction=east;" vertex="1" parent="1">
          <mxGeometry x="660" y="592" width="20" height="10" as="geometry" />
        </mxCell>
        <mxCell id="ugSwHuxISsAq8XEXFErL-45" value="" style="shape=singleArrow;whiteSpace=wrap;html=1;direction=west;" vertex="1" parent="1">
          <mxGeometry x="510" y="595.5" width="20" height="10" as="geometry" />
        </mxCell>
        <mxCell id="ugSwHuxISsAq8XEXFErL-46" value="" style="shape=singleArrow;direction=north;whiteSpace=wrap;html=1;strokeWidth=3;" vertex="1" parent="1">
          <mxGeometry x="263.75" y="460" width="30" height="60" as="geometry" />
        </mxCell>
        <mxCell id="ugSwHuxISsAq8XEXFErL-47" value="" style="shape=singleArrow;whiteSpace=wrap;html=1;strokeWidth=3;" vertex="1" parent="1">
          <mxGeometry x="325" y="375" width="90" height="30" as="geometry" />
        </mxCell>
      </root>
    </mxGraphModel>
  </diagram>
</mxfile>
